<svg width="450" height="450" viewBox="0 0 450 450" fill="none" xmlns="http://www.w3.org/2000/svg">
<path d="M225 10C343.74 10 440 106.26 440 225C440 343.74 343.74 440 225 440C106.26 440 10.0001 343.74 10.0001 225C9.97584 202.765 13.4068 180.661 20.1701 159.48" stroke="#E8E8E8" stroke-width="2" stroke-linejoin="round"/>
<path d="M225 10C343.74 10 440 106.26 440 225C440.039 252.767 434.679 280.278 424.22 306" stroke="#E7422E" stroke-width="20" stroke-linejoin="round"/>
<path d="M339.29 73.2C362.822 90.8934 381.914 113.821 395.055 140.168C408.195 166.514 415.024 195.558 415 225C415 329.93 329.93 415 225 415C120.07 415 35 329.93 35 225C35 120.07 120.07 35 225 35" stroke="#E8E8E8" stroke-width="2" stroke-linejoin="round"/>
<path d="M24.7598 151.92L23.8898 150.59C24.5692 150.312 25.1142 149.782 25.4098 149.11C25.7198 148.32 25.5698 147.65 24.9398 147.41C24.3098 147.17 23.6198 147.41 22.9398 149.16L21.5898 148.65C22.1598 147.18 21.8898 146.54 21.2398 146.29C21.112 146.244 20.9757 146.227 20.8404 146.239C20.7052 146.251 20.5741 146.292 20.4563 146.359C20.3384 146.427 20.2366 146.519 20.1578 146.63C20.079 146.74 20.0251 146.867 19.9998 147C19.8052 147.594 19.8519 148.24 20.1298 148.8L18.6098 149.32C18.2105 148.364 18.189 147.291 18.5498 146.32C19.1998 144.62 20.4398 143.81 21.8698 144.32C22.2783 144.479 22.625 144.765 22.859 145.136C23.0929 145.507 23.2019 145.943 23.1698 146.38H23.2198C23.4892 145.955 23.8977 145.637 24.3757 145.48C24.8536 145.323 25.3711 145.337 25.8398 145.52C27.3698 146.1 27.6898 147.83 27.0598 149.47C26.8872 150.026 26.5905 150.535 26.192 150.96C25.7936 151.384 25.3038 151.713 24.7598 151.92Z" fill="#E7422E"/>
<path d="M27.0999 144.33L27.8399 142.57L23.1699 140.57L22.5299 142.08L21.3799 141.59C21.566 140.834 21.6034 140.05 21.4899 139.28L22.0699 137.9L28.6299 140.67L29.2699 139.16L30.7799 139.8L28.6099 145L27.0999 144.33Z" fill="#E7422E"/>
<path d="M26.5902 133.61C24.9802 132.81 24.4602 131.5 25.0302 130.33C25.6002 129.16 26.9602 128.78 28.5802 129.57C30.2002 130.36 30.7402 131.69 30.1602 132.86C29.5802 134.03 28.2102 134.4 26.5902 133.61ZM28.0002 130.84C26.8602 130.28 26.3002 130.42 26.1002 130.84C25.9002 131.26 26.1002 131.78 27.2702 132.35C28.4402 132.92 29.0002 132.78 29.2002 132.35C29.4002 131.92 29.1002 131.41 28.0002 130.84ZM27.3702 125.69L27.8902 124.69L34.1102 133.18L33.5902 134.23L27.3702 125.69ZM32.8202 129.25C31.2102 128.45 30.6902 127.14 31.2602 125.97C31.8302 124.8 33.1902 124.42 34.8102 125.21C36.4302 126 36.9702 127.33 36.3902 128.5C35.8102 129.67 34.3902 130 32.7702 129.25H32.8202ZM34.1802 126.48C33.0302 125.92 32.4802 126.06 32.2802 126.48C32.0802 126.9 32.2802 127.42 33.4502 127.99C34.6202 128.56 35.1702 128.42 35.3802 127.99C35.5902 127.56 35.2802 127.05 34.1302 126.48H34.1802Z" fill="#E7422E"/>
<path d="M35.0001 120.92C32.4801 119.48 31.7401 117.22 32.8701 115.24C34.0001 113.26 36.3301 112.76 38.8701 114.24C41.4101 115.72 42.1801 117.97 41.0501 119.94C39.9201 121.91 37.5201 122.36 35.0001 120.92ZM38.2501 115.23C36.2501 114.11 34.5501 114.34 33.7501 115.75C32.9501 117.16 33.6301 118.75 35.5901 119.88C37.5501 121.01 39.3401 120.81 40.1401 119.4C40.9401 117.99 40.2201 116.35 38.2601 115.23H38.2501Z" fill="black"/>
<path d="M40.0699 113.16C36.2199 110.75 36.4899 108.98 37.5199 106.61C37.7451 106.18 37.8876 105.712 37.9399 105.23L38.9399 105.58C38.9198 106.068 38.7935 106.546 38.5699 106.98C37.5699 109.29 37.2699 110.12 40.8299 112.35C42.4799 113.35 43.8299 113.35 44.5299 112.23C45.0799 111.35 44.5999 110.17 43.3199 109.37C42.0399 108.57 41.0599 108.72 40.4399 109.7C40.2438 110.07 40.1412 110.482 40.1412 110.9C40.1412 111.318 40.2438 111.73 40.4399 112.1L39.6999 111.68C39.5146 111.249 39.4352 110.78 39.4683 110.312C39.5013 109.844 39.6459 109.391 39.8899 108.99C40.7299 107.64 42.3199 107.33 43.9799 108.38C45.7899 109.51 46.2399 111.38 45.3799 112.72C44.2699 114.43 42.3599 114.6 40.0699 113.16Z" fill="black"/>
<path d="M42.1401 104.93L42.6701 104.15L43.3701 104.5C43.2432 103.708 43.3914 102.896 43.7901 102.2C44.7901 100.76 46.3901 100.75 48.1101 101.91C50.0101 103.19 50.3501 105.08 49.4901 106.35C49.0651 106.897 48.4708 107.287 47.8001 107.46L48.8001 108.09L50.6801 109.36L50.0401 110.3L42.1401 104.93ZM47.4801 102.86C46.2501 102.03 45.1501 101.86 44.4801 102.94C44.1486 103.552 44.0594 104.266 44.2301 104.94L47.1501 106.94C47.7501 106.795 48.2785 106.44 48.6401 105.94C49.2301 105 48.8601 103.79 47.4801 102.86Z" fill="black"/>
<path d="M50.2202 101.9C49.0402 101.05 49.2202 99.6001 50.6102 97.1001C49.9102 96.6001 49.0702 96.3402 48.4302 97.2302C48.0411 97.8243 47.8358 98.52 47.8402 99.2302L46.9502 99.1301C46.9661 98.1854 47.2543 97.2652 47.7802 96.4802C48.7802 95.1602 50.0302 95.2402 51.3802 96.2202L54.7202 98.6301L54.1702 99.3901L53.4602 99.0002C53.5665 99.8233 53.3826 100.658 52.9402 101.36C52.8117 101.591 52.6347 101.79 52.4215 101.945C52.2082 102.101 51.9637 102.208 51.705 102.259C51.4463 102.31 51.1795 102.305 50.9231 102.243C50.6668 102.181 50.4269 102.064 50.2202 101.9ZM52.7202 98.6301L51.2202 97.5402C50.1202 99.5402 50.1102 100.45 50.8102 100.96C50.9262 101.062 51.0642 101.135 51.2133 101.174C51.3624 101.214 51.5185 101.218 51.6696 101.187C51.8206 101.156 51.9625 101.091 52.084 100.996C52.2055 100.901 52.3035 100.779 52.3702 100.64C52.7403 100.04 52.8656 99.3202 52.7202 98.6301Z" fill="black"/>
<path d="M52.4902 94.85C48.9102 92.06 49.3602 90.33 50.6302 88.08C50.8905 87.6726 51.0767 87.2223 51.1802 86.75L52.1802 87.2C52.1066 87.6823 51.9292 88.143 51.6602 88.55C50.4402 90.74 50.0602 91.55 53.3702 94.12C54.9002 95.31 56.2202 95.45 57.0602 94.38C57.7002 93.56 57.3402 92.38 56.1502 91.38C54.9602 90.38 53.9702 90.5 53.2502 91.38C53.0096 91.7223 52.858 92.1191 52.8092 92.5346C52.7603 92.9501 52.8156 93.3712 52.9702 93.76L52.2702 93.27C52.1351 92.8207 52.1072 92.3461 52.1889 91.8841C52.2705 91.4221 52.4593 90.9858 52.7402 90.61C53.7402 89.36 55.3202 89.21 56.8702 90.41C58.4202 91.61 58.8102 93.6 57.8102 94.88C56.5402 96.54 54.6302 96.51 52.4902 94.85Z" fill="black"/>
<path d="M58.8598 90.4798C57.7398 89.5498 57.9898 88.1098 59.5798 85.7098C58.9098 85.1598 58.0898 84.8498 57.3898 85.7098C56.9568 86.2911 56.7031 86.9863 56.6598 87.7098L55.7798 87.5498C55.8572 86.6113 56.2045 85.7153 56.7798 84.9698C57.8298 83.7098 59.1098 83.8798 60.3898 84.9698L63.5598 87.6098L62.9598 88.3298L62.2798 87.8898C62.3336 88.7176 62.0966 89.5381 61.6098 90.2098C61.4592 90.4248 61.2639 90.6047 61.0373 90.7371C60.8107 90.8696 60.5581 90.9514 60.2969 90.977C60.0356 91.0027 59.772 90.9715 59.5239 90.8857C59.2759 90.7999 59.0493 90.6614 58.8598 90.4798ZM61.5798 87.3798L60.1498 86.1898C58.9198 88.0898 58.8498 89.0298 59.5098 89.5798C59.6191 89.6891 59.7523 89.7715 59.8989 89.8206C60.0455 89.8697 60.2014 89.8842 60.3545 89.8629C60.5076 89.8415 60.6537 89.785 60.7813 89.6977C60.9088 89.6104 61.0144 89.4948 61.0898 89.3598C61.5038 88.7883 61.6795 88.0784 61.5798 87.3798Z" fill="black"/>
<path d="M61.41 81.2301L59.92 82.9101L59.23 82.3001L63 78.0801L63.69 78.6901L62.2 80.3801L66.54 84.2101L65.79 85.0601L61.41 81.2301Z" fill="black"/>
<path d="M64.0698 76.8502L64.8498 76.0302L66.6398 77.7302L67.2898 77.0402C68.3898 75.8902 69.5898 75.5402 70.6498 76.5502C71.7098 77.5602 71.4698 78.8102 70.3698 79.9602L68.9398 81.4702L64.0698 76.8502ZM69.6298 79.4302C70.4098 78.6102 70.4998 77.9402 69.8898 77.3602C69.2798 76.7802 68.6298 76.9202 67.8898 77.7402L67.3298 78.3402L69.0598 80.0002L69.6298 79.4302ZM68.1398 72.5702L68.9198 71.7402L73.7898 76.3602L72.9998 77.1902L68.1398 72.5702Z" fill="black"/>
<path d="M70.6602 70L72.5102 68.2C73.5102 67.2 74.6202 66.82 75.5102 67.69C75.7486 67.9215 75.899 68.2288 75.9355 68.5591C75.972 68.8894 75.8923 69.2221 75.7102 69.5C76.0249 69.2621 76.4165 69.1489 76.8096 69.1822C77.2028 69.2154 77.5698 69.3927 77.8401 69.68C78.7701 70.68 78.3902 71.82 77.2802 72.9L75.3502 74.78L70.6602 70ZM74.3302 70.35C75.1402 69.57 75.1802 68.99 74.7502 68.55C74.3202 68.11 73.7502 68.14 73.0002 68.86L72.0002 69.8L73.4002 71.24L74.3302 70.35ZM76.6102 72.44C77.4102 71.66 77.5002 70.98 76.9802 70.44C76.4602 69.9 75.7902 70.07 74.9802 70.86L73.9802 71.86L75.5702 73.48L76.6102 72.44Z" fill="black"/>
<path d="M78.8599 69.0002C77.8599 67.9202 78.3099 66.5302 80.2099 64.3702C79.6299 63.7402 78.8599 63.3102 78.0499 64.0502C77.5419 64.5671 77.1946 65.2201 77.0499 65.9302L76.1899 65.6602C76.404 64.7378 76.8756 63.8951 77.5499 63.2302C78.7599 62.1302 79.9999 62.4702 81.1299 63.7002L83.9099 66.7002L83.2099 67.3302L82.5999 66.8102C82.5348 67.641 82.181 68.4229 81.5999 69.0202C81.4268 69.2129 81.2148 69.3666 80.9778 69.4712C80.7409 69.5758 80.4844 69.6289 80.2254 69.627C79.9664 69.6251 79.7108 69.5683 79.4754 69.4602C79.24 69.3522 79.0302 69.1954 78.8599 69.0002ZM81.9999 66.3002L80.7499 64.9202C79.2699 66.6402 79.0799 67.5602 79.6599 68.1902C79.7533 68.3125 79.8735 68.4117 80.0114 68.4799C80.1493 68.5481 80.3011 68.5836 80.4549 68.5836C80.6088 68.5836 80.7606 68.5481 80.8984 68.4799C81.0363 68.4117 81.1566 68.3125 81.2499 68.1902C81.7331 67.6797 82.0016 67.0031 81.9999 66.3002Z" fill="black"/>
<path d="M81.0898 60.2599L81.9498 59.5299L83.7299 61.6399L85.0298 60.5399L85.6798 61.3099L84.3798 62.4099L86.2798 64.6599L85.4099 65.3899L81.0898 60.2599ZM85.2098 61.1799C83.7898 59.4799 83.9198 57.6599 85.2098 56.5799C86.4998 55.4999 88.2098 55.6899 89.7098 57.3999C91.2098 59.1099 90.9798 60.9199 89.7098 61.9599C88.4398 62.9999 86.6298 62.8599 85.2098 61.1799ZM88.7999 58.1799C87.7999 56.9999 86.6099 56.6399 85.7999 57.3499C84.9899 58.0599 85.0798 59.3499 86.0698 60.5099C87.0598 61.6699 88.2798 61.9999 89.0698 61.2899C89.8598 60.5799 89.7899 59.3299 88.7999 58.1599V58.1799Z" fill="black"/>
<path d="M89.0898 53.5902L89.9799 52.9102L93.4898 57.5002L95.3699 56.0702L91.8598 51.4702L92.7299 50.8102L96.2398 55.4002L98.1298 54.0002L94.6098 49.4002L95.5098 48.7202L99.5798 54.0002L93.1599 58.9002L89.0898 53.5902ZM99.4898 54.0902L99.0698 54.4102L98.5098 53.6802L99.7898 52.6802L100.23 53.2502L101.7 55.3702L100.93 55.9702L99.4898 54.0902Z" fill="black"/>
<path d="M100.14 51.4801C99.3002 50.2801 99.9102 48.9601 102.07 47.0601C101.58 46.3501 100.86 45.8401 99.9602 46.4701C99.3925 46.9187 98.9685 47.5235 98.7402 48.2101L97.9302 47.8201C98.2559 46.9344 98.8285 46.1605 99.5802 45.5901C100.92 44.6501 102.12 45.1401 103.08 46.5101L105.44 49.8801L104.68 50.4201L104.14 49.8201C103.974 50.6382 103.524 51.3714 102.87 51.8901C102.672 52.0613 102.439 52.1876 102.187 52.2604C101.935 52.3332 101.67 52.3507 101.411 52.3118C101.152 52.2729 100.904 52.1784 100.685 52.0348C100.465 51.8913 100.28 51.702 100.14 51.4801ZM103.57 49.2001L102.5 47.6701C100.82 49.1801 100.5 50.0701 101 50.7701C101.076 50.9043 101.183 51.0191 101.311 51.1054C101.439 51.1917 101.585 51.2472 101.738 51.2676C101.891 51.2879 102.047 51.2725 102.193 51.2227C102.339 51.1728 102.472 51.0897 102.58 50.9801C103.123 50.5333 103.477 49.8973 103.57 49.2001Z" fill="black"/>
<path d="M108.79 44.5L107.79 45.18C106.68 45.9 105.26 46.12 104.45 44.89C103.64 43.66 104.31 42.6 105.56 41.78L107.56 40.48L111.23 46.09L110.23 46.72L108.79 44.5ZM108.33 43.81L107.04 41.81L106.16 42.38C105.28 42.96 104.94 43.59 105.38 44.25C105.82 44.91 106.57 44.93 107.45 44.35L108.33 43.81ZM106.77 45.12L107.77 44.88L107.66 48.42L106.59 49.12L106.77 45.12Z" fill="black"/>
<path d="M112 37.71L116.59 35L119.99 40.79L118.99 41.37L116.06 36.37L113.39 37.94L116.32 42.94L115.32 43.51L112 37.71Z" fill="black"/>
<path d="M118.7 33.7899L119.52 33.3499L120 33.9999C120.251 33.2379 120.756 32.585 121.43 32.1499C122.96 31.3199 124.43 32.0699 125.43 33.8899C126.52 35.8899 125.95 37.7299 124.6 38.4599C123.976 38.7545 123.27 38.8252 122.6 38.6599L123.19 39.6599L124.27 41.6599L123.27 42.1999L118.7 33.7899ZM124.38 34.4299C123.68 33.1199 122.76 32.4899 121.65 33.0899C121.073 33.4785 120.666 34.0719 120.51 34.7499L122.18 37.8499C122.772 38.0065 123.399 37.9462 123.95 37.6799C124.93 37.1599 125.17 35.8899 124.38 34.4299Z" fill="black"/>
<path d="M126.65 33.3501C126.408 32.9798 126.248 32.5624 126.179 32.1256C126.11 31.6888 126.135 31.2424 126.251 30.8158C126.368 30.3891 126.573 29.992 126.854 29.6506C127.135 29.3091 127.485 29.031 127.881 28.8347C128.278 28.6384 128.711 28.5282 129.153 28.5115C129.595 28.4948 130.035 28.5719 130.445 28.7378C130.855 28.9036 131.225 29.1544 131.531 29.4737C131.837 29.793 132.072 30.1734 132.22 30.5901C132.462 30.9604 132.622 31.3777 132.691 31.8145C132.76 32.2513 132.735 32.6977 132.619 33.1243C132.502 33.551 132.297 33.9481 132.016 34.2895C131.735 34.631 131.385 34.9091 130.989 35.1054C130.592 35.3017 130.159 35.4119 129.717 35.4286C129.275 35.4453 128.835 35.3682 128.425 35.2023C128.015 35.0365 127.645 34.7857 127.339 34.4664C127.033 34.1471 126.798 33.7667 126.65 33.3501ZM131.17 31.1101C130.49 29.7301 129.32 29.1101 128.29 29.6501C127.26 30.1901 127.02 31.4501 127.7 32.8301C128.38 34.2101 129.54 34.8301 130.58 34.2701C131.62 33.7101 131.85 32.4801 131.17 31.1101Z" fill="black"/>
<path d="M132.45 26.7501L133.65 26.2201L136.14 28.5401L137.36 29.7901C137.36 29.2101 137.36 28.6301 137.25 28.0401L137.12 24.6501L138.31 24.1201L141.06 30.2401L140.12 30.6601L138.88 27.9101C138.64 27.3701 138.29 26.4001 138.05 25.7501C138.05 26.3101 138.11 26.9201 138.14 27.4601L138.25 30.8101L137.56 31.1201L135.11 28.8201C134.73 28.4401 134.28 28.0201 133.89 27.6201C134.22 28.2301 134.71 29.1301 134.95 29.6701L136.19 32.4201L135.26 32.8401L132.45 26.7501Z" fill="black"/>
<path d="M140.64 23.1198L141.69 22.6998L142.61 24.9998L143.49 24.6498C144.97 24.0498 146.2 24.2398 146.75 25.6498C147.3 27.0598 146.54 28.0398 145.06 28.6498L143.13 29.4198L140.64 23.1198ZM144.64 27.7898C145.64 27.3698 146.05 26.7898 145.73 26.0098C145.41 25.2298 144.73 25.0898 143.73 25.5098L142.96 25.8198L143.87 28.0898L144.64 27.7898ZM146.14 20.9298L147.2 20.5098L149.69 26.7398L148.69 27.1598L146.14 20.9298Z" fill="black"/>
<path d="M149.5 19.6302L150.56 19.2702L152.45 24.7302L154.69 23.9602L152.8 18.4902L153.8 18.1302L155.7 23.6002L157.93 22.8302L156.04 17.3602L157.1 16.9902L159.3 23.3302L151.69 26.0002L149.5 19.6302Z" fill="black"/>
<path d="M160.45 22.9998L160.35 21.9398C160.453 21.9588 160.558 21.9588 160.66 21.9398C161.11 21.8098 161.28 21.3098 161.11 20.3298C160.86 18.8898 160.6 17.4498 160.35 16.0098L164.29 14.8198L166.23 21.2398L165.14 21.5698L163.47 15.9998L161.47 16.6098C161.68 17.8298 161.9 19.0598 162.11 20.2898C162.36 21.7698 162 22.6598 161.06 22.9398C160.863 23.0005 160.655 23.0209 160.45 22.9998Z" fill="black"/>
<path d="M167 17.5398C166.85 17.1338 166.783 16.7019 166.803 16.2696C166.823 15.8373 166.929 15.4133 167.116 15.0228C167.302 14.6322 167.565 14.283 167.889 13.9956C168.212 13.7083 168.59 13.4887 169 13.3498C170.66 12.9098 171.91 13.8498 172.4 15.7098C172.455 15.9162 172.492 16.127 172.51 16.3398L168.14 17.4998C168.202 17.7969 168.324 18.0783 168.498 18.3267C168.672 18.5751 168.895 18.7853 169.154 18.9444C169.412 19.1036 169.7 19.2083 170.001 19.2522C170.301 19.2961 170.607 19.2783 170.9 19.1998C171.477 19.0381 171.993 18.7072 172.38 18.2498L172.96 18.8698C172.433 19.4744 171.736 19.9064 170.96 20.1098C170.53 20.2198 170.082 20.2395 169.645 20.1677C169.207 20.0959 168.789 19.9341 168.417 19.6927C168.045 19.4512 167.727 19.1352 167.483 18.7647C167.239 18.3941 167.075 17.9771 167 17.5398ZM171.39 15.7998C171.05 14.4998 170.28 13.9498 169.26 14.2198C168.761 14.3875 168.345 14.7401 168.097 15.2051C167.85 15.67 167.79 16.2121 167.93 16.7198L171.39 15.7998Z" fill="black"/>
<path d="M173.41 12.3899L174.51 12.1399L175.12 14.7899L178.27 14.0699L177.66 11.4199L178.77 11.1699L180.26 17.7099L179.16 17.9599L178.49 15.0499L175.35 15.7699L176.01 18.6799L174.91 18.9299L173.41 12.3899Z" fill="black"/>
<path d="M181.14 10.6701L182.26 10.4601L182.76 13.1401L185.93 12.5301L185.43 9.86014L186.54 9.64014L187.79 16.2401L186.68 16.4501L186.12 13.5201L182.95 14.1201L183.51 17.0501L182.39 17.2701L181.14 10.6701Z" fill="black"/>
<path d="M189 12.6401C188.874 12.2128 188.841 11.7636 188.902 11.3223C188.963 10.881 189.117 10.4578 189.354 10.0807C189.592 9.70365 189.906 9.38138 190.278 9.13531C190.649 8.88923 191.068 8.72499 191.508 8.6535C191.948 8.582 192.398 8.60488 192.828 8.72063C193.258 8.83637 193.659 9.04232 194.003 9.32481C194.348 9.60729 194.628 9.95983 194.826 10.359C195.024 10.7582 195.134 11.1949 195.15 11.6401C195.261 12.0622 195.283 12.5029 195.214 12.9339C195.145 13.3649 194.986 13.7767 194.749 14.1428C194.511 14.5089 194.199 14.8212 193.834 15.0598C193.468 15.2983 193.057 15.4577 192.626 15.5277C192.195 15.5978 191.754 15.5769 191.332 15.4666C190.91 15.3562 190.515 15.1587 190.174 14.8867C189.832 14.6148 189.551 14.2744 189.349 13.8875C189.147 13.5006 189.028 13.0757 189 12.6401ZM194 11.8701C193.76 10.3501 192.83 9.4401 191.69 9.6101C190.55 9.7801 189.94 10.9401 190.17 12.4601C190.4 13.9801 191.33 14.8801 192.47 14.7001C193.61 14.5201 194.17 13.3901 193.94 11.8701H194Z" fill="black"/>
<path d="M196.39 11.5198C196.298 11.08 196.298 10.6259 196.391 10.1862C196.483 9.74651 196.666 9.33077 196.927 8.96523C197.188 8.59968 197.523 8.29227 197.909 8.06241C198.295 7.83255 198.724 7.68523 199.17 7.62976C199.883 7.54714 200.6 7.74432 201.17 8.17976L200.68 8.98976C200.287 8.677 199.791 8.5235 199.29 8.55976C198.08 8.70976 197.29 9.85976 197.51 11.3798C197.73 12.8998 198.66 13.8298 199.88 13.6798C200.46 13.5856 200.986 13.2834 201.36 12.8298L201.94 13.5198C201.43 14.1199 200.719 14.5143 199.94 14.6298C198.16 14.8498 196.65 13.7298 196.39 11.5198Z" fill="black"/>
<path d="M204.28 8.19L202.04 8.39L202 7.47L207.56 7L207.64 7.93L205.41 8.13L205.94 13.89L204.81 14L204.28 8.19Z" fill="black"/>
<path d="M209.19 6.84002L210.32 6.77002L210.47 9.24002L211.73 9.16002C213.32 9.07002 214.43 9.63002 214.52 11.1C214.61 12.57 213.58 13.3 211.99 13.39L209.6 13.54L209.19 6.84002ZM211.82 12.5C212.94 12.43 213.46 12.01 213.41 11.16C213.36 10.31 212.79 9.98002 211.67 10.05L210.53 10.12L210.67 12.57L211.82 12.5Z" fill="black"/>
<path d="M235.59 37.1202L236.67 35.8502C237.169 36.4586 237.887 36.8464 238.67 36.9302C239.57 37.0002 240.2 36.6502 240.25 35.9302C240.3 35.2102 239.87 34.5902 237.87 34.4402L237.98 32.9302C239.64 33.0502 240.19 32.5902 240.25 31.8502C240.31 31.1102 239.91 30.8502 239.19 30.7602C238.532 30.7414 237.892 30.982 237.41 31.4302L236.41 30.0602C237.249 29.3623 238.32 29.0054 239.41 29.0602C241.32 29.2002 242.52 30.2002 242.41 31.8202C242.369 32.2805 242.183 32.7161 241.88 33.0645C241.576 33.413 241.17 33.6565 240.72 33.7602V33.8102C241.232 33.9542 241.677 34.271 241.982 34.7068C242.286 35.1425 242.431 35.6702 242.39 36.2002C242.26 37.9102 240.62 38.7602 238.76 38.6302C238.152 38.6318 237.552 38.4969 237.003 38.2356C236.455 37.9743 235.972 37.5931 235.59 37.1202Z" fill="#E7422E"/>
<path d="M243.41 37.6299C246 35.6999 247.82 34.3199 248 32.9999C248.045 32.8232 248.05 32.6388 248.014 32.4601C247.978 32.2814 247.903 32.1129 247.794 31.9671C247.684 31.8213 247.544 31.7019 247.382 31.6176C247.221 31.5332 247.042 31.4862 246.86 31.4799C246.535 31.4784 246.213 31.5432 245.914 31.6705C245.615 31.7977 245.344 31.9847 245.12 32.2199L244.12 30.9399C244.539 30.5225 245.048 30.2064 245.608 30.0157C246.167 29.8251 246.763 29.7649 247.35 29.8399C247.747 29.8616 248.135 29.9663 248.489 30.1474C248.842 30.3284 249.154 30.5817 249.404 30.8908C249.654 31.2 249.836 31.5581 249.939 31.9421C250.041 32.3261 250.062 32.7273 250 33.1199C249.82 34.6599 248.19 36.1199 246.51 37.5299C247.028 37.5271 247.545 37.5504 248.06 37.5999L249.91 37.8099L249.7 39.5999L243.25 38.8499L243.41 37.6299Z" fill="#E7422E"/>
<path d="M254.66 33.51C255 31.65 256.18 30.75 257.53 31C258.88 31.25 259.66 32.51 259.31 34.37C258.96 36.23 257.79 37.17 256.44 36.92C255.09 36.67 254.32 35.38 254.66 33.51ZM257.85 34.1C258.09 32.78 257.79 32.26 257.31 32.17C256.83 32.08 256.37 32.46 256.13 33.78C255.89 35.1 256.18 35.66 256.65 35.78C257.12 35.9 257.6 35.42 257.85 34.1ZM262.85 31.99L264.07 32.21L257.25 40.94L256.04 40.72L262.85 31.99ZM260.85 38.52C261.2 36.66 262.38 35.76 263.72 36.01C265.06 36.26 265.85 37.52 265.51 39.38C265.17 41.24 263.98 42.18 262.63 41.93C261.28 41.68 260.5 40.39 260.84 38.52H260.85ZM264.04 39.11C264.29 37.79 263.98 37.27 263.51 37.18C263.04 37.09 262.56 37.47 262.32 38.8C262.08 40.13 262.38 40.67 262.85 40.8C263.32 40.93 263.79 40.44 264 39.11H264.04Z" fill="#E7422E"/>
<path d="M270 38.4499C270.77 35.4499 272.87 34.1199 275.19 34.7299C277.51 35.3399 278.66 37.5599 277.89 40.5199C277.12 43.4799 275 44.9099 272.68 44.2999C270.36 43.6899 269.18 41.3999 270 38.4499ZM276.67 40.1999C277.28 37.8999 276.57 36.1999 274.92 35.7599C273.27 35.3199 271.81 36.4599 271.21 38.7599C270.61 41.0599 271.3 42.8299 272.95 43.2699C274.6 43.7099 276 42.4999 276.63 40.1999H276.67Z" fill="black"/>
<path d="M278.92 42.1901C279.022 41.728 279.219 41.2921 279.497 40.9094C279.776 40.5268 280.13 40.2058 280.539 39.9665C280.947 39.7271 281.4 39.5746 281.87 39.5184C282.34 39.4623 282.817 39.5037 283.27 39.6401C284.006 39.8701 284.626 40.3751 285 41.0501L284.18 41.6201C284.062 41.3854 283.898 41.1763 283.699 41.0047C283.5 40.8331 283.269 40.7024 283.02 40.6201C281.8 40.2401 280.58 41.0201 280.1 42.6201C279.62 44.2201 280.1 45.4601 281.39 45.8501C281.989 46.0086 282.625 45.9447 283.18 45.6701L283.44 46.5801C282.675 46.9457 281.802 47.0135 280.99 46.7701C279.19 46.1501 278.22 44.4301 278.92 42.1901Z" fill="black"/>
<path d="M288 42.41L285.76 41.63L286.08 40.71L291.68 42.66L291.36 43.58L289.13 42.8L287.13 48.56L286 48.16L288 42.41Z" fill="black"/>
<path d="M290.69 47.8801C291.25 46.4501 292.76 46.2101 295.69 47.0001C296.02 46.1501 296.05 45.2201 294.98 44.8001C294.249 44.5811 293.471 44.5811 292.74 44.8001L292.6 43.8601C293.568 43.6304 294.581 43.6824 295.52 44.0101C297.13 44.6301 297.39 46.0101 296.75 47.6001L295.19 51.6501L294.26 51.2901L294.48 50.4601C293.668 50.7914 292.765 50.8268 291.93 50.5601C291.658 50.4876 291.405 50.356 291.189 50.1747C290.973 49.9934 290.8 49.7668 290.681 49.511C290.563 49.2552 290.502 48.9765 290.504 48.6946C290.505 48.4127 290.569 48.1347 290.69 47.8801ZM294.69 49.5601L295.4 47.7301C293.09 47.1301 292.13 47.3901 291.8 48.2301C291.734 48.3765 291.701 48.5358 291.704 48.6964C291.707 48.8571 291.746 49.015 291.818 49.1587C291.89 49.3024 291.993 49.4283 292.119 49.5272C292.246 49.626 292.393 49.6954 292.55 49.7301C293.262 49.9499 294.031 49.8891 294.7 49.5601H294.69Z" fill="black"/>
<path d="M296.16 51.9998L296.81 51.0798C296.89 51.1541 296.981 51.2149 297.08 51.2598C297.53 51.4598 298.01 51.1698 298.54 50.2598C299.33 48.9398 300.1 47.6098 300.87 46.2598L304.87 47.9898L302 54.5298L300.9 54.0498L303.34 48.4698L301.34 47.5898C300.68 48.7198 300.02 49.8598 299.34 50.9898C298.53 52.3498 297.64 52.8198 296.68 52.3998C296.48 52.3051 296.303 52.1687 296.16 51.9998Z" fill="black"/>
<path d="M307.2 49.1299L308.28 49.6599L307.14 51.9999L308.34 52.5799C309.85 53.3099 310.58 54.3999 309.91 55.7899C309.24 57.1799 307.91 57.3299 306.4 56.5999L304.12 55.4999L307.2 49.1299ZM306.7 55.6899C307.77 56.1999 308.47 56.0899 308.86 55.2799C309.25 54.4699 308.86 53.8799 307.86 53.3599L306.78 52.8399L305.66 55.1599L306.7 55.6899Z" fill="black"/>
<path d="M313.79 52.3599L314.85 52.9299L313.5 55.4599L316.5 57.0599L317.85 54.5299L318.85 55.0899L315.52 61.3299L314.47 60.7699L316 57.9999L313 56.3899L311.52 59.1699L310.46 58.5999L313.79 52.3599Z" fill="black"/>
<path d="M318.88 59.14C320.08 57.14 322.1 56.72 323.59 57.6C325.08 58.48 325.72 60.43 324.52 62.47C324.334 62.899 324.058 63.2835 323.712 63.5979C323.366 63.9124 322.957 64.1497 322.512 64.2941C322.067 64.4384 321.597 64.4866 321.132 64.4354C320.667 64.3841 320.218 64.2347 319.816 63.9969C319.413 63.7591 319.065 63.4384 318.796 63.0561C318.526 62.6738 318.341 62.2386 318.253 61.7794C318.164 61.3201 318.175 60.8473 318.283 60.3923C318.391 59.9372 318.595 59.5104 318.88 59.14ZM323.46 61.84C324.28 60.44 324.13 59.08 323.08 58.46C322.03 57.84 320.77 58.37 319.95 59.77C319.13 61.17 319.28 62.52 320.33 63.13C321.38 63.74 322.64 63.23 323.46 61.84Z" fill="black"/>
<path d="M325.71 63.2102C326.96 61.2702 329.03 60.9202 330.4 61.8102C331.77 62.7002 332.06 64.4302 330.97 66.1302C330.844 66.3203 330.703 66.5008 330.55 66.6702L326.55 64.0802C326.364 64.3394 326.232 64.6337 326.164 64.9453C326.095 65.257 326.09 65.5793 326.15 65.8928C326.21 66.2062 326.333 66.5042 326.512 66.7685C326.691 67.0329 326.921 67.258 327.19 67.4302C327.718 67.7731 328.341 67.941 328.97 67.9102L328.9 68.8002C328.065 68.8315 327.241 68.6045 326.54 68.1502C326.143 67.8957 325.803 67.5608 325.543 67.1671C325.283 66.7733 325.108 66.3295 325.03 65.8642C324.952 65.3989 324.972 64.9223 325.089 64.4652C325.206 64.0081 325.418 63.5806 325.71 63.2102ZM330.17 65.4002C330.94 64.2102 330.83 63.2202 329.9 62.6202C329.415 62.3507 328.845 62.2772 328.308 62.4149C327.77 62.5525 327.306 62.8908 327.01 63.3602L330.17 65.4002Z" fill="black"/>
<path d="M165.28 378.86C134.772 366.999 108.483 346.329 89.7579 319.482C71.033 292.634 60.7191 260.822 60.1289 228.095C59.5386 195.368 68.6987 163.205 86.4433 135.7C104.188 108.194 129.715 86.59 159.775 73.6365C189.835 60.683 223.07 56.9658 255.249 62.9582C287.429 68.9505 317.098 84.3813 340.48 107.287C363.863 130.192 379.903 159.537 386.557 191.586C393.212 223.635 390.181 256.939 377.85 287.26" stroke="#E8E8E8" stroke-width="2" stroke-linejoin="round"/>
<path d="M53.0001 305.73C41.1254 280.475 34.9788 252.908 35.0001 225C35.0001 120.07 120.07 35 225 35" stroke="#E7422E" stroke-width="20" stroke-linejoin="round"/>
<path d="M377.85 287.26C368.208 310.863 353.238 331.918 334.111 348.778C314.984 365.638 292.217 377.846 267.59 384.45" stroke="#E7422E" stroke-width="20" stroke-linejoin="round"/>
<path d="M260.37 384.79L258.5 385.17L259.5 390.12L261.1 389.79L261.36 391.02C260.617 391.28 259.935 391.692 259.36 392.23L257.9 392.53L256.47 385.58L254.87 385.91L254.54 384.31L259.98 383.19L260.37 384.79Z" fill="#E7422E"/>
<path d="M250.61 392.1L254.48 391.48L254.75 393.16L248.75 394.16L248.56 392.93C250.17 390.21 250.19 388.53 249.81 385.15L251.81 384.83C252.206 387.319 251.785 389.87 250.61 392.1Z" fill="#E7422E"/>
<path d="M237.53 389.25C237.68 391.04 236.83 392.16 235.53 392.25C234.23 392.34 233.21 391.41 233.06 389.62C232.91 387.83 233.76 386.69 235.06 386.62C236.36 386.55 237.38 387.47 237.53 389.25ZM234.48 389.51C234.58 390.78 234.99 391.18 235.48 391.14C235.97 391.1 236.26 390.64 236.16 389.37C236.06 388.1 235.64 387.68 235.16 387.72C234.68 387.76 234.37 388.25 234.48 389.51ZM237.3 395.73L236.14 395.82L240.14 386.16L241.3 386.07L237.3 395.73ZM244.42 392.28C244.57 394.07 243.72 395.18 242.42 395.28C241.12 395.38 240.1 394.44 239.95 392.65C239.8 390.86 240.65 389.72 241.95 389.65C243.25 389.58 244.27 390.49 244.42 392.28ZM241.36 392.54C241.47 393.81 241.88 394.21 242.36 394.17C242.84 394.13 243.15 393.67 243.04 392.4C242.93 391.13 242.53 390.71 242.04 390.75C241.55 390.79 241.26 391.27 241.36 392.54Z" fill="#E7422E"/>
<path d="M226.86 395.08H229.59V396.08H222.98V395.08H225.71L225.65 387.08H226.8L226.86 395.08Z" fill="black"/>
<path d="M222.79 390.39C222.82 390.828 222.76 391.267 222.613 391.681C222.465 392.094 222.234 392.473 221.934 392.793C221.634 393.113 221.27 393.368 220.867 393.541C220.464 393.714 220.029 393.803 219.59 393.8C217.95 393.75 216.54 392.42 216.59 390.19C216.545 389.747 216.594 389.3 216.736 388.878C216.878 388.456 217.108 388.069 217.411 387.743C217.715 387.418 218.085 387.161 218.496 386.99C218.907 386.819 219.35 386.738 219.795 386.752C220.24 386.767 220.676 386.876 221.075 387.073C221.475 387.27 221.827 387.551 222.109 387.895C222.391 388.24 222.596 388.641 222.71 389.071C222.824 389.501 222.844 389.951 222.77 390.39H222.79ZM217.79 390.23C217.79 391.76 218.49 392.82 219.64 392.86C220.79 392.9 221.64 391.86 221.64 390.35C221.64 388.84 220.94 387.77 219.79 387.74C218.64 387.71 217.82 388.7 217.77 390.23H217.79Z" fill="black"/>
<path d="M214.53 393.42L213.6 393.35V392.57C212.978 393.067 212.206 393.338 211.41 393.34C209.68 393.2 208.87 391.79 209.03 389.74C209.21 387.46 210.68 386.25 212.2 386.37C212.884 386.459 213.516 386.78 213.99 387.28L214.05 386.12L214.22 383.86L215.35 383.95L214.53 393.42ZM210.12 389.82C210 391.29 210.43 392.31 211.68 392.41C212.372 392.399 213.034 392.123 213.53 391.64L213.81 388.15C213.397 387.703 212.842 387.413 212.24 387.33C211.14 387.24 210.25 388.17 210.12 389.82Z" fill="black"/>
<path d="M206.75 392.74L202.61 392.24L202.72 391.33L205.72 391.69L206.41 385.97L207.53 386.11L206.75 392.74Z" fill="black"/>
<path d="M202.6 388.88C202.435 389.457 202.107 389.975 201.655 390.371C201.203 390.766 200.646 391.023 200.052 391.11C199.458 391.197 198.851 391.111 198.304 390.861C197.758 390.612 197.295 390.21 196.972 389.704C196.648 389.198 196.477 388.609 196.48 388.009C196.483 387.408 196.659 386.821 196.987 386.318C197.315 385.815 197.782 385.417 198.33 385.173C198.879 384.928 199.486 384.848 200.08 384.94C200.511 385.019 200.922 385.187 201.286 385.432C201.649 385.676 201.959 385.993 202.196 386.363C202.432 386.732 202.59 387.146 202.659 387.579C202.729 388.012 202.709 388.455 202.6 388.88ZM197.6 388.1C197.36 389.61 197.97 390.76 199.1 390.94C200.23 391.12 201.17 390.21 201.41 388.7C201.65 387.19 201.03 386.05 199.9 385.87C198.77 385.69 197.87 386.59 197.64 388.1H197.6Z" fill="black"/>
<path d="M194.05 390.87L191.53 390.36C190.1 390.07 189.21 389.41 189.45 388.22C189.502 387.893 189.668 387.595 189.919 387.379C190.17 387.163 190.489 387.043 190.82 387.04V387C190.449 386.874 190.137 386.616 189.943 386.275C189.75 385.934 189.688 385.534 189.77 385.15C190.03 383.85 191.22 383.5 192.77 383.8L195.4 384.33L194.05 390.87ZM192.28 387.65C191.18 387.43 190.68 387.72 190.56 388.33C190.44 388.94 190.79 389.39 191.8 389.59L193.12 389.86L193.51 387.86L192.28 387.65ZM192.71 384.65C191.62 384.43 191.01 384.74 190.86 385.47C190.71 386.2 191.22 386.66 192.33 386.88L193.67 387.15L194.12 384.93L192.71 384.65Z" fill="black"/>
<path d="M189.6 383.1L189.14 384.1C189.055 384.041 188.96 383.997 188.86 383.97C188.4 383.86 188.01 384.2 187.65 385.13C187.13 386.49 186.65 387.85 186.11 389.22L182.11 388.22L183.72 381.73L184.81 382.01L183.43 387.6L185.43 388.1L186.75 384.61C187.3 383.22 188.05 382.61 189.01 382.88C189.22 382.911 189.421 382.986 189.6 383.1Z" fill="black"/>
<path d="M177.37 382.62L178.56 382.97C179.82 383.34 180.9 384.28 180.49 385.69C180.08 387.1 178.84 387.27 177.41 386.85L175.14 386.18L177.03 379.77L178.11 380.09L177.37 382.62ZM177.13 383.41L176.47 385.66L177.47 385.96C178.47 386.25 179.18 386.1 179.41 385.35C179.64 384.6 179.14 384 178.14 383.71L177.13 383.41ZM179.13 383.75L178.32 383.17L181.07 380.97L182.3 381.33L179.13 383.75Z" fill="black"/>
<path d="M119.24 316.73C98.2969 292.583 86.2471 261.997 85.0933 230.054C83.9394 198.111 93.7508 166.735 112.897 141.14C132.043 115.545 159.372 97.2726 190.34 89.3588C221.309 81.4451 254.053 84.3668 283.131 97.6384C312.209 110.91 335.871 133.732 350.183 162.313C364.495 190.893 368.597 223.511 361.806 254.745C355.015 285.979 337.74 313.948 312.853 334.006C287.965 354.063 256.964 365.001 225 365" stroke="#E8E8E8" stroke-width="2" stroke-linejoin="round"/>
<path d="M261.12 360.3C235.05 367.207 207.545 366.488 181.87 358.23" stroke="#E7422E" stroke-width="20" stroke-linejoin="round"/>
<path d="M169 357.71L172.61 359.21L171.95 360.77L166.36 358.44L166.84 357.3C169.64 355.83 170.52 354.42 171.97 351.35L173.84 352.13C172.877 354.467 171.178 356.427 169 357.71Z" fill="#E7422E"/>
<path d="M155.75 353.69L154.75 353.15L163.3 347.15L164.3 347.68L155.75 353.69ZM159.41 348.37C158.58 349.95 157.27 350.44 156.12 349.84C154.97 349.24 154.63 347.89 155.46 346.31C156.29 344.73 157.61 344.22 158.75 344.82C159.89 345.42 160.23 346.79 159.41 348.37ZM156.7 347C156.11 348.12 156.24 348.67 156.7 348.88C157.16 349.09 157.62 348.88 158.21 347.76C158.8 346.64 158.68 346.06 158.28 345.85C157.88 345.64 157.29 345.83 156.7 347ZM163.58 354.64C162.75 356.22 161.44 356.7 160.3 356.11C159.16 355.52 158.8 354.16 159.63 352.57C160.46 350.98 161.78 350.49 162.92 351.08C164.06 351.67 164.41 353 163.58 354.6V354.64ZM160.87 353.22C160.29 354.35 160.42 354.9 160.82 355.11C161.22 355.32 161.75 355.11 162.33 353.99C162.91 352.87 162.8 352.29 162.4 352.08C162 351.87 161.46 352.06 160.87 353.18V353.22Z" fill="#E7422E"/>
<path d="M148.3 349.29L147.3 348.67L149.3 345.51L145.8 343.24L143.8 346.4L142.8 345.77L147.69 338.23L148.69 338.85L146.39 342.4L149.9 344.68L152.2 341.13L153.2 341.75L148.3 349.29Z" fill="black"/>
<path d="M145.25 338.57C144.39 339.74 142.95 339.57 140.48 338.15C139.98 338.85 139.72 339.68 140.6 340.32C141.194 340.711 141.889 340.919 142.6 340.92L142.5 341.8C141.563 341.781 140.653 341.489 139.88 340.96C138.57 339.96 138.65 338.72 139.63 337.38L142.05 334.09L142.8 334.64L142.4 335.34C143.221 335.237 144.052 335.425 144.75 335.87C144.974 336.002 145.167 336.181 145.316 336.394C145.466 336.607 145.567 336.85 145.615 337.106C145.662 337.362 145.654 337.625 145.591 337.878C145.528 338.13 145.412 338.366 145.25 338.57ZM142.01 336.07L140.92 337.56C142.92 338.66 143.81 338.67 144.31 337.98C144.41 337.865 144.482 337.728 144.521 337.58C144.56 337.433 144.565 337.278 144.535 337.129C144.505 336.979 144.441 336.839 144.348 336.717C144.256 336.596 144.137 336.498 144 336.43C143.404 336.057 142.688 335.928 142 336.07H142.01Z" fill="black"/>
<path d="M142.72 331.15L141.98 331.71C141.863 331.504 141.699 331.329 141.501 331.2C141.302 331.071 141.075 330.992 140.84 330.969C140.604 330.947 140.367 330.981 140.147 331.07C139.928 331.159 139.733 331.3 139.58 331.48L139.16 331.77L137 338.63L136.1 337.9L137.36 334.18C137.56 333.6 137.81 332.93 138.03 332.32C137.5 332.67 136.93 333.08 136.42 333.43L133.18 335.55L132.32 334.85L138.8 330.85C140 330.12 141.16 329.77 142.2 330.61C142.401 330.761 142.577 330.943 142.72 331.15Z" fill="black"/>
<path d="M131.69 330L129.74 330.89C128.57 331.42 128.02 331.27 127.48 330.79C127.377 330.702 127.295 330.593 127.24 330.47L128.09 329.82C128.125 329.885 128.173 329.943 128.23 329.99C128.49 330.22 128.78 330.32 129.56 329.99L131.1 329.27L131.69 330ZM131.19 333.87L130.35 333.12L132.17 331.12L130.77 329.87L131.49 325.26L132.42 326.09L131.81 329.56L132.81 330.43L134.81 328.19L135.65 328.94L131.19 333.87Z" fill="black"/>
<path d="M129.84 326C128.84 327 127.42 326.67 125.18 324.91C124.58 325.52 124.18 326.31 124.99 327.07C125.528 327.542 126.191 327.847 126.9 327.95L126.68 328.81C125.755 328.651 124.894 328.231 124.2 327.6C123.04 326.46 123.31 325.21 124.47 324.02L127.33 321.11L127.99 321.76L127.5 322.4C128.324 322.417 129.116 322.721 129.74 323.26C129.943 323.423 130.109 323.627 130.226 323.859C130.343 324.092 130.408 324.347 130.418 324.607C130.427 324.867 130.38 325.126 130.281 325.366C130.181 325.607 130.031 325.823 129.84 326ZM127 323.05L125.71 324.37C127.49 325.74 128.41 325.88 129.01 325.27C129.125 325.17 129.216 325.044 129.276 324.904C129.335 324.763 129.361 324.61 129.353 324.458C129.344 324.305 129.3 324.157 129.225 324.024C129.15 323.89 129.046 323.776 128.92 323.69C128.386 323.238 127.698 323.008 127 323.05Z" fill="black"/>
<path d="M110.28 216.87C111.994 193.032 121.099 170.321 136.328 151.901C151.557 133.482 172.152 120.27 195.243 114.106C218.335 107.942 242.774 109.133 265.157 117.513C287.54 125.893 306.752 141.044 320.118 160.857C333.484 180.67 340.338 204.159 339.726 228.051C339.114 251.943 331.067 275.05 316.704 294.153C302.341 313.256 282.378 327.404 259.596 334.627C236.813 341.85 212.345 341.788 189.6 334.45" stroke="#E8E8E8" stroke-width="2" stroke-linejoin="round"/>
<path d="M189.6 334.45C173.683 329.292 159.083 320.722 146.82 309.34" stroke="#E7422E" stroke-width="20" stroke-linejoin="round"/>
<path d="M134.81 302.6L137.36 305.52L136.09 306.63L132.09 302.09L133.02 301.28C136.16 301.2 137.57 300.34 140.22 298.28L141.54 299.8C139.659 301.437 137.297 302.419 134.81 302.6Z" fill="#E7422E"/>
<path d="M126.46 295.36L125.78 294.43L136 292.81L136.69 293.74L126.46 295.36ZM132.05 292.19C130.62 293.24 129.24 293.1 128.47 292.07C127.7 291.04 127.99 289.67 129.42 288.62C130.85 287.57 132.25 287.68 133.02 288.72C133.79 289.76 133.49 291.13 132.05 292.19ZM133.05 299.58C131.62 300.64 130.23 300.5 129.47 299.47C128.71 298.44 128.98 297.07 130.41 296.01C131.84 294.95 133.25 295.08 134.01 296.11C134.77 297.14 134.51 298.52 133.08 299.58H133.05ZM130.22 289.74C129.22 290.49 129.08 291.04 129.34 291.41C129.6 291.78 130.18 291.81 131.19 291.06C132.2 290.31 132.35 289.74 132.09 289.38C131.83 289.02 131.26 289 130.25 289.74H130.22ZM131.22 297.14C130.22 297.89 130.08 298.44 130.35 298.8C130.62 299.16 131.18 299.21 132.2 298.46C133.22 297.71 133.36 297.14 133.09 296.78C132.82 296.42 132.29 296.39 131.27 297.14H131.22Z" fill="#E7422E"/>
<path d="M121.64 286L123 288.3L122.17 288.79L118.87 283.13L119.7 282.65L121.06 284.98L127.95 280.98L128.53 281.98L121.64 286Z" fill="black"/>
<path d="M120.34 281L119.93 280.18L120.57 279.75C119.822 279.485 119.189 278.969 118.78 278.29C118.01 276.76 118.78 275.35 120.61 274.42C122.61 273.42 124.41 274.01 125.1 275.36C125.375 275.991 125.424 276.697 125.24 277.36L126.24 276.81L128.24 275.81L128.75 276.81L120.34 281ZM121.12 275.41C119.82 276.07 119.12 276.96 119.73 278.07C120.101 278.648 120.676 279.065 121.34 279.24L124.44 277.67C124.607 277.091 124.565 276.471 124.32 275.92C123.83 274.9 122.58 274.63 121.12 275.37V275.41Z" fill="black"/>
<path d="M121.62 272.53C120.3 273.1 119.14 272.24 117.74 269.77C116.96 270.11 116.32 270.7 116.74 271.69C117.064 272.327 117.564 272.858 118.18 273.22L117.65 273.93C116.854 273.438 116.218 272.726 115.82 271.88C115.18 270.4 115.9 269.34 117.41 268.69L121.14 267.08L121.51 267.93L120.82 268.33C121.575 268.65 122.191 269.228 122.56 269.96C122.687 270.187 122.764 270.438 122.786 270.697C122.807 270.957 122.771 271.217 122.682 271.462C122.593 271.706 122.451 271.928 122.268 272.112C122.085 272.297 121.864 272.439 121.62 272.53ZM120.1 268.75L118.41 269.48C119.54 271.41 120.34 271.88 121.11 271.55C121.254 271.501 121.385 271.42 121.493 271.313C121.602 271.206 121.684 271.076 121.734 270.932C121.784 270.788 121.801 270.635 121.783 270.484C121.765 270.333 121.712 270.188 121.63 270.06C121.301 269.448 120.755 268.981 120.1 268.75Z" fill="black"/>
<path d="M114.19 267.51L113.81 266.46L116.34 265.55L115.27 262.55L112.74 263.46L112.36 262.4L118.6 260.17L118.97 261.22L116.2 262.22L117.28 265.22L120.05 264.22L120.43 265.28L114.19 267.51Z" fill="black"/>
<path d="M114.93 259.55C114.516 259.707 114.074 259.778 113.632 259.756C113.19 259.735 112.757 259.623 112.36 259.427C111.963 259.231 111.61 258.955 111.325 258.617C111.039 258.278 110.827 257.884 110.7 257.46C110.492 256.767 110.563 256.02 110.9 255.38L111.78 255.72C111.528 256.152 111.456 256.666 111.58 257.15C111.91 258.3 113.15 258.86 114.58 258.43C116.01 258 116.78 256.93 116.44 255.76C116.254 255.211 115.878 254.746 115.38 254.45L115.96 253.77C116.64 254.185 117.143 254.837 117.37 255.6C117.89 257.29 117 258.94 114.93 259.55Z" fill="black"/>
<path d="M109.85 253.74L108.68 248.57L115.15 247.11L115.4 248.21L109.82 249.46L110.49 252.46L116.07 251.2L116.31 252.3L109.85 253.74Z" fill="black"/>
<path d="M111.57 246.08C110.977 246.09 110.394 245.929 109.89 245.617C109.386 245.305 108.983 244.854 108.728 244.319C108.473 243.784 108.377 243.186 108.453 242.598C108.528 242.01 108.771 241.456 109.152 241.002C109.533 240.549 110.037 240.214 110.604 240.039C111.17 239.863 111.775 239.855 112.346 240.013C112.917 240.172 113.431 240.492 113.825 240.935C114.219 241.378 114.478 241.924 114.57 242.51C114.626 242.945 114.591 243.386 114.467 243.806C114.344 244.227 114.135 244.617 113.853 244.953C113.571 245.288 113.223 245.561 112.83 245.756C112.437 245.95 112.008 246.06 111.57 246.08ZM110.8 241.16C109.3 241.39 108.4 242.32 108.57 243.44C108.74 244.56 109.89 245.17 111.39 244.94C112.89 244.71 113.78 243.78 113.6 242.65C113.42 241.52 112.3 240.92 110.8 241.16Z" fill="black"/>
<path d="M107.1 238.51L107.02 237.59L107.77 237.43C107.183 236.908 106.789 236.203 106.65 235.43C106.5 233.72 107.74 232.69 109.78 232.51C112.03 232.3 113.46 233.51 113.6 235.04C113.622 235.723 113.411 236.394 113 236.94L114.15 236.81L116.39 236.6L116.49 237.72L107.1 238.51ZM109.89 233.6C108.44 233.73 107.5 234.32 107.62 235.6C107.747 236.274 108.126 236.875 108.68 237.28L112.14 236.97C112.511 236.494 112.702 235.903 112.68 235.3C112.58 234.17 111.52 233.45 109.89 233.6Z" fill="black"/>
<path d="M107.37 229.45L107.44 231.67H106.53L106.35 226.12H107.26L107.33 228.34L113.04 228.15V229.27L107.37 229.45Z" fill="black"/>
<path d="M174.24 150.67C188.228 141.117 204.629 135.706 221.555 135.058C238.482 134.41 255.247 138.553 269.925 147.009C284.602 155.465 296.595 167.891 304.525 182.859C312.455 197.827 316 214.73 314.752 231.623C313.504 248.515 307.514 264.713 297.471 278.354C287.427 291.994 273.739 302.523 257.978 308.731C242.218 314.939 225.025 316.572 208.378 313.445C191.73 310.317 176.303 302.554 163.87 291.05" stroke="#E8E8E8" stroke-width="2" stroke-linejoin="round"/>
<path d="M163.87 291.05C155.042 282.859 147.946 272.981 143 262" stroke="#E7422E" stroke-width="20" stroke-linejoin="round"/>
<path d="M139.08 255.48C136.02 256.48 134.08 255.3 133.59 253.58C133.441 253.137 133.384 252.668 133.422 252.202C133.46 251.737 133.592 251.283 133.81 250.87L135.27 251.52C135.144 251.737 135.062 251.977 135.029 252.226C134.997 252.475 135.014 252.728 135.08 252.97C135.38 253.92 136.35 254.45 138.53 253.75C140.53 253.11 140.96 252.28 140.74 251.59C140.52 250.9 140.02 250.68 139.09 250.97C138.93 250.994 138.776 251.053 138.642 251.144C138.507 251.235 138.395 251.355 138.313 251.495C138.232 251.635 138.183 251.792 138.17 251.954C138.157 252.116 138.181 252.279 138.24 252.43C138.345 252.698 138.52 252.932 138.747 253.108C138.974 253.284 139.245 253.395 139.53 253.43L138.32 253.91C137.976 253.805 137.659 253.623 137.394 253.379C137.13 253.135 136.923 252.835 136.79 252.5C136.655 252.173 136.594 251.821 136.612 251.468C136.63 251.115 136.728 250.77 136.896 250.46C137.065 250.149 137.301 249.88 137.587 249.672C137.874 249.465 138.202 249.324 138.55 249.26C138.907 249.127 139.288 249.07 139.668 249.093C140.048 249.115 140.42 249.217 140.758 249.391C141.097 249.565 141.396 249.808 141.635 250.104C141.875 250.4 142.05 250.742 142.15 251.11C142.66 252.68 142 254.57 139.08 255.48Z" fill="#E7422E"/>
<path d="M130.6 242.56L130.37 241.43L140.29 244.26L140.52 245.39L130.6 242.56ZM134.79 249.12C133.06 249.47 131.87 248.77 131.62 247.52C131.37 246.27 132.18 245.16 133.91 244.8C135.64 244.44 136.85 245.15 137.11 246.4C137.37 247.65 136.52 248.76 134.79 249.12ZM134.19 246.12C132.96 246.37 132.62 246.82 132.71 247.26C132.8 247.7 133.29 247.97 134.51 247.72C135.73 247.47 136.11 247.02 136.02 246.58C135.93 246.14 135.41 245.91 134.19 246.16V246.12ZM137 242C135.27 242.36 134.08 241.65 133.82 240.4C133.56 239.15 134.38 238.04 136.11 237.69C137.84 237.34 139.11 238.03 139.31 239.28C139.51 240.53 138.69 241.68 137 242ZM136.39 239.05C135.16 239.3 134.82 239.74 134.91 240.18C135 240.62 135.49 240.89 136.72 240.64C137.95 240.39 138.31 239.94 138.22 239.5C138.13 239.06 137.58 238.82 136.35 239.08L136.39 239.05Z" fill="#E7422E"/>
<path d="M134 234C131.14 234.18 129.3 232.6 129.15 230.35C129.122 229.891 129.192 229.431 129.354 229C129.516 228.569 129.767 228.177 130.09 227.85L130.87 228.42C130.625 228.659 130.433 228.948 130.307 229.267C130.181 229.586 130.124 229.928 130.14 230.27C130.25 231.95 131.69 232.97 133.9 232.83C136.11 232.69 137.46 231.54 137.35 229.83C137.326 229.433 137.212 229.046 137.016 228.699C136.82 228.353 136.548 228.056 136.22 227.83L136.89 227.17C137.319 227.468 137.674 227.861 137.925 228.319C138.177 228.778 138.319 229.288 138.34 229.81C138.43 232.08 136.83 233.84 134 234Z" fill="black"/>
<path d="M132.32 224.62V226.83H131.41L131.5 221.31H132.4V223.51L138.07 223.6V224.71L132.32 224.62Z" fill="black"/>
<path d="M131.54 219.52L131.62 218.6H132.38C131.888 217.985 131.626 217.217 131.64 216.43C131.78 214.74 133.18 213.95 135.2 214.12C137.44 214.31 138.63 215.77 138.5 217.27C138.4 217.94 138.076 218.557 137.58 219.02L138.73 219.09L140.95 219.28L140.85 220.39L131.54 219.52ZM135.12 215.2C133.68 215.07 132.66 215.49 132.56 216.72C132.569 217.401 132.833 218.054 133.3 218.55L136.74 218.84C137.182 218.44 137.472 217.899 137.56 217.31C137.65 216.22 136.74 215.34 135.12 215.2Z" fill="black"/>
<path d="M135.5 212.72C134.933 212.552 134.426 212.223 134.042 211.773C133.657 211.323 133.41 210.772 133.332 210.185C133.253 209.599 133.346 209.002 133.599 208.467C133.851 207.932 134.253 207.481 134.756 207.169C135.259 206.857 135.841 206.697 136.433 206.708C137.025 206.719 137.6 206.901 138.091 207.232C138.582 207.563 138.966 208.029 139.198 208.573C139.431 209.117 139.501 209.717 139.4 210.3C139.316 210.722 139.146 211.123 138.901 211.477C138.656 211.831 138.341 212.13 137.975 212.357C137.61 212.584 137.201 212.734 136.775 212.796C136.35 212.858 135.915 212.833 135.5 212.72ZM136.33 207.85C134.84 207.59 133.7 208.18 133.51 209.29C133.32 210.4 134.2 211.29 135.69 211.59C137.18 211.89 138.3 211.26 138.49 210.14C138.68 209.02 137.81 208.1 136.33 207.85Z" fill="black"/>
<path d="M133.72 204.11L133.99 203.06L136.64 203.74C137.32 203.92 138.16 204.19 138.97 204.45C138.64 204.11 138.15 203.59 137.82 203.26L134.82 199.9L135.08 198.9L141.45 200.55L141.18 201.6L138.53 200.92C137.85 200.74 137.02 200.47 136.2 200.2L137.35 201.4L140.35 204.75L140.09 205.75L133.72 204.11Z" fill="black"/>
<path d="M137.18 195.33L136.46 197.42L135.6 197.12L137.4 191.9L138.26 192.2L137.54 194.28L142.9 196.13L142.54 197.18L137.18 195.33Z" fill="black"/>
<path d="M140.84 192.15C140.438 192.017 140.067 191.806 139.748 191.527C139.429 191.249 139.169 190.91 138.982 190.53C138.796 190.15 138.688 189.737 138.663 189.315C138.639 188.892 138.699 188.469 138.84 188.07C139.5 186.53 140.98 186.13 142.71 186.87C142.908 186.95 143.098 187.047 143.28 187.16L141.54 191.24C141.808 191.374 142.101 191.452 142.4 191.469C142.7 191.485 142.999 191.44 143.281 191.336C143.562 191.232 143.819 191.071 144.035 190.864C144.252 190.656 144.424 190.407 144.54 190.13C144.765 189.589 144.821 188.993 144.7 188.42L145.53 188.34C145.681 189.099 145.601 189.887 145.3 190.6C145.132 191.014 144.877 191.388 144.553 191.696C144.229 192.004 143.843 192.239 143.421 192.385C142.999 192.532 142.55 192.587 142.105 192.546C141.66 192.506 141.228 192.371 140.84 192.15ZM142.15 187.71C140.93 187.19 140.04 187.46 139.64 188.4C139.462 188.887 139.48 189.425 139.691 189.898C139.902 190.372 140.289 190.746 140.77 190.94L142.15 187.71Z" fill="black"/>
<path d="M146.27 187.89L145.46 187.24C145.533 187.166 145.593 187.082 145.64 186.99C145.86 186.59 145.64 186.12 144.82 185.57L141.27 183.15L143.13 179.57L148.96 182.57L148.45 183.57L143.45 180.95L142.51 182.76L145.51 184.83C146.72 185.67 147.1 186.53 146.65 187.39C146.56 187.582 146.431 187.752 146.27 187.89Z" fill="black"/>
<path d="M144.42 177.34L145.01 176.4L147.07 177.68L147.72 176.68C148.55 175.35 149.63 174.78 150.85 175.55C152.07 176.32 152.07 177.55 151.24 178.88L150 180.88L144.42 177.34ZM150.42 178.46C151.01 177.53 150.97 176.87 150.26 176.46C149.55 176.05 148.97 176.28 148.38 177.22L147.79 178.17L149.79 179.44L150.42 178.46Z" fill="black"/>
<path d="M150.56 173.84C150.183 173.613 149.858 173.309 149.604 172.949C149.351 172.589 149.175 172.181 149.087 171.749C149 171.318 149.003 170.873 149.096 170.443C149.19 170.013 149.372 169.606 149.63 169.25C150.051 168.666 150.682 168.268 151.39 168.14L151.65 169.04C151.407 169.07 151.172 169.149 150.959 169.271C150.746 169.392 150.56 169.555 150.41 169.75C149.7 170.75 150.02 172.03 151.24 172.91C152.46 173.79 153.76 173.73 154.47 172.75C154.789 172.27 154.924 171.692 154.85 171.12H155.74C155.829 171.903 155.622 172.692 155.16 173.33C154.13 174.8 152.32 175.13 150.56 173.84Z" fill="black"/>
<path d="M153.61 165.9L152.2 167.59L151.5 167.01L155.05 162.78L155.75 163.37L154.33 165.05L158.67 168.7L157.96 169.55L153.61 165.9Z" fill="black"/>
<path d="M156.25 161.47L158.01 159.66C159.01 158.66 160.01 158.25 160.9 159.08C161.14 159.301 161.295 159.599 161.339 159.922C161.383 160.245 161.312 160.573 161.14 160.85C161.44 160.611 161.818 160.49 162.201 160.511C162.584 160.531 162.947 160.691 163.22 160.96C164.16 161.87 163.82 163.05 162.76 164.14L161 166.06L156.25 161.47ZM159.86 161.72C160.62 160.93 160.65 160.36 160.21 159.94C159.77 159.52 159.21 159.57 158.5 160.3L157.58 161.24L158.99 162.61L159.86 161.72ZM162.15 163.72C162.91 162.94 162.98 162.27 162.45 161.72C161.92 161.17 161.28 161.38 160.5 162.18L159.56 163.18L161.16 164.73L162.15 163.72Z" fill="black"/>
<path d="M163.17 159.15C162.835 158.662 162.649 158.088 162.633 157.497C162.618 156.906 162.773 156.322 163.081 155.817C163.388 155.312 163.835 154.907 164.368 154.65C164.901 154.393 165.496 154.295 166.083 154.368C166.67 154.442 167.223 154.683 167.676 155.063C168.129 155.444 168.463 155.947 168.637 156.512C168.81 157.077 168.817 157.681 168.657 158.25C168.496 158.819 168.174 159.329 167.73 159.72C167.399 159.997 167.015 160.202 166.601 160.324C166.188 160.445 165.754 160.481 165.326 160.427C164.898 160.374 164.486 160.233 164.115 160.013C163.744 159.793 163.422 159.499 163.17 159.15ZM166.88 155.89C165.88 154.75 164.64 154.49 163.79 155.23C162.94 155.97 163.04 157.23 164.03 158.39C165.02 159.55 166.27 159.77 167.12 159.03C167.97 158.29 167.88 157 166.88 155.89Z" fill="black"/>
</svg>
