<svg width="450" height="450" viewBox="0 0 450 450" fill="none" xmlns="http://www.w3.org/2000/svg">
<g clip-path="url(#clip0)">
<path d="M225 10C343.74 10 440 106.26 440 225C440 343.74 343.74 440 225 440C106.26 440 10 343.74 10 225C9.99527 213.756 10.8679 202.528 12.61 191.42" stroke="#E8E8E8" stroke-width="2" stroke-linejoin="round"/>
<path d="M225 10C343.74 10 440 106.26 440 225C440.039 252.767 434.679 280.278 424.22 306" stroke="#E7422E" stroke-width="20" stroke-linejoin="round"/>
<path d="M342.52 75.69C365.129 93.4558 383.402 116.129 395.959 141.996C408.515 167.863 415.027 196.246 415 225C415 329.93 329.93 415 225 415C120.07 415 35 329.93 35 225C35 120.07 120.07 35 225 35" stroke="#E8E8E8" stroke-width="2" stroke-linejoin="round"/>
<path d="M11.5873 176.89C12.2073 177.02 12.6867 177.309 13.0256 177.758C13.3601 178.205 13.5298 178.772 13.5348 179.457L13.5884 179.468C13.8513 178.704 14.2203 178.167 14.6952 177.857C15.1656 177.546 15.7242 177.458 16.3709 177.594C17.3119 177.792 17.9691 178.277 18.3425 179.049C18.7114 179.82 18.767 180.819 18.5095 182.046C18.2819 183.129 17.9137 184.007 17.4049 184.678L16.0067 184.384C16.299 184.012 16.5496 183.606 16.7585 183.166C16.9674 182.725 17.1168 182.291 17.2067 181.863C17.3659 181.105 17.3444 180.509 17.1421 180.075C16.9398 179.641 16.5443 179.363 15.9556 179.239C15.4337 179.13 15.0066 179.256 14.6742 179.62C14.3418 179.983 14.0824 180.608 13.896 181.496L13.7176 182.345L12.4398 182.077L12.621 181.214C12.9489 179.653 12.5731 178.759 11.4938 178.533C11.0745 178.445 10.7226 178.513 10.438 178.737C10.1534 178.961 9.95542 179.339 9.84396 179.87C9.76622 180.24 9.74481 180.608 9.77973 180.974C9.81019 181.339 9.92789 181.787 10.1328 182.319L8.8741 182.858C8.40228 181.823 8.29094 180.712 8.54008 179.526C8.74707 178.54 9.12049 177.815 9.66033 177.351C10.2002 176.887 10.8425 176.733 11.5873 176.89Z" fill="#E7422E"/>
<path d="M20.5802 172.478L20.1916 174.037L13.9301 172.476C13.1828 172.289 12.5947 172.124 12.1658 171.979C12.2465 172.108 12.3323 172.263 12.423 172.445C12.5149 172.623 12.7982 173.22 13.273 174.235L12.0896 174.771L10.5588 171.36L10.8829 170.06L20.5802 172.478Z" fill="#E7422E"/>
<path d="M16.0223 162.658C16.6674 162.862 17.1677 162.951 17.5234 162.925C17.8791 162.899 18.1021 162.743 18.1923 162.458C18.3728 161.886 17.8244 161.399 16.5473 160.995C15.2701 160.592 14.5413 160.676 14.3608 161.248C14.2706 161.533 14.3636 161.789 14.64 162.014C14.9164 162.24 15.3772 162.454 16.0223 162.658ZM16.9321 159.731C17.9279 160.046 18.6201 160.462 19.0089 160.98C19.3947 161.492 19.4775 162.097 19.2574 162.794C19.0496 163.452 18.6306 163.882 18.0006 164.083C17.3676 164.278 16.5705 164.224 15.6094 163.92C13.6308 163.295 12.8596 162.292 13.2958 160.911C13.5104 160.232 13.9327 159.791 14.5628 159.59C15.1899 159.384 15.9797 159.431 16.9321 159.731ZM21.7672 157.673C22.4123 157.877 22.9148 157.967 23.2749 157.942C23.6362 157.913 23.8621 157.756 23.9523 157.471C24.1314 156.903 23.578 156.417 22.2922 156.011C21.0237 155.61 20.2999 155.693 20.1208 156.261C20.0305 156.546 20.1208 156.803 20.3915 157.032C20.6635 157.256 21.1221 157.469 21.7672 157.673ZM22.69 154.751C23.6858 155.065 24.3759 155.481 24.7603 155.997C25.1447 156.514 25.2282 157.116 25.0108 157.805C24.803 158.463 24.3863 158.893 23.7605 159.095C23.1305 159.296 22.3327 159.244 21.3673 158.94C19.3887 158.315 18.6182 157.31 19.0557 155.924C19.2663 155.257 19.6851 154.821 20.3122 154.614C20.9406 154.403 21.7332 154.449 22.69 154.751ZM15.4439 154.584L23.2752 162.849L22.8773 164.109L15.0461 155.844L15.4439 154.584Z" fill="#E7422E"/>
<path d="M26.0106 140.7C27.4962 141.294 28.514 142.136 29.0641 143.229C29.6158 144.318 29.6247 145.531 29.0908 146.869C28.5451 148.236 27.7067 149.126 26.5755 149.538C25.4418 149.944 24.1131 149.843 22.5894 149.235C21.0783 148.631 20.0567 147.792 19.5245 146.716C18.988 145.638 18.9935 144.413 19.5409 143.042C20.073 141.709 20.9119 140.837 22.0575 140.425C23.203 140.014 24.5207 140.106 26.0106 140.7ZM23.0582 148.097C24.3153 148.599 25.3762 148.713 26.2409 148.44C27.103 148.161 27.7377 147.511 28.1448 146.491C28.5554 145.463 28.5416 144.557 28.1035 143.773C27.6654 142.99 26.8157 142.347 25.5544 141.843C24.3058 141.345 23.2551 141.23 22.4022 141.498C21.5469 141.76 20.9147 142.403 20.5059 143.427C20.0953 144.456 20.1087 145.369 20.5459 146.167C20.9807 146.958 21.8181 147.602 23.0582 148.097Z" fill="black"/>
<path d="M27.1848 139.319C25.6901 138.643 24.6251 137.896 23.9897 137.078C23.3502 136.258 23.1427 135.324 23.3673 134.275C23.6514 132.973 23.9194 131.834 24.1713 130.857L25.1679 131.076C24.7567 132.625 24.4817 133.742 24.3429 134.424C24.2075 135.088 24.3265 135.687 24.7 136.221C25.0754 136.751 25.6966 137.23 26.5637 137.658L26.5975 137.583C26.3652 137.168 26.2415 136.711 26.2264 136.214C26.2112 135.717 26.3042 135.247 26.5052 134.802C26.8848 133.964 27.4527 133.433 28.2089 133.21C28.9652 132.987 29.8249 133.093 30.7881 133.529C31.8552 134.012 32.5666 134.662 32.9225 135.478C33.2742 136.293 33.2302 137.186 32.7905 138.157C32.3565 139.116 31.6489 139.701 30.6679 139.913C29.6869 140.124 28.5258 139.926 27.1848 139.319ZM31.9671 137.672C32.5402 136.406 32.0193 135.407 30.4042 134.676C28.8638 133.979 27.8334 134.205 27.3129 135.355C27.1701 135.671 27.0984 136.006 27.0979 136.361C27.0951 136.71 27.1462 137.056 27.2512 137.398C27.3581 137.737 27.4957 138.024 27.6639 138.261C28.7559 138.755 29.6663 138.959 30.3952 138.874C31.12 138.787 31.644 138.386 31.9671 137.672Z" fill="black"/>
<path d="M36.5521 130.328C36.3327 130.762 36.0526 131.119 35.7119 131.4C35.3692 131.675 34.9701 131.85 34.5144 131.925L34.4775 131.998C34.8915 132.147 35.2729 132.309 35.6217 132.485L38.3656 133.873L37.8549 134.883L28.1936 129.998L28.6089 129.176L29.5922 129.498L29.6168 129.449C29.383 129.005 29.2722 128.57 29.2842 128.143C29.2963 127.716 29.4152 127.279 29.6407 126.833C30.0878 125.949 30.7345 125.42 31.5808 125.247C32.4292 125.07 33.399 125.258 34.49 125.809C35.5851 126.363 36.3128 127.039 36.6731 127.837C37.0313 128.63 36.991 129.46 36.5521 130.328ZM30.4248 127.413C30.0802 128.094 30.0197 128.683 30.2431 129.178C30.4665 129.672 30.9878 130.132 31.8071 130.557L32.0322 130.67C32.9691 131.144 33.7193 131.327 34.2828 131.22C34.8423 131.111 35.2963 130.711 35.645 130.022C35.9362 129.446 35.9306 128.878 35.6282 128.318C35.3279 127.753 34.7681 127.264 33.9487 126.85C33.1173 126.429 32.3974 126.271 31.7892 126.376C31.179 126.475 30.7242 126.821 30.4248 127.413Z" fill="black"/>
<path d="M40.9161 121.781L39.873 121.465L39.8467 121.512C40.0779 122.066 40.1773 122.547 40.145 122.956C40.1108 123.359 39.9598 123.803 39.6919 124.291C39.3339 124.941 38.8851 125.36 38.3454 125.547C37.8079 125.73 37.2297 125.651 36.6107 125.311C35.285 124.582 35.1733 123.139 36.2756 120.984L36.8524 119.85L36.4451 119.626C35.9299 119.343 35.4891 119.246 35.1225 119.336C34.7541 119.419 34.436 119.704 34.1681 120.192C33.8672 120.739 33.6945 121.45 33.65 122.325L32.7213 122.212C32.7234 121.792 32.78 121.363 32.891 120.925C33.0042 120.482 33.1674 120.068 33.3804 119.68C33.8108 118.898 34.303 118.414 34.8568 118.23C35.4129 118.042 36.0743 118.158 36.841 118.58L41.3213 121.044L40.9161 121.781ZM38.98 123.642C39.3204 123.023 39.4175 122.444 39.2714 121.906C39.1274 121.364 38.7499 120.925 38.139 120.589L37.546 120.263L37.0411 121.28C36.6342 122.086 36.4439 122.725 36.4703 123.197C36.4948 123.663 36.7367 124.023 37.1959 124.275C37.5553 124.473 37.8882 124.516 38.1944 124.403C38.5029 124.287 38.7647 124.033 38.98 123.642Z" fill="black"/>
<path d="M38.375 117.146C36.9683 116.302 35.9965 115.437 35.4597 114.551C34.9189 113.663 34.8205 112.711 35.1645 111.695C35.5969 110.435 35.9944 109.334 36.3572 108.393L37.322 108.725C36.7349 110.217 36.333 111.294 36.1165 111.955C35.9054 112.599 35.9545 113.208 36.264 113.782C36.5758 114.352 37.1377 114.899 37.9497 115.424L37.9919 115.353C37.809 114.914 37.7387 114.447 37.781 113.951C37.8233 113.456 37.9698 112.999 38.2208 112.581C38.6945 111.791 39.3198 111.329 40.0967 111.195C40.8736 111.061 41.7153 111.266 42.6219 111.81C43.6261 112.412 44.2579 113.14 44.5173 113.992C44.7728 114.841 44.6262 115.723 44.0774 116.638C43.5357 117.54 42.7654 118.04 41.7665 118.137C40.7677 118.234 39.6372 117.903 38.375 117.146ZM43.3154 116.061C44.0307 114.869 43.6283 113.817 42.1083 112.905C40.6586 112.035 39.6089 112.141 38.9593 113.223C38.7811 113.52 38.6712 113.845 38.6298 114.197C38.5867 114.544 38.5976 114.893 38.6625 115.245C38.7296 115.594 38.8332 115.895 38.973 116.149C40.0007 116.766 40.8815 117.074 41.6154 117.073C42.3454 117.07 42.9121 116.733 43.3154 116.061Z" fill="black"/>
<path d="M49.2026 108.25L48.1862 107.856L48.1563 107.902C48.3453 108.471 48.4083 108.959 48.3453 109.364C48.281 109.763 48.097 110.195 47.7932 110.66C47.3873 111.283 46.9083 111.667 46.3561 111.812C45.8064 111.954 45.2357 111.832 44.6441 111.446C43.3769 110.62 43.3739 109.173 44.635 107.106L45.2954 106.019L44.9061 105.765C44.4137 105.444 43.9814 105.314 43.6091 105.376C43.2355 105.432 42.8968 105.692 42.5931 106.158C42.2519 106.681 42.0263 107.377 41.9161 108.246L40.9985 108.064C41.0322 107.645 41.1209 107.222 41.2646 106.793C41.4107 106.361 41.6045 105.959 41.846 105.589C42.3341 104.841 42.8612 104.396 43.4273 104.254C43.9959 104.108 44.6467 104.274 45.3795 104.752L49.662 107.546L49.2026 108.25ZM47.1321 109.96C47.518 109.368 47.6584 108.799 47.5531 108.251C47.4503 107.7 47.1069 107.234 46.5229 106.853L45.9561 106.483L45.3761 107.459C44.9098 108.233 44.672 108.856 44.6628 109.328C44.6523 109.795 44.8665 110.171 45.3055 110.458C45.649 110.682 45.9777 110.749 46.2915 110.66C46.6079 110.567 46.8881 110.334 47.1321 109.96Z" fill="black"/>
<path d="M48.4478 97.8439L47.0607 99.8394L52.4083 103.557L51.7615 104.487L46.4139 100.77L45.0423 102.743L44.2463 102.19L47.6519 97.2906L48.4478 97.8439Z" fill="black"/>
<path d="M51.7798 96.8782L53.0266 95.2431C53.6076 94.4811 54.1793 94.0262 54.7417 93.8785C55.3032 93.7243 55.8647 93.8613 56.4261 94.2894C57.0277 94.7481 57.3347 95.2906 57.3471 95.917C57.3587 96.537 57.0768 97.2243 56.5013 97.979L54.604 100.467L48.6103 95.8971L49.3025 94.9892L51.7798 96.8782ZM59.7122 93.7681L59.02 94.6759L53.0262 90.1056L53.7184 89.1978L59.7122 93.7681ZM52.5619 97.4745L54.5361 98.9799L55.7078 97.4431C56.4417 96.4806 56.4714 95.7422 55.797 95.2279C55.4615 94.9722 55.1325 94.8971 54.8098 95.0028C54.4871 95.1084 54.1214 95.4292 53.7128 95.9651L52.5619 97.4745Z" fill="black"/>
<path d="M60.6779 83.7925C61.0534 84.1045 61.249 84.451 61.2647 84.8319C61.2798 85.2064 61.1588 85.6161 60.9017 86.061L60.9491 86.1004C61.4241 85.6645 61.8654 85.4262 62.2732 85.3854C62.6838 85.341 63.0839 85.4807 63.4734 85.8045C64.0103 86.2507 64.2596 86.7932 64.2213 87.4318C64.1859 88.0669 63.8532 88.7634 63.2232 89.5214L61.11 92.0637L55.3411 87.2687L57.4454 84.7369C58.6354 83.3052 59.7129 82.9904 60.6779 83.7925ZM62.6893 86.6301C62.377 86.3705 62.0515 86.3017 61.7128 86.4237C61.3735 86.5392 60.9763 86.8707 60.5213 87.4181L59.2045 89.0025L61.1046 90.5818L62.439 88.9764C63.2761 87.9693 63.3595 87.1872 62.6893 86.6301ZM60.0534 84.7152C59.7727 84.4818 59.484 84.4258 59.1874 84.5471C58.8901 84.662 58.5592 84.9388 58.1946 85.3774L56.8253 87.025L58.4517 88.3768L59.6811 86.8977C60.1303 86.3573 60.3801 85.9212 60.4305 85.5893C60.4809 85.2574 60.3552 84.966 60.0534 84.7152Z" fill="black"/>
<path d="M69.2468 82.6453L68.3026 82.1006L68.2661 82.1412C68.3656 82.7329 68.3532 83.2241 68.229 83.6148C68.1043 83.9991 67.8563 84.398 67.4848 84.8116C66.9884 85.3643 66.4562 85.6704 65.8882 85.7299C65.3232 85.786 64.778 85.578 64.2524 85.106C63.1268 84.095 63.3454 82.6649 64.9082 80.8159L65.7273 79.8425L65.3815 79.5319C64.9441 79.1391 64.5368 78.9447 64.1594 78.9488C63.7817 78.9465 63.4071 79.1521 63.0356 79.5658C62.6184 80.0303 62.2887 80.6837 62.0467 81.526L61.1679 81.2053C61.2654 80.7967 61.4179 80.3915 61.6255 79.9899C61.8361 79.5849 62.0891 79.218 62.3845 78.8891C62.9814 78.2246 63.5704 77.8654 64.1517 77.8117C64.7359 77.7545 65.3536 78.0183 66.0045 78.603L69.8086 82.0198L69.2468 82.6453ZM66.9388 84.018C67.4108 83.4925 67.6367 82.9511 67.6165 82.3939C67.5993 81.8333 67.3314 81.3201 66.8126 80.8541L66.3092 80.4019L65.5865 81.2781C65.0072 81.9707 64.6769 82.55 64.5954 83.0158C64.5135 83.4752 64.6675 83.88 65.0574 84.2303C65.3626 84.5043 65.677 84.6214 66.0008 84.5814C66.3277 84.5381 66.6403 84.3503 66.9388 84.018Z" fill="black"/>
<path d="M75.3495 70.9204C76.2199 71.7786 76.692 72.6556 76.7658 73.5515C76.8428 74.4442 76.5241 75.2529 75.8095 75.9777C75.13 76.6669 74.3757 77.0016 73.5466 76.9818C72.7142 76.9588 71.8761 76.5759 71.0322 75.8333L69.6589 77.2262L72.0565 79.5901L71.2622 80.3958L65.9428 75.1512L66.7371 74.3456L68.9649 76.542L70.3478 75.1393C69.6738 74.3472 69.3356 73.548 69.3331 72.7415C69.3274 71.9319 69.6547 71.1921 70.315 70.5224C71.0168 69.8105 71.8194 69.4915 72.7228 69.5655C73.6262 69.633 74.5017 70.0846 75.3495 70.9204ZM71.5883 74.7353C72.2711 75.4084 72.9068 75.8023 73.4956 75.917C74.0812 76.0285 74.6308 75.8238 75.1444 75.3029C75.6484 74.7916 75.847 74.2472 75.7401 73.6696C75.6331 73.0856 75.2286 72.4475 74.5264 71.7552C73.8469 71.0853 73.216 70.6962 72.6337 70.5879C72.0514 70.4795 71.5034 70.6858 70.9898 71.2068C70.4762 71.7277 70.2777 72.2786 70.3942 72.8593C70.5108 73.44 70.9089 74.0654 71.5883 74.7353Z" fill="black"/>
<path d="M82.8084 67.8086L85.2668 65.5827L80.9112 60.7719L81.7509 60.0117L86.1066 64.8224L86.9008 64.1033L89.2824 66.7338L88.4326 67.5032L86.7059 65.5961L79.3304 72.2739L74.3198 66.7398L75.1596 65.9795L79.5152 70.7902L81.9686 68.5689L77.613 63.7582L78.4527 62.9979L82.8084 67.8086Z" fill="black"/>
<path d="M92.1239 61.0612L91.2677 60.3845L91.2256 60.4195C91.2383 61.0201 91.1547 61.5049 90.9749 61.8739C90.7956 62.2365 90.492 62.5957 90.0638 62.9515C89.4919 63.4269 88.9202 63.6529 88.3488 63.6294C87.781 63.6029 87.271 63.3178 86.819 62.7738C85.8506 61.6088 86.2748 60.2239 88.0915 58.619L89.0443 57.7736L88.7468 57.4157C88.3705 56.963 87.9952 56.7113 87.6208 56.6606C87.2469 56.6034 86.8459 56.7528 86.4178 57.1086C85.9371 57.5082 85.5157 58.1077 85.1536 58.907L84.3295 58.4617C84.4854 58.071 84.6954 57.6918 84.9593 57.3241C85.2268 56.9534 85.5307 56.6267 85.8711 56.3437C86.5589 55.7721 87.1946 55.5018 87.7782 55.5329C88.3653 55.5611 88.9389 55.9121 89.4989 56.5859L92.7714 60.5231L92.1239 61.0612ZM89.6382 62.086C90.1821 61.6339 90.4845 61.1304 90.5454 60.5755C90.6098 60.0176 90.4188 59.4702 89.9726 58.9333L89.5395 58.4122L88.6963 59.1753C88.0219 59.7774 87.6105 60.3033 87.4622 60.7529C87.3144 61.1962 87.4082 61.6196 87.7436 62.0231C88.0061 62.3389 88.3006 62.5006 88.6272 62.508C88.9573 62.5125 89.2943 62.3718 89.6382 62.086Z" fill="black"/>
<path d="M94.8114 58.9216L93.7594 59.7291L93.5404 55.9073C93.0035 56.1585 92.5012 56.2338 92.0334 56.1333C91.5664 56.0264 91.1637 55.7524 90.8251 55.3114C90.4089 54.7691 90.264 54.2024 90.3905 53.6112C90.517 53.0201 90.9074 52.4734 91.5617 51.9711L94.2079 49.9399L98.7699 55.883L97.8697 56.574L96.0466 54.1989L94.5446 55.3519L94.8114 58.9216ZM91.7119 54.6479C92.2391 55.3348 93.0016 55.2953 93.9994 54.5294L95.4472 53.418L93.9071 51.4117L92.2749 52.6646C91.4001 53.3361 91.2124 53.9972 91.7119 54.6479Z" fill="black"/>
<path d="M104.441 51.821L103.499 52.4564L99.3031 46.2379L104.523 42.716L108.719 48.9346L107.765 49.5777L104.121 44.1762L100.796 46.4195L104.441 51.821Z" fill="black"/>
<path d="M113.629 45.9306C113.214 46.189 112.787 46.3502 112.348 46.4141C111.911 46.4717 111.477 46.4142 111.046 46.2414L110.977 46.2849C111.255 46.6278 111.498 46.9658 111.706 47.299L113.34 49.9195L112.375 50.5209L106.622 41.2938L107.406 40.8047L108.083 41.5929L108.13 41.5639C108.16 41.0607 108.292 40.629 108.525 40.2687C108.757 39.9085 109.087 39.5955 109.513 39.3298C110.357 38.8033 111.188 38.6861 112.005 38.9783C112.826 39.268 113.561 39.9339 114.211 40.9759C114.863 42.0218 115.136 42.9814 115.03 43.8547C114.925 44.7218 114.458 45.4137 113.629 45.9306ZM109.884 40.2361C109.233 40.6418 108.875 41.1154 108.809 41.6568C108.743 42.1983 108.952 42.8646 109.434 43.6557L109.568 43.8707C110.126 44.7656 110.675 45.3137 111.215 45.515C111.752 45.7126 112.35 45.606 113.009 45.1954C113.559 44.8524 113.85 44.3616 113.882 43.7229C113.918 43.0818 113.692 42.3699 113.204 41.5875C112.709 40.7934 112.173 40.283 111.596 40.0564C111.02 39.8235 110.45 39.8834 109.884 40.2361Z" fill="black"/>
<path d="M121.517 36.72C122.127 37.7826 122.337 38.767 122.146 39.6733C121.952 40.5757 121.384 41.298 120.44 41.8403C119.857 42.1753 119.261 42.3359 118.652 42.3221C118.043 42.3083 117.468 42.1163 116.929 41.7461C116.389 41.3759 115.922 40.8478 115.528 40.1619C114.917 39.0993 114.708 38.12 114.899 37.2239C115.089 36.3238 115.655 35.6026 116.599 35.0603C117.511 34.5362 118.409 34.4237 119.293 34.7227C120.181 35.0194 120.922 35.6852 121.517 36.72ZM116.551 39.574C117.029 40.4066 117.56 40.9453 118.144 41.19C118.728 41.4348 119.343 41.3714 119.989 41C120.635 40.6286 121.001 40.1311 121.085 39.5075C121.172 38.8777 120.974 38.1445 120.494 37.3079C120.017 36.4792 119.488 35.9477 118.905 35.7131C118.323 35.4724 117.705 35.54 117.051 35.916C116.405 36.2874 116.039 36.7798 115.954 37.3931C115.869 38.0065 116.068 38.7335 116.551 39.574Z" fill="black"/>
<path d="M127.954 36.3641L127.851 35.7019L127.743 34.8502L127.284 29.5268L128.566 28.8662L131.992 35.5141L131.099 35.9744L128.265 30.4749L128.325 30.89L128.452 32.0014L128.905 37.1047L128.06 37.5399L124.161 34.1966C123.667 33.7644 123.301 33.4172 123.063 33.1551L125.897 38.6546L124.998 39.118L121.572 32.47L122.806 31.8344L126.726 35.1591C127.13 35.515 127.539 35.9167 127.954 36.3641Z" fill="black"/>
<path d="M133.244 30.0514L135.105 29.2061C135.973 28.8122 136.687 28.6828 137.249 28.8179C137.813 28.9471 138.24 29.3311 138.531 29.9701C138.842 30.6547 138.855 31.2742 138.572 31.8286C138.29 32.3769 137.72 32.8462 136.861 33.2363L134.029 34.5227L130.93 27.7013L131.964 27.232L133.244 30.0514ZM141.653 31.0594L140.62 31.5287L137.522 24.7073L138.555 24.238L141.653 31.0594ZM133.649 30.9414L134.669 33.1883L136.418 32.3938C137.514 31.8962 137.887 31.2636 137.538 30.496C137.365 30.1143 137.112 29.8938 136.78 29.8345C136.448 29.7752 135.976 29.8841 135.366 30.1611L133.649 30.9414Z" fill="black"/>
<path d="M148.522 27.234L151.617 26.0267L149.25 19.9575L150.319 19.5401L153.042 26.52L143.674 30.1744L140.951 23.1945L142.009 22.7821L144.376 28.8513L147.465 27.6464L145.097 21.5772L146.154 21.1648L148.522 27.234Z" fill="black"/>
<path d="M160.489 24.0178L159.398 24.3853L157.311 18.1898L155.174 18.9095C155.577 20.4902 155.826 21.7679 155.923 22.7428C156.02 23.7176 155.973 24.4712 155.781 25.0034C155.593 25.5342 155.244 25.8857 154.733 26.0577C154.499 26.1365 154.305 26.1732 154.149 26.1679L153.879 25.3692C153.983 25.363 154.096 25.3396 154.217 25.2987C154.715 25.131 154.934 24.4716 154.874 23.3204C154.814 22.1691 154.499 20.4965 153.929 18.3024L158.091 16.9002L160.489 24.0178Z" fill="black"/>
<path d="M165.711 22.5854C164.649 22.8984 163.715 22.8223 162.908 22.3569C162.105 21.8903 161.534 21.0822 161.195 19.9325C160.854 18.7741 160.867 17.7701 161.234 16.9207C161.606 16.07 162.273 15.503 163.234 15.2196C164.135 14.9542 164.935 15.0415 165.635 15.4814C166.333 15.9169 166.826 16.6199 167.111 17.5904L167.314 18.2789L162.364 19.7378C162.634 20.5751 163.035 21.153 163.566 21.4716C164.101 21.789 164.736 21.8394 165.471 21.623C166.244 21.395 166.962 21.0078 167.623 20.4614L167.909 21.4319C167.573 21.7114 167.243 21.937 166.918 22.1087C166.599 22.2835 166.197 22.4424 165.711 22.5854ZM163.49 16.1349C162.913 16.3049 162.507 16.6288 162.272 17.1065C162.042 17.5829 161.995 18.1624 162.129 18.8449L165.886 17.7376C165.684 17.0513 165.377 16.5718 164.964 16.2992C164.549 16.0222 164.058 15.9674 163.49 16.1349Z" fill="black"/>
<path d="M169.327 13.6529L170.095 16.6951L174.165 15.6676L173.397 12.6254L174.497 12.3476L176.331 19.6118L175.231 19.8896L174.404 16.6154L170.335 17.6429L171.161 20.9171L170.061 21.1949L168.227 13.9307L169.327 13.6529Z" fill="black"/>
<path d="M178.123 11.5374L178.764 14.609L182.873 13.7522L182.232 10.6805L183.343 10.4489L184.872 17.7833L183.762 18.0149L183.072 14.7091L178.963 15.566L179.653 18.8718L178.542 19.1035L177.012 11.7691L178.123 11.5374Z" fill="black"/>
<path d="M192.864 12.6052C193.064 13.8099 192.917 14.8022 192.424 15.5821C191.929 16.3574 191.147 16.8341 190.077 17.0122C189.416 17.1222 188.803 17.0647 188.239 16.8398C187.675 16.615 187.206 16.2358 186.83 15.7022C186.455 15.1687 186.203 14.5131 186.073 13.7354C185.873 12.5306 186.018 11.5432 186.509 10.7731C186.999 9.99851 187.779 9.52217 188.849 9.34409C189.883 9.17199 190.761 9.37934 191.482 9.96613C192.208 10.5522 192.668 11.4318 192.864 12.6052ZM187.233 13.5423C187.39 14.4864 187.699 15.1742 188.159 15.6059C188.619 16.0375 189.215 16.1924 189.948 16.0704C190.68 15.9484 191.195 15.611 191.491 15.0582C191.791 14.5001 191.862 13.7467 191.704 12.7982C191.547 11.8587 191.238 11.1779 190.775 10.756C190.316 10.3289 189.715 10.177 188.973 10.3005C188.241 10.4225 187.728 10.755 187.435 11.2981C187.142 11.8412 187.074 12.5893 187.233 13.5423Z" fill="black"/>
<path d="M198.319 15.8043C197.244 15.9445 196.367 15.7234 195.689 15.1408C195.015 14.5531 194.599 13.6537 194.441 12.4426C194.279 11.1999 194.452 10.2007 194.96 9.44504C195.472 8.68881 196.282 8.2385 197.389 8.09411C197.746 8.04756 198.109 8.03941 198.476 8.06968C198.843 8.09994 199.135 8.15379 199.351 8.23121L199.13 9.23206C198.869 9.16506 198.587 9.11907 198.285 9.09411C197.983 9.06463 197.718 9.06463 197.492 9.09409C195.983 9.29093 195.354 10.3519 195.605 12.277C195.724 13.1898 195.998 13.8664 196.428 14.3067C196.862 14.7465 197.441 14.9192 198.164 14.8249C198.783 14.7442 199.4 14.5281 200.016 14.1766L200.146 15.173C199.683 15.4954 199.074 15.7058 198.319 15.8043Z" fill="black"/>
<path d="M206.253 8.22314L203.819 8.4665L204.471 14.988L203.336 15.1015L202.684 8.57998L200.278 8.82061L200.181 7.8499L206.156 7.25244L206.253 8.22314Z" fill="black"/>
<path d="M209.073 10.1805L211.379 10.031C213.289 9.90714 214.29 10.5478 214.381 11.9531C214.429 12.6898 214.215 13.27 213.74 13.6935C213.27 14.1168 212.555 14.3595 211.595 14.4217L208.225 14.6402L207.741 7.16374L208.873 7.09031L209.073 10.1805ZM209.137 11.156L209.296 13.6186L211.479 13.4771C212.08 13.4381 212.532 13.3037 212.837 13.0739C213.142 12.8441 213.28 12.5177 213.253 12.0947C213.226 11.6809 213.059 11.3881 212.751 11.2162C212.447 11.0395 211.958 10.973 211.285 11.0167L209.137 11.156Z" fill="black"/>
<path d="M242.674 32.0748C242.626 32.7065 242.403 33.2199 242.003 33.615C241.604 34.0056 241.065 34.2486 240.386 34.344L240.382 34.3985C241.174 34.5584 241.755 34.8532 242.125 35.2831C242.495 35.7084 242.656 36.2505 242.607 36.9095C242.535 37.8684 242.141 38.5838 241.425 39.0558C240.709 39.5232 239.726 39.7101 238.476 39.6166C237.372 39.5339 236.454 39.2847 235.722 38.8689L235.828 37.4442C236.235 37.6848 236.671 37.8797 237.135 38.0287C237.599 38.1777 238.049 38.2685 238.485 38.3011C239.258 38.3589 239.846 38.259 240.249 38.0012C240.652 37.7435 240.876 37.3147 240.921 36.7148C240.961 36.1831 240.779 35.7764 240.375 35.4949C239.971 35.2133 239.317 35.0386 238.412 34.971L237.547 34.9062L237.644 33.6041L238.524 33.67C240.114 33.789 240.951 33.2986 241.033 32.1988C241.065 31.7716 240.951 31.4318 240.691 31.1793C240.431 30.9267 240.031 30.7802 239.49 30.7398C239.113 30.7115 238.745 30.7389 238.387 30.8218C238.029 30.9001 237.6 31.0759 237.1 31.3492L236.4 30.1726C237.364 29.5684 238.45 29.3115 239.659 29.402C240.663 29.4771 241.431 29.7517 241.962 30.2256C242.493 30.6995 242.731 31.3159 242.674 32.0748Z" fill="#E7422E"/>
<path d="M250.273 40.6743L243.545 39.8851L243.686 38.6766L246.548 36.4036C247.395 35.7183 247.959 35.2293 248.241 34.9366C248.528 34.6399 248.745 34.3556 248.892 34.0837C249.038 33.8118 249.131 33.5129 249.169 33.1871C249.222 32.739 249.127 32.37 248.886 32.0801C248.649 31.7908 248.293 31.6183 247.818 31.5625C247.438 31.5179 247.06 31.5448 246.686 31.6432C246.317 31.7421 245.878 31.9475 245.368 32.2595L244.63 31.106C245.236 30.7045 245.812 30.437 246.355 30.3035C246.898 30.1699 247.464 30.1376 248.053 30.2066C248.976 30.3149 249.688 30.6439 250.187 31.1935C250.688 31.7386 250.89 32.4185 250.795 33.2332C250.742 33.6813 250.611 34.0972 250.401 34.481C250.195 34.8652 249.899 35.2527 249.514 35.6434C249.134 36.0301 248.514 36.5424 247.654 37.1804L245.734 38.6483L245.726 38.7162L250.438 39.2689L250.273 40.6743Z" fill="#E7422E"/>
<path d="M257.421 34.6651C257.293 35.332 257.263 35.8413 257.33 36.1929C257.398 36.5445 257.579 36.7485 257.875 36.805C258.465 36.9181 258.887 36.3144 259.14 34.9939C259.392 33.6735 259.223 32.9567 258.632 32.8437C258.337 32.7872 258.093 32.9099 257.901 33.2118C257.708 33.5137 257.548 33.9981 257.421 34.6651ZM260.445 35.2297C260.248 36.2592 259.914 36.998 259.443 37.4462C258.978 37.8907 258.385 38.044 257.664 37.9062C256.984 37.776 256.506 37.4086 256.232 36.8041C255.963 36.1958 255.924 35.3949 256.114 34.4012C256.506 32.3556 257.415 31.4694 258.843 31.7426C259.546 31.877 260.034 32.2465 260.308 32.8511C260.588 33.4521 260.633 34.2449 260.445 35.2297ZM263.063 39.809C262.935 40.4759 262.904 40.9874 262.971 41.3435C263.042 41.7004 263.225 41.9071 263.52 41.9636C264.107 42.0758 264.527 41.4672 264.781 40.1378C265.032 38.8263 264.865 38.1144 264.278 38.0023C263.983 37.9457 263.737 38.0658 263.541 38.3624C263.35 38.6598 263.19 39.142 263.063 39.809ZM266.084 40.387C265.887 41.4165 265.554 42.1531 265.084 42.5967C264.614 43.0404 264.023 43.1942 263.311 43.058C262.631 42.9279 262.153 42.5628 261.878 41.9626C261.604 41.3581 261.562 40.5567 261.753 39.5585C262.145 37.5129 263.057 36.6271 264.489 36.9011C265.178 37.033 265.663 37.3994 265.942 38.0004C266.226 38.6022 266.273 39.3977 266.084 40.387ZM265.403 33.1436L258.08 41.918L256.777 41.6689L264.1 32.8944L265.403 33.1436Z" fill="#E7422E"/>
<path d="M280.374 42.0772C279.948 43.6192 279.222 44.7237 278.197 45.3909C277.175 46.0593 275.971 46.2019 274.582 45.8188C273.164 45.4271 272.187 44.6919 271.653 43.613C271.124 42.531 271.078 41.1993 271.514 39.6178C271.947 38.0495 272.669 36.9415 273.68 36.2939C274.692 35.6419 275.91 35.5123 277.333 35.9051C278.717 36.2871 279.676 37.0246 280.211 38.1179C280.746 39.2111 280.8 40.5309 280.374 42.0772ZM272.697 39.9583C272.337 41.2631 272.34 42.3301 272.707 43.1594C273.079 43.9855 273.795 44.5447 274.853 44.8369C275.921 45.1315 276.82 45.018 277.55 44.4962C278.28 43.9744 278.826 43.059 279.187 41.7498C279.545 40.4539 279.544 39.3969 279.183 38.5788C278.829 37.7575 278.12 37.2002 277.056 36.9067C275.989 36.6121 275.083 36.726 274.338 37.2486C273.599 37.7679 273.052 38.6712 272.697 39.9583Z" fill="black"/>
<path d="M283.646 48.5749C282.615 48.2377 281.919 47.6601 281.559 46.8422C281.204 46.0213 281.216 45.0304 281.596 43.8695C281.986 42.6784 282.572 41.8514 283.357 41.3887C284.145 40.9274 285.07 40.8702 286.131 41.2173C286.474 41.3292 286.804 41.4779 287.122 41.6635C287.44 41.849 287.68 42.0235 287.842 42.1869L287.212 42.9946C287.004 42.8214 286.77 42.6584 286.508 42.5057C286.248 42.3487 286.01 42.2347 285.793 42.1639C284.346 41.6908 283.321 42.3768 282.718 44.222C282.432 45.097 282.387 45.8258 282.585 46.4083C282.787 46.9923 283.235 47.3976 283.928 47.6242C284.522 47.8183 285.172 47.8896 285.879 47.838L285.567 48.7931C285.01 48.8842 284.369 48.8114 283.646 48.5749Z" fill="black"/>
<path d="M294.017 45.1765L291.729 44.3491L289.512 50.4793L288.445 50.0935L290.663 43.9633L288.401 43.1452L288.731 42.2327L294.347 44.2641L294.017 45.1765Z" fill="black"/>
<path d="M297.334 53.5779L297.529 52.5004L297.478 52.4797C296.952 52.7742 296.484 52.9289 296.072 52.9437C295.666 52.956 295.205 52.8565 294.688 52.6452C293.997 52.363 293.527 51.9633 293.279 51.4462C293.034 50.9309 293.046 50.3447 293.315 49.6878C293.89 48.2807 295.316 48.003 297.594 48.8548L298.792 49.2998L298.969 48.8675C299.192 48.3208 299.238 47.8696 299.107 47.5141C298.981 47.1561 298.659 46.8714 298.142 46.6602C297.562 46.4229 296.832 46.3325 295.953 46.3889L295.959 45.449C296.379 45.4028 296.813 45.4099 297.264 45.4702C297.718 45.5322 298.151 45.6472 298.562 45.8152C299.393 46.1546 299.932 46.5901 300.179 47.1216C300.431 47.6548 300.391 48.3283 300.059 49.1421L298.116 53.8974L297.334 53.5779ZM295.254 51.86C295.911 52.1284 296.499 52.1587 297.019 51.9508C297.544 51.7447 297.938 51.3174 298.203 50.669L298.46 50.0396L297.387 49.6529C296.536 49.3396 295.876 49.2234 295.408 49.3041C294.945 49.3823 294.615 49.6651 294.416 50.1525C294.26 50.534 294.256 50.871 294.403 51.1638C294.555 51.4582 294.838 51.6903 295.254 51.86Z" fill="black"/>
<path d="M305.179 57.095L304.136 56.6151L306.861 50.6903L304.818 49.7505C304.028 51.173 303.335 52.2713 302.738 53.0452C302.141 53.8191 301.591 54.3336 301.088 54.5885C300.588 54.8454 300.094 54.8615 299.606 54.6368C299.382 54.534 299.216 54.4272 299.106 54.3166L299.457 53.5527C299.537 53.6195 299.635 53.6795 299.751 53.7328C300.227 53.9518 300.837 53.623 301.581 52.7464C302.326 51.8698 303.242 50.4401 304.329 48.4573L308.31 50.2883L305.179 57.095Z" fill="black"/>
<path d="M310.243 54.7034L312.299 55.7662C314.003 56.6467 314.53 57.7136 313.883 58.9669C313.543 59.6239 313.06 60.0116 312.434 60.1298C311.811 60.2501 311.072 60.0891 310.216 59.6468L307.211 58.0934L310.657 51.4253L311.667 51.9473L310.243 54.7034ZM309.793 55.5734L308.658 57.7697L310.605 58.7759C311.14 59.0527 311.598 59.1711 311.978 59.1313C312.359 59.0914 312.646 58.8829 312.841 58.5057C313.032 58.1366 313.04 57.7988 312.864 57.4922C312.695 57.1836 312.31 56.8742 311.709 56.5639L309.793 55.5734Z" fill="black"/>
<path d="M319.17 55.9009L317.601 58.6307L321.253 60.7294L322.822 57.9996L323.809 58.567L320.063 65.0852L319.076 64.5178L320.764 61.5798L317.113 59.4812L315.424 62.4191L314.437 61.8518L318.183 55.3336L319.17 55.9009Z" fill="black"/>
<path d="M329.409 66.5493C328.75 67.5752 327.976 68.2111 327.087 68.4569C326.202 68.6989 325.303 68.527 324.392 67.9413C323.829 67.5796 323.415 67.1263 323.148 66.5817C322.881 66.037 322.788 65.4414 322.868 64.795C322.948 64.1486 323.201 63.4943 323.627 62.832C324.287 61.8061 325.056 61.1728 325.936 60.9322C326.818 60.6877 327.714 60.8583 328.626 61.444C329.506 62.0101 330.016 62.752 330.157 63.67C330.301 64.5904 330.052 65.5501 329.409 66.5493ZM324.615 63.4669C324.098 64.2708 323.865 64.9867 323.916 65.6145C323.967 66.2423 324.304 66.7568 324.928 67.1579C325.552 67.5591 326.159 67.6544 326.749 67.4438C327.345 67.2319 327.902 66.7221 328.422 65.9143C328.936 65.1143 329.163 64.4029 329.104 63.7803C329.05 63.1563 328.708 62.6413 328.076 62.2352C327.452 61.8341 326.85 61.7362 326.269 61.9416C325.688 62.1469 325.136 62.6554 324.615 63.4669Z" fill="black"/>
<path d="M331.474 72.6222C330.566 71.9909 330.041 71.2157 329.898 70.2963C329.759 69.3796 330.032 68.4298 330.715 67.447C331.403 66.4567 332.193 65.8389 333.084 65.5936C333.979 65.3509 334.837 65.5153 335.659 66.0868C336.429 66.6219 336.862 67.2995 336.957 68.1194C337.055 68.9356 336.815 69.7585 336.238 70.5881L335.829 71.1767L331.597 68.2349C331.115 68.9691 330.915 69.6426 330.999 70.2552C331.087 70.8705 331.445 71.3964 332.073 71.8328C332.734 72.2925 333.484 72.6089 334.323 72.7817L333.746 73.6113C333.319 73.5247 332.936 73.4087 332.6 73.2633C332.264 73.1242 331.889 72.9105 331.474 72.6222ZM335.107 66.8582C334.613 66.5153 334.107 66.4019 333.589 66.5181C333.074 66.6369 332.593 66.9621 332.146 67.4937L335.358 69.7264C335.765 69.1397 335.946 68.6003 335.9 68.1083C335.857 67.6126 335.592 67.1959 335.107 66.8582Z" fill="black"/>
<path d="M391.39 224.9C391.227 257.439 381.447 289.204 363.279 316.199C345.111 343.194 319.367 364.215 289.284 376.618C259.201 389.021 226.122 392.252 194.208 385.905C162.294 379.558 132.968 363.916 109.92 340.947C86.8716 317.977 71.1293 288.706 64.6728 256.813C58.2164 224.921 61.3339 191.831 73.6335 161.706C85.933 131.581 106.865 105.765 133.798 87.5042C160.731 69.2439 192.462 59.3546 225 59.0801" stroke="#E8E8E8" stroke-width="2" stroke-linejoin="round"/>
<path d="M53.0001 305.73C41.1254 280.475 34.9788 252.908 35.0001 225C35.0001 120.07 120.07 35 225 35" stroke="#E7422E" stroke-width="20" stroke-linejoin="round"/>
<path d="M225 59.0798C250.497 58.8997 275.69 64.6159 298.612 75.7822C321.534 86.9484 341.565 103.262 357.14 123.45" stroke="#E7422E" stroke-width="20" stroke-linejoin="round"/>
<path d="M360.496 135.085L359.596 133.752L364.952 130.138C365.592 129.707 366.109 129.38 366.504 129.158C366.354 129.132 366.181 129.092 365.985 129.037C365.791 128.986 365.157 128.798 364.083 128.471L364.477 127.231L368.041 128.377L368.791 129.489L360.496 135.085Z" fill="#E7422E"/>
<path d="M362.826 138.645L372.197 137.566L369.495 133.128L370.704 132.393L374.297 138.296L373.34 138.879L363.728 140.128L362.826 138.645Z" fill="#E7422E"/>
<path d="M374.88 145.433C374.272 145.737 373.849 146.022 373.611 146.289C373.372 146.556 373.32 146.824 373.455 147.093C373.724 147.631 374.46 147.599 375.662 146.998C376.865 146.397 377.331 145.828 377.062 145.289C376.928 145.02 376.682 144.901 376.326 144.932C375.969 144.962 375.487 145.129 374.88 145.433ZM376.267 148.178C375.33 148.647 374.54 148.83 373.898 148.728C373.262 148.629 372.78 148.25 372.452 147.594C372.142 146.974 372.144 146.372 372.458 145.787C372.778 145.204 373.391 144.687 374.296 144.234C376.159 143.303 377.415 143.488 378.065 144.788C378.385 145.428 378.388 146.041 378.074 146.625C377.766 147.212 377.164 147.73 376.267 148.178ZM374.219 153.039C373.611 153.343 373.186 153.629 372.944 153.898C372.703 154.171 372.65 154.442 372.785 154.711C373.052 155.245 373.79 155.21 375.001 154.604C376.196 154.007 376.659 153.442 376.392 152.908C376.258 152.639 376.013 152.516 375.659 152.541C375.306 152.569 374.826 152.735 374.219 153.039ZM375.594 155.791C374.657 156.259 373.869 156.442 373.231 156.338C372.593 156.234 372.112 155.857 371.788 155.209C371.478 154.59 371.478 153.989 371.788 153.406C372.102 152.821 372.714 152.301 373.623 151.847C375.486 150.915 376.743 151.102 377.395 152.406C377.709 153.034 377.712 153.642 377.404 154.228C377.098 154.82 376.495 155.34 375.594 155.791ZM380.935 150.851L369.517 150.361L368.924 149.174L380.342 149.664L380.935 150.851Z" fill="#E7422E"/>
<path d="M376.105 164.893L375.673 163.814L383.994 160.485L382.818 157.546L383.776 157.163L386.56 164.118L385.601 164.502L384.425 161.563L376.105 164.893Z" fill="black"/>
<path d="M383.325 173.829C382.17 174.226 381.167 174.246 380.317 173.887C379.47 173.528 378.871 172.835 378.518 171.809C378.301 171.175 378.256 170.562 378.385 169.968C378.513 169.375 378.81 168.849 379.274 168.391C379.738 167.932 380.343 167.575 381.089 167.319C382.244 166.922 383.242 166.902 384.082 167.259C384.927 167.615 385.526 168.305 385.878 169.331C386.219 170.322 386.159 171.222 385.7 172.031C385.242 172.843 384.45 173.443 383.325 173.829ZM381.471 168.431C380.566 168.742 379.938 169.16 379.589 169.685C379.239 170.21 379.185 170.824 379.426 171.526C379.667 172.229 380.085 172.68 380.679 172.881C381.279 173.084 382.034 173.03 382.943 172.717C383.844 172.408 384.464 171.99 384.804 171.464C385.149 170.94 385.2 170.323 384.956 169.612C384.714 168.909 384.302 168.459 383.717 168.259C383.133 168.06 382.385 168.117 381.471 168.431Z" fill="black"/>
<path d="M381.162 180.15C381.025 179.682 380.985 179.229 381.042 178.789C381.105 178.353 381.278 177.952 381.56 177.585L381.537 177.506C381.132 177.681 380.742 177.823 380.365 177.933L377.406 178.796L377.088 177.707L387.509 174.667L387.768 175.553L386.827 175.991L386.843 176.044C387.318 176.209 387.697 176.452 387.981 176.773C388.264 177.094 388.476 177.495 388.617 177.976C388.895 178.93 388.783 179.76 388.282 180.466C387.782 181.177 386.944 181.704 385.767 182.047C384.585 182.392 383.589 182.395 382.779 182.057C381.974 181.722 381.435 181.087 381.162 180.15ZM387.645 178.088C387.431 177.353 387.073 176.881 386.57 176.672C386.067 176.462 385.371 176.483 384.48 176.733L384.237 176.804C383.227 177.098 382.552 177.478 382.213 177.943C381.878 178.406 381.819 179.009 382.036 179.753C382.217 180.374 382.61 180.787 383.215 180.99C383.822 181.197 384.567 181.172 385.451 180.915C386.347 180.653 386.983 180.275 387.356 179.782C387.735 179.292 387.832 178.727 387.645 178.088Z" fill="black"/>
<path d="M389.91 187.753L389.133 184.478L382.808 185.978L382.547 184.877L389.814 183.154L390.852 187.53L389.91 187.753Z" fill="black"/>
<path d="M388.795 196.203C387.598 196.435 386.604 196.315 385.813 195.843C385.026 195.37 384.529 194.602 384.323 193.539C384.196 192.883 384.237 192.27 384.447 191.701C384.656 191.132 385.022 190.653 385.544 190.265C386.067 189.876 386.714 189.607 387.487 189.457C388.684 189.225 389.673 189.344 390.455 189.813C391.241 190.282 391.737 191.048 391.943 192.111C392.142 193.138 391.958 194.019 391.392 194.754C390.826 195.494 389.961 195.977 388.795 196.203ZM387.71 190.609C386.773 190.791 386.094 191.117 385.676 191.588C385.257 192.058 385.119 192.657 385.26 193.385C385.401 194.113 385.751 194.618 386.311 194.898C386.876 195.183 387.629 195.234 388.572 195.051C389.505 194.87 390.176 194.543 390.585 194.07C390.999 193.6 391.135 192.997 390.992 192.26C390.851 191.532 390.505 191.029 389.955 190.751C389.406 190.473 388.657 190.426 387.71 190.609Z" fill="black"/>
<path d="M391.803 203.975C391.32 204.043 390.933 203.955 390.64 203.711C390.353 203.471 390.132 203.106 389.975 202.617L389.914 202.626C389.918 203.27 389.798 203.756 389.554 204.085C389.311 204.419 388.939 204.62 388.438 204.691C387.748 204.788 387.179 204.608 386.733 204.151C386.287 203.699 385.996 202.985 385.858 202.01L385.398 198.741L392.816 197.695L393.275 200.951C393.535 202.792 393.044 203.801 391.803 203.975ZM388.354 203.557C388.756 203.5 389.025 203.306 389.163 202.974C389.305 202.645 389.327 202.129 389.228 201.425L388.94 199.387L386.497 199.732L386.788 201.796C386.97 203.091 387.492 203.678 388.354 203.557ZM391.54 202.894C391.901 202.843 392.136 202.667 392.246 202.367C392.36 202.07 392.378 201.639 392.299 201.075L392 198.956L389.908 199.251L390.176 201.153C390.274 201.848 390.429 202.326 390.641 202.586C390.852 202.846 391.152 202.949 391.54 202.894Z" fill="black"/>
<path d="M386.921 212.048L386.818 210.9L393.339 210.313L393.137 208.064C391.503 208.087 390.2 208.032 389.228 207.899C388.256 207.766 387.533 207.544 387.06 207.233C386.586 206.926 386.326 206.504 386.277 205.966C386.255 205.72 386.265 205.522 386.306 205.371L387.147 205.295C387.129 205.398 387.125 205.513 387.137 205.641C387.184 206.165 387.775 206.532 388.911 206.742C390.046 206.952 391.749 207.036 394.019 206.992L394.413 211.374L386.921 212.048Z" fill="black"/>
<path d="M387.1 214.631L387.042 213.307L390.298 215.319C390.401 214.735 390.627 214.281 390.978 213.955C391.333 213.634 391.788 213.461 392.344 213.437C393.027 213.407 393.574 213.613 393.986 214.056C394.398 214.499 394.621 215.132 394.658 215.956L394.804 219.289L387.319 219.617L387.269 218.483L390.26 218.352L390.177 216.46L387.1 214.631ZM392.379 214.544C391.514 214.582 391.109 215.229 391.164 216.486L391.244 218.309L393.771 218.198L393.68 216.143C393.632 215.041 393.198 214.508 392.379 214.544Z" fill="black"/>
<path d="M229.75 85.0801C261.51 86.1593 291.958 98.0116 316.09 118.689C340.221 139.366 356.6 167.638 362.533 198.858C368.467 230.077 363.603 262.387 348.741 290.476C333.878 318.564 309.902 340.761 280.753 353.417C251.603 366.073 219.015 368.436 188.345 360.117C157.675 351.797 130.747 333.291 111.989 307.64C93.2304 281.989 83.7569 250.719 85.1256 218.97C86.4943 187.221 98.6237 156.882 119.52 132.94" stroke="#E8E8E8" stroke-width="2" stroke-linejoin="round"/>
<path d="M99.3198 163.25C111.253 139.058 129.885 118.805 153 104.9" stroke="#E7422E" stroke-width="20" stroke-linejoin="round"/>
<path d="M162.962 103.916L162.732 94.486L158.069 96.7766L157.445 95.5065L163.648 92.4595L164.142 93.4657L164.52 103.151L162.962 103.916Z" fill="#E7422E"/>
<path d="M170.872 92.5423C171.11 93.1782 171.349 93.6288 171.59 93.894C171.83 94.1592 172.091 94.239 172.373 94.1335C172.936 93.9226 172.982 93.1876 172.511 91.9286C172.039 90.6696 171.522 90.1455 170.959 90.3565C170.677 90.462 170.532 90.6937 170.525 91.0516C170.518 91.4095 170.634 91.9064 170.872 92.5423ZM173.748 91.4507C174.116 92.4323 174.215 93.2369 174.046 93.8647C173.88 94.4865 173.453 94.9261 172.766 95.1834C172.117 95.4264 171.519 95.361 170.97 94.9874C170.424 94.6079 169.974 93.9444 169.619 92.997C168.888 91.0466 169.204 89.8164 170.565 89.3066C171.235 89.0557 171.845 89.117 172.394 89.4907C172.945 89.8584 173.396 90.5117 173.748 91.4507ZM178.366 93.9987C178.605 94.6346 178.845 95.0873 179.087 95.3567C179.333 95.6246 179.597 95.7058 179.879 95.6003C180.438 95.3909 180.48 94.6525 180.005 93.3849C179.537 92.1344 179.023 91.6139 178.464 91.8233C178.183 91.9287 178.035 92.1591 178.022 92.5143C178.014 92.868 178.128 93.3627 178.366 93.9987ZM181.247 92.9198C181.615 93.9014 181.713 94.704 181.543 95.3274C181.373 95.9509 180.948 96.3897 180.269 96.6438C179.621 96.8867 179.023 96.8235 178.476 96.4542C177.927 96.0805 177.475 95.4179 177.118 94.4661C176.388 92.5157 176.705 91.2848 178.071 90.7734C178.728 90.5272 179.333 90.5881 179.884 90.9558C180.44 91.322 180.894 91.9766 181.247 92.9198ZM176.896 87.0892L175.209 98.3929L173.967 98.858L175.654 87.5543L176.896 87.0892Z" fill="#E7422E"/>
<path d="M194.693 92.3496L193.566 92.6401L192.39 88.0781L187.284 89.394L188.46 93.956L187.333 94.2465L184.834 84.5522L185.962 84.2617L187.025 88.3861L192.13 87.0702L191.067 82.9458L192.195 82.6552L194.693 92.3496Z" fill="black"/>
<path d="M201.504 90.9959L201.081 89.9937L201.027 90.0041C200.75 90.5351 200.444 90.9187 200.11 91.155C199.78 91.3859 199.342 91.5542 198.797 91.6598C198.069 91.8009 197.461 91.7242 196.973 91.4296C196.489 91.1341 196.18 90.6402 196.046 89.9479C195.759 88.4652 196.794 87.4582 199.151 86.9269L200.39 86.6452L200.301 86.1896C200.19 85.6135 199.982 85.2134 199.679 84.9895C199.38 84.7602 198.958 84.6984 198.413 84.804C197.801 84.9227 197.145 85.2445 196.445 85.7694L195.939 84.9849C196.263 84.7182 196.628 84.4875 197.035 84.2927C197.447 84.0971 197.869 83.9573 198.302 83.8733C199.178 83.7035 199.863 83.7723 200.358 84.0794C200.858 84.3857 201.191 84.9676 201.357 85.8251L202.328 90.8361L201.504 90.9959ZM198.84 90.6992C199.532 90.5649 200.038 90.2699 200.358 89.8141C200.682 89.3574 200.777 88.7874 200.645 88.1041L200.516 87.4409L199.413 87.7034C198.535 87.9061 197.923 88.1683 197.578 88.4902C197.236 88.8067 197.115 89.2217 197.214 89.7354C197.292 90.1373 197.472 90.4199 197.754 90.583C198.04 90.7453 198.402 90.784 198.84 90.6992Z" fill="black"/>
<path d="M202.32 83.2708L203.524 83.1126L205.704 87.1291C206.187 88.0478 206.5 88.7158 206.642 89.1332L206.696 89.1261C206.724 88.8883 206.795 88.4797 206.907 87.9005C207.023 87.3162 207.411 85.5211 208.072 82.5154L209.277 82.3572L207.198 91.2217C206.992 92.0979 206.7 92.7375 206.321 93.1406C205.948 93.5476 205.454 93.7914 204.841 93.872C204.498 93.917 204.154 93.9231 203.81 93.8902L203.692 92.9901C203.948 93.0117 204.229 93.0023 204.535 92.962C205.307 92.8607 205.8 92.3553 206.016 91.4458L206.29 90.3359L202.32 83.2708Z" fill="black"/>
<path d="M215.035 81.8385L216.275 81.7355L213.352 85.6071L217.161 89.1799L215.839 89.2897L212.119 85.7918L212.433 89.5728L211.302 89.6667L210.682 82.2003L211.812 82.1063L212.114 85.7373L215.035 81.8385Z" fill="black"/>
<path d="M222.977 89.0001L222.721 87.9407L222.666 87.9423C222.306 88.4224 221.942 88.7521 221.573 88.9316C221.209 89.1063 220.749 89.2018 220.193 89.218C219.451 89.2397 218.862 89.0653 218.427 88.695C217.997 88.3246 217.772 87.7864 217.751 87.0803C217.707 85.5679 218.893 84.74 221.31 84.5966L222.58 84.5185L222.566 84.0539C222.549 83.4663 222.409 83.0372 222.146 82.7668C221.887 82.4916 221.48 82.3622 220.924 82.3784C220.3 82.3966 219.599 82.6085 218.822 83.0141L218.449 82.1565C218.812 81.9453 219.21 81.7764 219.644 81.6497C220.083 81.523 220.523 81.4532 220.965 81.4403C221.858 81.4142 222.524 81.5931 222.964 81.977C223.408 82.3607 223.643 82.9898 223.669 83.8645L223.818 88.9756L222.977 89.0001ZM220.391 88.2753C221.098 88.2547 221.645 88.045 222.035 87.6461C222.429 87.2471 222.616 86.6991 222.596 86.0021L222.576 85.3256L221.443 85.4065C220.542 85.4647 219.895 85.6249 219.501 85.8872C219.112 86.1447 218.925 86.5354 218.94 87.0593C218.952 87.4693 219.084 87.7777 219.337 87.9846C219.593 88.1914 219.945 88.2883 220.391 88.2753Z" fill="black"/>
<path d="M319.32 158.73C332.859 178.019 340.139 201.006 340.173 224.572C340.208 248.139 332.995 271.146 319.512 290.475C306.029 309.804 286.929 324.519 264.801 332.627C242.673 340.734 218.587 341.841 195.808 335.797C173.03 329.754 152.66 316.852 137.462 298.842C122.263 280.831 112.97 258.582 110.843 235.112C108.715 211.641 113.856 188.084 125.569 167.635C137.282 147.185 154.999 130.831 176.32 120.79" stroke="#E8E8E8" stroke-width="2" stroke-linejoin="round"/>
<path d="M176.33 120.79C191.478 113.679 207.996 109.963 224.73 109.9" stroke="#E7422E" stroke-width="20" stroke-linejoin="round"/>
<path d="M234.567 114.276L239.385 106.166L234.217 105.628L234.364 104.22L241.238 104.937L241.122 106.052L236.294 114.456L234.567 114.276Z" fill="#E7422E"/>
<path d="M243.713 108.282C243.584 108.949 243.553 109.458 243.619 109.81C243.686 110.161 243.867 110.366 244.162 110.423C244.753 110.537 245.176 109.935 245.431 108.615C245.687 107.295 245.519 106.578 244.929 106.463C244.634 106.406 244.389 106.528 244.196 106.83C244.003 107.131 243.842 107.615 243.713 108.282ZM246.736 108.854C246.537 109.883 246.201 110.621 245.729 111.068C245.263 111.511 244.669 111.663 243.949 111.524C243.269 111.392 242.792 111.024 242.52 110.418C242.252 109.81 242.215 109.009 242.407 108.015C242.803 105.971 243.715 105.086 245.142 105.363C245.844 105.499 246.332 105.869 246.605 106.475C246.883 107.076 246.927 107.869 246.736 108.854ZM249.343 113.439C249.214 114.105 249.183 114.617 249.248 114.973C249.318 115.33 249.501 115.537 249.796 115.594C250.382 115.708 250.804 115.1 251.061 113.771C251.315 112.461 251.149 111.748 250.563 111.635C250.268 111.578 250.022 111.697 249.825 111.993C249.633 112.29 249.472 112.772 249.343 113.439ZM252.363 114.024C252.164 115.053 251.829 115.789 251.358 116.231C250.887 116.674 250.296 116.826 249.584 116.688C248.904 116.557 248.428 116.19 248.154 115.59C247.881 114.985 247.841 114.183 248.035 113.185C248.431 111.141 249.344 110.257 250.776 110.534C251.465 110.668 251.949 111.035 252.227 111.637C252.509 112.239 252.555 113.035 252.363 114.024ZM251.698 106.779L244.356 115.537L243.054 115.284L250.396 106.527L251.698 106.779Z" fill="#E7422E"/>
<path d="M259.694 119.358L258.587 119.004L261.317 110.467L258.302 109.504L258.616 108.52L265.753 110.802L265.438 111.785L262.423 110.821L259.694 119.358Z" fill="black"/>
<path d="M266.931 122.132C266.477 121.952 266.095 121.704 265.783 121.388C265.478 121.07 265.267 120.687 265.151 120.238L265.075 120.208C264.963 120.635 264.835 121.031 264.69 121.395L263.55 124.263L262.494 123.843L266.511 113.747L267.369 114.089L267.136 115.1L267.187 115.121C267.61 114.847 268.035 114.697 268.463 114.671C268.891 114.645 269.338 114.725 269.804 114.91C270.728 115.278 271.314 115.877 271.563 116.707C271.816 117.539 271.716 118.525 271.262 119.666C270.807 120.81 270.197 121.598 269.431 122.03C268.671 122.459 267.838 122.493 266.931 122.132ZM269.295 115.746C268.583 115.462 267.989 115.455 267.515 115.722C267.04 115.99 266.627 116.552 266.276 117.409L266.183 117.645C265.793 118.624 265.677 119.39 265.835 119.944C265.994 120.493 266.434 120.911 267.155 121.198C267.757 121.437 268.324 121.381 268.857 121.028C269.394 120.677 269.833 120.074 270.174 119.218C270.52 118.349 270.613 117.615 270.453 117.017C270.3 116.416 269.913 115.992 269.295 115.746Z" fill="black"/>
<path d="M275.577 125.922L275.841 124.864L275.792 124.84C275.25 125.099 274.775 125.222 274.365 125.21C273.961 125.196 273.509 125.068 273.009 124.824C272.341 124.499 271.901 124.072 271.687 123.542C271.477 123.015 271.527 122.433 271.836 121.798C272.498 120.438 273.933 120.254 276.141 121.247L277.302 121.767L277.506 121.349C277.763 120.82 277.838 120.375 277.73 120.013C277.628 119.65 277.327 119.346 276.828 119.103C276.266 118.83 275.547 118.693 274.671 118.692L274.737 117.759C275.157 117.74 275.588 117.775 276.032 117.864C276.479 117.955 276.901 118.097 277.299 118.291C278.102 118.682 278.609 119.149 278.821 119.693C279.037 120.239 278.953 120.905 278.57 121.692L276.333 126.29L275.577 125.922ZM273.622 124.081C274.257 124.39 274.84 124.458 275.37 124.285C275.904 124.115 276.324 123.716 276.629 123.089L276.925 122.48L275.884 122.027C275.058 121.66 274.411 121.502 273.94 121.552C273.476 121.6 273.129 121.86 272.9 122.331C272.72 122.7 272.694 123.034 272.822 123.334C272.954 123.637 273.22 123.886 273.622 124.081Z" fill="black"/>
<path d="M282.933 121.351L281.357 124.064L284.986 126.173L286.562 123.46L287.543 124.03L283.779 130.508L282.798 129.938L284.494 127.018L280.865 124.909L279.169 127.829L278.188 127.259L281.952 120.781L282.933 121.351Z" fill="black"/>
<path d="M288 133.473C287.102 132.865 286.591 132.119 286.47 131.233C286.354 130.346 286.639 129.397 287.323 128.385C288.025 127.347 288.817 126.713 289.698 126.484C290.583 126.257 291.488 126.457 292.413 127.082C292.711 127.284 292.987 127.518 293.242 127.784C293.497 128.05 293.68 128.283 293.791 128.485L292.963 129.088C292.811 128.865 292.631 128.644 292.421 128.425C292.214 128.202 292.016 128.027 291.827 127.899C290.566 127.047 289.392 127.424 288.304 129.033C287.789 129.795 287.546 130.484 287.576 131.098C287.61 131.715 287.929 132.228 288.533 132.637C289.05 132.986 289.656 133.234 290.35 133.379L289.787 134.211C289.226 134.145 288.631 133.899 288 133.473Z" fill="black"/>
<path d="M291.807 136.016L290.91 135.324L295.481 129.405L300.449 133.242L295.879 139.16L294.971 138.46L298.941 133.319L295.777 130.875L291.807 136.016Z" fill="black"/>
<path d="M304.82 142.145C303.999 143.05 303.13 143.55 302.212 143.646C301.297 143.739 300.438 143.421 299.635 142.692C299.138 142.242 298.804 141.726 298.63 141.144C298.457 140.562 298.463 139.959 298.649 139.333C298.835 138.708 299.192 138.103 299.722 137.52C300.543 136.615 301.408 136.117 302.316 136.024C303.228 135.928 304.085 136.245 304.888 136.974C305.665 137.678 306.046 138.495 306.033 139.425C306.024 140.358 305.619 141.265 304.82 142.145ZM300.593 138.31C299.95 139.018 299.602 139.687 299.548 140.316C299.495 140.944 299.743 141.508 300.293 142.007C300.843 142.506 301.427 142.701 302.044 142.59C302.668 142.479 303.303 142.067 303.949 141.355C304.589 140.65 304.931 139.985 304.975 139.36C305.025 138.735 304.772 138.17 304.215 137.664C303.665 137.165 303.086 136.969 302.478 137.076C301.871 137.183 301.242 137.594 300.593 138.31Z" fill="black"/>
<path d="M305.828 148.781C305.491 148.43 305.247 148.047 305.095 147.632C304.95 147.218 304.917 146.783 304.997 146.328L304.941 146.269C304.663 146.61 304.384 146.916 304.102 147.187L301.882 149.314L301.099 148.497L308.915 141.007L309.552 141.671L308.922 142.492L308.959 142.531C309.456 142.458 309.904 142.498 310.302 142.651C310.701 142.804 311.073 143.061 311.419 143.422C312.104 144.138 312.388 144.923 312.27 145.779C312.156 146.638 311.657 147.49 310.774 148.336C309.888 149.185 309.009 149.647 308.136 149.722C307.27 149.797 306.5 149.483 305.828 148.781ZM310.612 143.969C310.083 143.418 309.549 143.166 309.008 143.212C308.467 143.258 307.86 143.597 307.188 144.229L307.005 144.404C306.248 145.13 305.826 145.777 305.74 146.344C305.657 146.908 305.883 147.469 306.417 148.027C306.864 148.493 307.402 148.676 308.03 148.577C308.663 148.481 309.31 148.115 309.973 147.48C310.645 146.836 311.033 146.209 311.136 145.601C311.246 144.992 311.071 144.448 310.612 143.969Z" fill="black"/>
<path d="M317.466 151.997L315.908 150.128L310.9 154.305L310.173 153.433L315.181 149.256L313.64 147.409L314.385 146.787L318.212 151.375L317.466 151.997Z" fill="black"/>
<path d="M302.1 275.08C292.852 288.598 280.09 299.336 265.19 306.137C250.29 312.938 233.817 315.544 217.546 313.674C201.274 311.804 185.821 305.529 172.852 295.526C159.883 285.523 149.89 272.17 143.949 256.907C138.008 241.644 136.345 225.049 139.139 208.91C141.933 192.771 149.078 177.701 159.804 165.323C170.53 152.945 184.43 143.729 200.007 138.668C215.584 133.606 232.247 132.891 248.2 136.6" stroke="#E8E8E8" stroke-width="2" stroke-linejoin="round"/>
<path d="M248.2 136.6C259.933 139.326 271.001 144.375 280.75 151.45" stroke="#E7422E" stroke-width="20" stroke-linejoin="round"/>
<path d="M286.871 155.894C289.537 153.033 292.035 152.688 294.366 154.859C294.732 155.201 295.016 155.518 295.217 155.811L294.304 156.791C294.118 156.482 293.859 156.172 293.526 155.861C292.742 155.131 291.958 154.793 291.173 154.846C290.388 154.9 289.547 155.375 288.65 156.271L288.71 156.327C289.119 156.203 289.533 156.199 289.953 156.316C290.376 156.43 290.78 156.666 291.163 157.023C291.827 157.641 292.154 158.326 292.145 159.078C292.136 159.83 291.807 160.554 291.158 161.251C290.444 162.018 289.663 162.424 288.817 162.47C287.977 162.516 287.187 162.194 286.446 161.505C285.923 161.017 285.584 160.468 285.43 159.858C285.28 159.244 285.323 158.599 285.56 157.923C285.804 157.247 286.241 156.571 286.871 155.894ZM287.33 160.516C287.734 160.892 288.165 161.051 288.624 160.992C289.087 160.937 289.543 160.668 289.993 160.184C290.385 159.764 290.589 159.338 290.606 158.905C290.626 158.476 290.431 158.07 290.021 157.688C289.767 157.452 289.483 157.289 289.167 157.2C288.854 157.108 288.547 157.1 288.247 157.175C287.95 157.247 287.709 157.381 287.526 157.578C287.088 158.048 286.845 158.563 286.797 159.122C286.756 159.682 286.934 160.146 287.33 160.516Z" fill="#E7422E"/>
<path d="M295.708 160.546C295.192 160.988 294.851 161.367 294.684 161.684C294.517 162.001 294.532 162.273 294.727 162.502C295.119 162.959 295.825 162.75 296.846 161.876C297.867 161.001 298.182 160.336 297.791 159.879C297.595 159.65 297.328 159.594 296.99 159.71C296.651 159.826 296.224 160.105 295.708 160.546ZM297.719 162.874C296.923 163.556 296.201 163.925 295.553 163.981C294.912 164.038 294.353 163.788 293.876 163.231C293.425 162.705 293.282 162.12 293.445 161.476C293.614 160.833 294.083 160.183 294.851 159.525C296.433 158.17 297.697 158.045 298.643 159.15C299.108 159.693 299.259 160.286 299.096 160.93C298.94 161.574 298.481 162.222 297.719 162.874ZM296.908 168.086C296.392 168.528 296.049 168.908 295.879 169.228C295.712 169.551 295.726 169.827 295.921 170.056C296.31 170.509 297.018 170.296 298.046 169.415C299.06 168.547 299.373 167.886 298.985 167.433C298.79 167.204 298.523 167.145 298.184 167.254C297.849 167.367 297.424 167.645 296.908 168.086ZM298.909 170.423C298.112 171.105 297.392 171.472 296.748 171.526C296.104 171.579 295.546 171.331 295.075 170.78C294.625 170.254 294.479 169.671 294.639 169.03C294.802 168.387 295.269 167.735 296.041 167.074C297.623 165.719 298.888 165.596 299.837 166.703C300.293 167.237 300.443 167.825 300.287 168.469C300.133 169.117 299.674 169.768 298.909 170.423ZM302.895 164.337L291.698 166.626L290.835 165.618L302.033 163.329L302.895 164.337Z" fill="#E7422E"/>
<path d="M309.45 175.488C308.875 174.553 308.108 174.005 307.149 173.845C306.196 173.687 305.178 173.941 304.095 174.606C302.98 175.291 302.278 176.08 301.988 176.975C301.704 177.872 301.859 178.803 302.453 179.77C302.818 180.364 303.341 180.976 304.022 181.606L303.154 182.139C302.57 181.685 302.012 181.025 301.48 180.159C300.71 178.905 300.495 177.702 300.837 176.551C301.18 175.404 302.053 174.4 303.455 173.539C304.333 173 305.202 172.691 306.062 172.611C306.925 172.536 307.725 172.697 308.461 173.095C309.2 173.497 309.827 174.117 310.342 174.956C310.891 175.849 311.207 176.73 311.291 177.598L310.183 177.701C310.09 176.871 309.846 176.133 309.45 175.488Z" fill="black"/>
<path d="M311.825 185.383L310.73 183.209L304.906 186.143L304.395 185.129L310.22 182.196L309.138 180.047L310.005 179.61L312.692 184.946L311.825 185.383Z" fill="black"/>
<path d="M307.674 192.705C307.493 192.252 307.408 191.805 307.422 191.362C307.442 190.922 307.574 190.506 307.818 190.112L307.788 190.036C307.402 190.25 307.028 190.43 306.664 190.577L303.804 191.726L303.38 190.674L313.452 186.625L313.797 187.481L312.904 188.009L312.924 188.06C313.414 188.178 313.815 188.382 314.129 188.674C314.442 188.965 314.693 189.343 314.88 189.808C315.25 190.73 315.221 191.567 314.791 192.319C314.364 193.076 313.581 193.683 312.444 194.14C311.302 194.599 310.311 194.7 309.471 194.443C308.637 194.189 308.038 193.61 307.674 192.705ZM313.924 190.016C313.639 189.305 313.235 188.871 312.715 188.712C312.194 188.552 311.503 188.641 310.641 188.978L310.406 189.072C309.43 189.465 308.795 189.909 308.503 190.405C308.215 190.898 308.216 191.505 308.505 192.224C308.746 192.824 309.178 193.196 309.801 193.338C310.424 193.485 311.164 193.387 312.018 193.044C312.884 192.695 313.479 192.257 313.803 191.73C314.132 191.204 314.172 190.633 313.924 190.016Z" fill="black"/>
<path d="M314.89 202.272C313.718 202.614 312.715 202.586 311.882 202.188C311.054 201.789 310.488 201.069 310.184 200.027C309.996 199.384 309.981 198.769 310.137 198.183C310.294 197.596 310.615 197.084 311.1 196.649C311.585 196.213 312.206 195.884 312.963 195.664C314.135 195.322 315.133 195.349 315.956 195.745C316.783 196.14 317.349 196.858 317.652 197.899C317.946 198.905 317.844 199.801 317.347 200.587C316.851 201.377 316.032 201.939 314.89 202.272ZM313.292 196.792C312.373 197.06 311.727 197.448 311.353 197.956C310.979 198.464 310.896 199.074 311.104 199.788C311.312 200.501 311.708 200.972 312.292 201.2C312.882 201.431 313.638 201.413 314.561 201.143C315.476 200.877 316.115 200.488 316.479 199.979C316.849 199.472 316.928 198.858 316.718 198.136C316.51 197.423 316.119 196.953 315.544 196.726C314.97 196.5 314.22 196.522 313.292 196.792Z" fill="black"/>
<path d="M319.243 204.559L314.576 205.452L313.345 205.639L312.959 205.692L319.992 208.474L320.257 209.863L312.899 211.271L312.7 210.23L317.198 209.37L318.088 209.221L318.968 209.087L311.95 206.309L311.684 204.92L319.042 203.512L319.243 204.559Z" fill="black"/>
<path d="M320.161 217.738L319.913 215.317L313.426 215.983L313.31 214.854L319.797 214.189L319.551 211.795L320.517 211.696L321.127 217.639L320.161 217.738Z" fill="black"/>
<path d="M313.668 222.772C313.644 221.665 313.962 220.783 314.623 220.126C315.283 219.473 316.212 219.134 317.411 219.108C318.618 219.082 319.584 219.357 320.307 219.934C321.031 220.516 321.404 221.308 321.425 222.31C321.446 223.249 321.152 223.998 320.544 224.558C319.941 225.118 319.133 225.409 318.122 225.431L317.404 225.447L317.293 220.287C316.414 220.328 315.751 220.564 315.305 220.993C314.858 221.426 314.643 222.026 314.66 222.791C314.677 223.598 314.863 224.392 315.217 225.172L314.206 225.194C314.024 224.797 313.893 224.419 313.812 224.061C313.727 223.707 313.679 223.278 313.668 222.772ZM320.475 222.317C320.462 221.715 320.256 221.239 319.856 220.887C319.457 220.541 318.91 220.343 318.216 220.294L318.301 224.21C319.016 224.195 319.559 224.023 319.931 223.696C320.306 223.369 320.488 222.909 320.475 222.317Z" fill="black"/>
<path d="M313.437 232.726L313.514 231.58L320.021 232.017L320.172 229.773C318.561 229.541 317.288 229.285 316.353 229.003C315.417 228.72 314.74 228.39 314.323 228.01C313.905 227.635 313.714 227.179 313.75 226.642C313.766 226.397 313.807 226.203 313.871 226.061L314.71 226.117C314.676 226.216 314.655 226.328 314.646 226.456C314.611 226.979 315.136 227.432 316.22 227.815C317.304 228.199 318.966 228.545 321.206 228.856L320.913 233.228L313.437 232.726Z" fill="black"/>
<path d="M317.365 236.653L317.001 238.935C316.699 240.825 315.853 241.66 314.463 241.438C313.734 241.322 313.215 240.985 312.907 240.428C312.598 239.876 312.52 239.125 312.671 238.176L313.203 234.841L320.601 236.021L320.423 237.141L317.365 236.653ZM316.399 236.5L313.962 236.111L313.618 238.271C313.523 238.865 313.554 239.336 313.711 239.684C313.868 240.032 314.155 240.24 314.574 240.306C314.984 240.372 315.306 240.273 315.542 240.011C315.781 239.754 315.954 239.292 316.06 238.626L316.399 236.5Z" fill="black"/>
<path d="M310.974 245.594C311.233 244.541 311.757 243.804 312.545 243.383C313.337 242.968 314.326 242.906 315.512 243.198C316.729 243.497 317.598 244.021 318.118 244.768C318.637 245.52 318.763 246.438 318.497 247.522C318.411 247.872 318.287 248.212 318.126 248.543C317.964 248.874 317.808 249.127 317.658 249.301L316.805 248.732C316.962 248.513 317.107 248.267 317.24 247.995C317.377 247.723 317.473 247.477 317.527 247.256C317.891 245.778 317.13 244.807 315.245 244.343C314.351 244.123 313.621 244.134 313.055 244.374C312.488 244.62 312.117 245.096 311.943 245.805C311.794 246.411 311.771 247.065 311.876 247.766L310.9 247.526C310.767 246.977 310.792 246.333 310.974 245.594Z" fill="black"/>
<path d="M314.854 255.757L315.608 253.443L309.406 251.424L309.758 250.345L315.959 252.363L316.704 250.075L317.627 250.376L315.777 256.057L314.854 255.757Z" fill="black"/>
<path d="M311.063 262.635C310.613 262.447 310.325 262.174 310.198 261.815C310.074 261.461 310.069 261.035 310.184 260.535L310.127 260.511C309.801 261.066 309.45 261.423 309.073 261.582C308.694 261.745 308.271 261.729 307.804 261.534C307.16 261.266 306.763 260.821 306.612 260.2C306.46 259.583 306.573 258.821 306.952 257.912L308.224 254.865L315.138 257.75L313.872 260.785C313.156 262.501 312.22 263.117 311.063 262.635ZM308.31 260.516C308.685 260.672 309.016 260.642 309.303 260.426C309.593 260.217 309.875 259.784 310.149 259.128L310.941 257.229L308.664 256.278L307.861 258.202C307.357 259.409 307.507 260.181 308.31 260.516ZM311.388 261.571C311.725 261.711 312.017 261.68 312.265 261.477C312.515 261.28 312.749 260.919 312.969 260.393L313.793 258.418L311.843 257.605L311.104 259.378C310.833 260.025 310.723 260.515 310.772 260.847C310.821 261.178 311.027 261.42 311.388 261.571Z" fill="black"/>
<path d="M305.495 269.357C304.416 268.785 303.716 268.067 303.396 267.201C303.079 266.338 303.175 265.427 303.682 264.468C303.995 263.876 304.413 263.424 304.933 263.112C305.454 262.8 306.041 262.656 306.693 262.681C307.344 262.707 308.019 262.904 308.715 263.273C309.795 263.844 310.492 264.558 310.806 265.416C311.125 266.275 311.031 267.184 310.523 268.143C310.033 269.069 309.336 269.641 308.432 269.859C307.525 270.081 306.547 269.913 305.495 269.357ZM308.165 264.312C307.32 263.864 306.586 263.692 305.963 263.796C305.341 263.9 304.857 264.28 304.509 264.937C304.162 265.593 304.118 266.207 304.378 266.778C304.64 267.354 305.196 267.868 306.045 268.318C306.887 268.763 307.616 268.93 308.233 268.818C308.851 268.712 309.336 268.326 309.687 267.662C310.035 267.005 310.082 266.396 309.827 265.833C309.573 265.271 309.019 264.764 308.165 264.312Z" fill="black"/>
</g>
<defs>
<clipPath id="clip0">
<rect width="450" height="450" fill="white"/>
</clipPath>
</defs>
</svg>
