<svg width="90" height="95" viewBox="0 0 90 95" fill="none" xmlns="http://www.w3.org/2000/svg">
<path d="M56.6996 14.2329C61.4181 17.7525 64.5122 23.3219 64.5122 29.5875C64.5122 40.2235 55.7714 48.8096 45.0193 48.8096C41.5385 48.8096 38.2896 47.9201 35.4663 46.3343V59.1362L90 35.853V0L56.6996 14.2329ZM25.4878 29.5875C25.4878 18.9901 34.2286 10.3653 44.9807 10.3653C48.4615 10.3653 51.7104 11.2548 54.5337 12.8406V0.0386773L0 23.3219V59.1749L33.3004 44.942C28.5819 41.4224 25.4878 35.853 25.4878 29.5875Z" fill="#ACACAE"/>
<path d="M55.5009 29.5873C55.5009 35.3114 50.7824 39.9526 45.0196 39.9526C39.2569 39.9526 34.5383 35.3114 34.5383 29.5873C34.5383 23.8632 39.2182 19.222 45.0196 19.222C50.8211 19.222 55.5009 23.8632 55.5009 29.5873Z" fill="#E7422E"/>
<path d="M89.9613 70.4684H82.6128L74.1427 81.9552V70.4684H68.1478V94.1383H74.1427V82.6127L82.6128 94.1383H89.9613L81.1818 82.3033L89.9613 70.4684ZM45.6382 80.0601L38.7538 70.4297H32.7589V94.0996H38.7538V80.6789L41.9639 85.1654L45.6382 90.3093L49.3124 85.1654L52.5226 80.6789V94.0996H58.5174V70.4297H52.5226L45.6382 80.0601ZM12.6085 88.7236C8.97293 88.7236 5.99484 85.7842 5.99484 82.226C5.99484 78.6291 8.93425 75.7283 12.6085 75.7283C16.2441 75.7283 19.2222 78.6678 19.2222 82.226C19.2222 85.8229 16.2441 88.7236 12.6085 88.7236ZM12.6085 69.8109C5.64676 69.8109 0 75.3803 0 82.226C0 89.0717 5.64676 94.6411 12.6085 94.6411C19.5703 94.6411 25.217 89.0717 25.217 82.226C25.217 75.3803 19.5703 69.8109 12.6085 69.8109Z" fill="#ACACAE"/>
</svg>
