<svg width="1351" height="4122" viewBox="0 0 1351 4122" fill="none" xmlns="http://www.w3.org/2000/svg">
<path d="M0.000244141 2061.97L1350 2061.97" stroke="#F5F5F5" stroke-width="2"/>
<path d="M-710 4121C427.707 4121 1350 3198.71 1350 2061C1350 923.293 427.707 0.99995 -710 1" stroke="#E8E8E8" stroke-width="2"/>
<path d="M-106.091 3517.09C698.086 3517.09 1350 2865.18 1350 2061C1350 1256.82 698.086 604.909 -106.091 604.909" stroke="#E8E8E8" stroke-width="2"/>
<circle r="279.386" transform="matrix(4.37114e-08 1 1 -4.37114e-08 1069.61 2060.52)" stroke="#E8E8E8" stroke-width="2"/>
<circle r="182.569" transform="matrix(4.37114e-08 1 1 -4.37114e-08 1165.47 2060.52)" stroke="#E8E8E8" stroke-width="2"/>
<circle r="128.409" transform="matrix(4.37114e-08 1 1 -4.37114e-08 1220.59 2061)" stroke="#E8E8E8" stroke-width="2"/>
<circle r="117.865" transform="matrix(4.37114e-08 1 1 -4.37114e-08 1231.14 2061)" stroke="#E8E8E8" stroke-width="2"/>
<circle r="96.2964" transform="matrix(4.37114e-08 1 1 -4.37114e-08 1252.7 2061.48)" stroke="#E7422E" stroke-width="2"/>
<circle r="85.2727" transform="matrix(4.37114e-08 1 1 -4.37114e-08 1263.73 2061)" stroke="#E7422E" stroke-width="2"/>
<circle r="42.1363" transform="matrix(4.37114e-08 1 1 -4.37114e-08 1306.86 2061)" stroke="#E7422E" stroke-width="2"/>
</svg>
