<svg width="450" height="95" viewBox="0 0 450 95" fill="none" xmlns="http://www.w3.org/2000/svg">
<path d="M449.617 70.0692C449.829 70.0692 450 69.8973 450 69.6849V10.3364C450 9.12277 449.022 8.14172 447.812 8.14172C446.602 8.14172 445.624 9.12277 445.624 10.3364V66.2057C445.624 66.4181 445.795 66.59 446.007 66.59C446.219 66.59 446.39 66.4181 446.39 66.2057V10.3364C446.39 9.55767 447.026 8.9205 447.802 8.9205C448.578 8.9205 449.214 9.55767 449.214 10.3364V69.6849C449.234 69.8973 449.405 70.0692 449.617 70.0692Z" fill="#AAB3BD"/>
<path d="M442.417 70.0692C442.629 70.0692 442.801 69.8973 442.801 69.6849V10.3364C442.801 9.55767 443.436 8.9205 444.212 8.9205C444.989 8.9205 445.624 9.55767 445.624 10.3364C445.624 10.5488 445.795 10.7208 446.007 10.7208C446.219 10.7208 446.39 10.5488 446.39 10.3364C446.39 9.12277 445.412 8.14172 444.202 8.14172C442.992 8.14172 442.014 9.12277 442.014 10.3364V69.6849C442.024 69.8973 442.206 70.0692 442.417 70.0692Z" fill="#AAB3BD"/>
<path d="M441.137 89.1339H445.049C445.261 89.1339 445.432 88.962 445.432 88.7496V73.1944C445.432 72.982 445.261 72.8101 445.049 72.8101C444.837 72.8101 444.666 72.982 444.666 73.1944V88.3551H441.358L438.828 84.168C438.717 83.9859 438.485 83.9252 438.293 84.0365C438.112 84.1478 438.051 84.3804 438.162 84.5725L440.804 88.9417C440.874 89.0631 441.006 89.1339 441.137 89.1339Z" fill="#CCCCCC"/>
<path d="M79.6971 76.6534C79.9089 76.6534 80.0803 76.4815 80.0803 76.2691V72.9517C80.0803 72.7393 79.9089 72.5674 79.6971 72.5674C79.4854 72.5674 79.314 72.7393 79.314 72.9517V76.2691C79.314 76.4815 79.4854 76.6534 79.6971 76.6534Z" fill="#CCCCCC"/>
<path d="M101.285 76.6534C101.497 76.6534 101.668 76.4815 101.668 76.2691V72.9517C101.668 72.7393 101.497 72.5674 101.285 72.5674C101.073 72.5674 100.902 72.7393 100.902 72.9517V76.2691C100.902 76.4815 101.073 76.6534 101.285 76.6534Z" fill="#CCCCCC"/>
<path d="M351.558 76.724C351.77 76.724 351.941 76.5521 351.941 76.3397V72.9009C351.941 72.6885 351.77 72.5166 351.558 72.5166C351.346 72.5166 351.175 72.6885 351.175 72.9009V76.3397C351.175 76.5521 351.346 76.724 351.558 76.724Z" fill="#CCCCCC"/>
<path d="M373.146 76.7241C373.358 76.7241 373.53 76.5522 373.53 76.3398V72.982C373.53 72.7696 373.358 72.5977 373.146 72.5977C372.935 72.5977 372.763 72.7696 372.763 72.982V76.3398C372.763 76.5522 372.935 76.7241 373.146 76.7241Z" fill="#CCCCCC"/>
<path d="M76.8236 79.6975C77.0353 79.6975 77.2067 79.5256 77.2067 79.3132V76.8353H103.766V79.3031C103.766 79.5155 103.937 79.6874 104.149 79.6874C104.361 79.6874 104.532 79.5155 104.532 79.3031V76.451C104.532 76.2386 104.361 76.0667 104.149 76.0667H76.8236C76.6118 76.0667 76.4404 76.2386 76.4404 76.451V79.3132C76.4404 79.5256 76.6118 79.6975 76.8236 79.6975Z" fill="#CCCCCC"/>
<path d="M407.257 84.7141H442.417C442.629 84.7141 442.8 84.5422 442.8 84.3298V0.384329C442.8 0.171937 442.629 0 442.417 0H92.3009C74.9075 0 59.0972 4.61194 47.7839 12.9761C47.0378 13.5223 46.3017 14.0684 45.5556 14.6247C37.2269 20.7841 27.1135 28.3088 12.372 39.6364C11.7569 40.1118 11.2024 40.5669 10.6881 41.022C9.07481 42.4481 7.62284 44.0259 6.3927 45.725C6.38262 45.7351 6.36245 45.7553 6.35237 45.7654C4.67857 48.0714 3.33751 50.6808 2.34937 53.5228C2.33928 53.543 2.3292 53.5633 2.31912 53.5835C0.736068 58.1853 0 63.485 0 70.2714C0 78.9492 3.92233 83.3487 11.6662 83.3487H45.5959C45.8076 83.3487 45.979 83.1768 45.979 82.9644C45.979 82.752 45.8076 82.5801 45.5959 82.5801H11.6662C4.33574 82.5801 0.776401 78.5547 0.776401 70.2816C0.776401 63.6165 1.4923 58.4179 3.03502 53.9173C3.0451 53.897 3.05519 53.8768 3.06527 53.8566C4.02317 51.0854 5.33397 48.5367 6.94727 46.2914C6.95736 46.2813 6.97752 46.261 6.9876 46.2509C8.19758 44.5821 9.6193 43.0246 11.2023 41.6187C11.7065 41.1737 12.251 40.7287 12.8459 40.2635C27.5874 28.9359 37.7008 21.4213 46.0194 15.2619C46.7554 14.7056 47.5016 14.1595 48.2377 13.6133C59.4299 5.31992 75.0789 0.768657 92.3009 0.768657H442.024V83.9353H407.257C407.046 83.9353 406.874 84.1073 406.874 84.3197C406.874 84.5321 407.046 84.7141 407.257 84.7141Z" fill="#CCCCCC"/>
<path d="M135.396 84.7142H317.457C317.668 84.7142 317.84 84.5423 317.84 84.3299C317.84 84.1175 317.668 83.9456 317.457 83.9456H135.396C135.184 83.9456 135.013 84.1175 135.013 84.3299C135.003 84.5322 135.184 84.7142 135.396 84.7142Z" fill="#AAB3BD"/>
<path d="M76.823 79.8494H104.158C104.209 79.8494 104.269 79.8393 104.31 79.819L112.981 76.0061H131.917C132.129 76.0061 132.3 75.8341 132.3 75.6218C132.3 75.4094 132.129 75.2374 131.917 75.2374H112.9C112.85 75.2374 112.79 75.2475 112.749 75.2678L104.078 79.0807H76.9037L68.2322 75.2678C68.1818 75.2475 68.1314 75.2374 68.081 75.2374H48.9129C48.7012 75.2374 48.5298 75.4094 48.5298 75.6218C48.5298 75.8341 48.7012 76.0061 48.9129 76.0061H68.0003L76.6718 79.819C76.7222 79.8291 76.7726 79.8494 76.823 79.8494Z" fill="#CCCCCC"/>
<path d="M43.5998 84.6736H50.053C50.2647 84.6736 50.4361 84.5016 50.4361 84.2892C50.4361 84.0769 50.2647 83.9049 50.053 83.9049H43.8619L43.4889 82.9036C43.4183 82.7014 43.1965 82.6103 42.9948 82.6811C42.7931 82.762 42.6923 82.9846 42.773 83.1767L43.2469 84.4207C43.2973 84.5724 43.4385 84.6736 43.5998 84.6736Z" fill="#CCCCCC"/>
<path d="M71.086 88.517H109.906C109.997 88.517 110.087 88.4867 110.158 88.426L113.163 85.8672C113.324 85.7256 113.344 85.4829 113.203 85.321C113.062 85.1592 112.82 85.139 112.659 85.2806L109.765 87.7484H71.2675L68.3736 84.0568C68.2425 83.8849 68.0005 83.8646 67.8291 83.9961C67.6577 84.1276 67.6275 84.3703 67.7686 84.5423L70.7734 88.3855C70.8541 88.4665 70.965 88.517 71.086 88.517Z" fill="#CCCCCC"/>
<path d="M131.01 85.958H137.382C137.554 85.958 137.695 85.8468 137.745 85.685L138.119 84.5016C138.179 84.2994 138.068 84.0769 137.866 84.0162C137.655 83.9454 137.443 84.0667 137.382 84.269L137.09 85.1894H131C130.788 85.1894 130.617 85.3613 130.617 85.5737C130.627 85.7861 130.798 85.958 131.01 85.958Z" fill="#CCCCCC"/>
<path d="M112.518 85.5739C112.518 80.3753 116.732 76.1477 121.915 76.1477C127.098 76.1477 131.313 80.3753 131.313 85.5739C131.313 90.7724 127.098 95 121.915 95C116.732 94.9899 112.518 90.7623 112.518 85.5739ZM113.294 85.5739C113.294 90.3476 117.166 94.2213 121.915 94.2213C126.674 94.2213 130.536 90.3375 130.536 85.5739C130.536 80.8001 126.664 76.9265 121.915 76.9265C117.166 76.9164 113.294 80.8001 113.294 85.5739Z" fill="#E7422E"/>
<path d="M118.376 85.5738C118.376 83.6218 119.969 82.0238 121.915 82.0238C123.871 82.0238 125.454 83.6117 125.454 85.5738C125.454 87.5359 123.871 89.1238 121.915 89.1238C119.969 89.1238 118.376 87.5258 118.376 85.5738ZM119.152 85.5738C119.152 87.101 120.393 88.3551 121.925 88.3551C123.448 88.3551 124.688 87.1111 124.688 85.5738C124.688 84.0466 123.448 82.8026 121.925 82.8026C120.393 82.7925 119.152 84.0365 119.152 85.5738Z" fill="#E7422E"/>
<path d="M49.6694 85.5739C49.6694 80.3753 53.8842 76.1477 59.0669 76.1477C64.2496 76.1477 68.4644 80.3753 68.4644 85.5739C68.4644 90.7724 64.2496 95 59.0669 95C53.8842 94.9899 49.6694 90.7623 49.6694 85.5739ZM50.4458 85.5739C50.4458 90.3476 54.3178 94.2213 59.0669 94.2213C63.8161 94.2213 67.688 90.3375 67.688 85.5739C67.688 80.8001 63.8161 76.9265 59.0669 76.9265C54.3178 76.9164 50.4458 80.8001 50.4458 85.5739Z" fill="#E7422E"/>
<path d="M55.5273 85.5738C55.5273 83.6218 57.1104 82.0238 59.0665 82.0238C61.0226 82.0238 62.6057 83.6117 62.6057 85.5738C62.6057 87.5359 61.0126 89.1238 59.0665 89.1238C57.1205 89.1238 55.5273 87.5258 55.5273 85.5738ZM56.3037 85.5738C56.3037 87.101 57.544 88.3551 59.0665 88.3551C60.5891 88.3551 61.8394 87.1111 61.8394 85.5738C61.8394 84.0466 60.5992 82.8026 59.0665 82.8026C57.544 82.7925 56.3037 84.0365 56.3037 85.5738Z" fill="#E7422E"/>
<path d="M376.02 79.6874C376.232 79.6874 376.403 79.5155 376.403 79.3031V76.451C376.403 76.2386 376.232 76.0667 376.02 76.0667H348.685C348.473 76.0667 348.302 76.2386 348.302 76.451V79.2728C348.302 79.4852 348.473 79.6571 348.685 79.6571C348.897 79.6571 349.068 79.4852 349.068 79.2728V76.8353H375.627V79.3031C375.637 79.5155 375.809 79.6874 376.02 79.6874Z" fill="#CCCCCC"/>
<path d="M342.947 88.517H381.767C381.888 88.517 381.999 88.4664 382.07 88.3653L385.075 84.522C385.206 84.3501 385.176 84.1073 385.014 83.9758C384.843 83.8444 384.601 83.8747 384.47 84.0365L381.586 87.7281H343.099L340.205 85.2603C340.043 85.1187 339.801 85.1389 339.66 85.3008C339.519 85.4626 339.539 85.7053 339.701 85.8469L342.705 88.4057C342.766 88.4866 342.857 88.517 342.947 88.517Z" fill="#CCCCCC"/>
<path d="M315.471 85.9582H321.853C322.065 85.9582 322.237 85.7863 322.237 85.5739C322.237 85.3615 322.065 85.1895 321.853 85.1895H315.753L315.471 84.2894C315.41 84.0871 315.188 83.9759 314.987 84.0366C314.785 84.0972 314.674 84.3198 314.735 84.522L315.108 85.6952C315.148 85.8469 315.299 85.9582 315.471 85.9582Z" fill="#CCCCCC"/>
<path d="M348.684 79.8494H376.02C376.07 79.8494 376.121 79.8393 376.171 79.819L384.842 76.0061H403.748C403.96 76.0061 404.131 75.8341 404.131 75.6218C404.131 75.4094 403.96 75.2374 403.748 75.2374H384.772C384.721 75.2374 384.671 75.2475 384.621 75.2678L375.949 79.0807H348.775L340.104 75.2678C340.053 75.2475 340.003 75.2374 339.952 75.2374H320.946C320.734 75.2374 320.562 75.4094 320.562 75.6218C320.562 75.8341 320.734 76.0061 320.946 76.0061H339.851L348.523 79.819C348.583 79.8291 348.634 79.8494 348.684 79.8494Z" fill="#CCCCCC"/>
<path d="M402.791 84.6737H407.066C407.278 84.6737 407.449 84.5017 407.449 84.2894C407.449 84.077 407.278 83.905 407.066 83.905H402.791C402.579 83.905 402.408 84.077 402.408 84.2894C402.398 84.5017 402.579 84.6737 402.791 84.6737Z" fill="#CCCCCC"/>
<path d="M321.541 85.5739C321.541 80.3753 325.756 76.1477 330.938 76.1477C336.121 76.1477 340.336 80.3753 340.336 85.5739C340.336 90.7724 336.121 95 330.938 95C325.756 94.9899 321.541 90.7623 321.541 85.5739ZM322.307 85.5739C322.307 90.3476 326.179 94.2213 330.928 94.2213C335.688 94.2213 339.549 90.3375 339.549 85.5739C339.549 80.8001 335.678 76.9265 330.928 76.9265C326.179 76.9164 322.307 80.8001 322.307 85.5739Z" fill="#E7422E"/>
<path d="M327.389 85.5738C327.389 83.6218 328.972 82.0238 330.928 82.0238C332.874 82.0238 334.467 83.6117 334.467 85.5738C334.467 87.5359 332.884 89.1238 330.928 89.1238C328.982 89.1238 327.389 87.5258 327.389 85.5738ZM328.165 85.5738C328.165 87.101 329.405 88.3551 330.928 88.3551C332.45 88.3551 333.691 87.1111 333.691 85.5738C333.691 84.0466 332.45 82.8026 330.928 82.8026C329.405 82.7925 328.165 84.0365 328.165 85.5738Z" fill="#E7422E"/>
<path d="M384.379 85.5739C384.379 80.3753 388.594 76.1477 393.776 76.1477C398.959 76.1477 403.174 80.3753 403.174 85.5739C403.174 90.7724 398.959 95 393.776 95C388.594 94.9899 384.379 90.7623 384.379 85.5739ZM385.155 85.5739C385.155 90.3476 389.027 94.2213 393.776 94.2213C398.536 94.2213 402.397 90.3375 402.397 85.5739C402.397 80.8001 398.526 76.9265 393.776 76.9265C389.027 76.9164 385.155 80.8001 385.155 85.5739Z" fill="#E7422E"/>
<path d="M390.237 85.5738C390.237 83.6218 391.82 82.0238 393.776 82.0238C395.733 82.0238 397.316 83.6117 397.316 85.5738C397.316 87.5359 395.723 89.1238 393.776 89.1238C391.83 89.1238 390.237 87.5258 390.237 85.5738ZM391.014 85.5738C391.014 87.101 392.254 88.3551 393.776 88.3551C395.299 88.3551 396.549 87.1111 396.549 85.5738C396.549 84.0466 395.309 82.8026 393.776 82.8026C392.254 82.7925 391.014 84.0365 391.014 85.5738Z" fill="#E7422E"/>
<path d="M442.508 66.6811H447.721C447.933 66.6811 448.104 66.5092 448.104 66.2968C448.104 66.0844 447.933 65.9125 447.721 65.9125H442.508C442.296 65.9125 442.125 66.0844 442.125 66.2968C442.115 66.5092 442.286 66.6811 442.508 66.6811Z" fill="#AAB3BD"/>
<path d="M442.508 73.4574H447.691C447.902 73.4574 448.074 73.2854 448.074 73.0731C448.074 72.8607 447.902 72.6887 447.691 72.6887H442.498C442.286 72.6887 442.115 72.8607 442.115 73.0731C442.115 73.2854 442.286 73.4574 442.508 73.4574Z" fill="#AAB3BD"/>
<path d="M447.429 75.6319V63.7278C447.429 63.5154 447.6 63.3435 447.812 63.3435H449.617C449.829 63.3435 450 63.5154 450 63.7278V75.6218C450 75.8342 449.829 76.0061 449.617 76.0061H447.812C447.61 76.0162 447.429 75.8443 447.429 75.6319ZM449.234 64.1223H448.205V75.2476H449.234V64.1223Z" fill="#AAB3BD"/>
<path d="M9.00422 63.9907C8.93364 63.9097 8.89331 63.7985 8.90339 63.6973C9.88145 52.8755 13.7231 45.2293 21.0132 39.6364C35.8858 28.2076 45.848 20.7941 56.4251 12.9761C57.7965 11.9647 59.2988 10.9634 60.892 10.0026C60.9525 9.96214 61.0231 9.95203 61.0936 9.95203H92.311C92.5227 9.95203 92.6941 10.124 92.6941 10.3364V28.5819C92.6941 61.5633 63.9472 64.1221 55.1345 64.1221H9.28655C9.17563 64.1221 9.0748 64.0716 9.00422 63.9907ZM61.1945 10.7207C59.6517 11.6512 58.1998 12.6221 56.8789 13.593C46.3118 21.4212 36.3496 28.8246 21.477 40.2432C14.4693 45.6238 10.7284 52.9766 9.71004 63.3434H55.1244C63.7556 63.3434 91.9177 60.8351 91.9177 28.5819V10.7207H61.1945Z" fill="#CCCCCC"/>
<path d="M10.5469 41.3052C10.5469 41.1535 10.6376 41.022 10.7586 40.9614C11.2628 40.5163 11.7871 40.0814 12.382 39.6263C27.1235 28.2987 37.247 20.774 45.5656 14.6146C45.6361 14.5641 45.7168 14.5438 45.7975 14.5438C47.6729 14.5438 48.6107 14.8675 48.8426 15.5754C49.3367 17.0824 46.352 19.3682 38.941 24.8499L36.4908 26.6704C23.0802 36.6427 14.4894 41.6997 10.9502 41.6997C10.9401 41.6997 10.9401 41.6997 10.93 41.6997C10.7183 41.6997 10.5469 41.5176 10.5469 41.3052ZM12.8559 40.2433C12.6341 40.4152 12.4223 40.577 12.2207 40.749C16.2035 39.7881 24.1893 34.8526 36.037 26.0535L38.4872 24.233C43.8313 20.2784 48.4594 16.8599 48.1166 15.8182C48.0763 15.7069 47.804 15.3327 45.9286 15.3125C37.6201 21.4617 27.5269 28.9663 12.8559 40.2433Z" fill="#CCCCCC"/>
<path d="M404.303 68.2082V21.846C404.303 21.6336 404.475 21.4617 404.686 21.4617H428.271C428.483 21.4617 428.654 21.6336 428.654 21.846V68.2183C428.654 68.4307 428.483 68.6026 428.271 68.6026H404.686C404.485 68.6026 404.303 68.4307 404.303 68.2082ZM427.898 22.2303H405.08V67.8238H427.898V22.2303Z" fill="#CCCCCC"/>
<path d="M404.303 68.2082V21.846C404.303 21.6336 404.475 21.4617 404.686 21.4617H428.271C428.483 21.4617 428.654 21.6336 428.654 21.846V68.2183C428.654 68.4307 428.483 68.6026 428.271 68.6026H404.686C404.485 68.6026 404.303 68.4307 404.303 68.2082ZM427.898 22.2303H405.08V67.8238H427.898V22.2303Z" fill="#CCCCCC"/>
<path d="M97.9478 68.2082V21.846C97.9478 21.6336 98.1192 21.4617 98.3309 21.4617H121.915C122.127 21.4617 122.299 21.6336 122.299 21.846V68.2183C122.299 68.4307 122.127 68.6026 121.915 68.6026H98.3309C98.1192 68.6026 97.9478 68.4307 97.9478 68.2082ZM121.532 22.2303H98.7141V67.8238H121.532V22.2303Z" fill="#CCCCCC"/>
<path d="M52.0893 10.4376C52.0389 10.2656 52.1196 10.0937 52.2607 10.0027C63.1606 3.45896 77.0047 0 92.3109 0H442.417C442.629 0 442.8 0.171937 442.8 0.384329V10.3364C442.8 10.5488 442.629 10.7207 442.417 10.7207H52.4523C52.2809 10.7207 52.1296 10.5994 52.0893 10.4376ZM442.024 0.768657H92.3008C77.7105 0.768657 64.4714 3.93431 53.8841 9.94197H442.024V0.768657Z" fill="#CCCCCC"/>
<path d="M135.033 84.4612L130.667 73.2146H50.3148L45.9488 83.1161C45.8883 83.2577 45.7471 83.3487 45.5959 83.3487H11.6662C3.92233 83.3487 0 78.9492 0 70.2714C0 69.5837 0.0100831 68.8959 0.0302494 68.2082C0.0403325 67.9958 0.211746 67.834 0.413408 67.834H442.417C442.629 67.834 442.8 68.0059 442.8 68.2183V84.3298C442.8 84.5422 442.629 84.7141 442.417 84.7141H407.257C407.096 84.7141 406.955 84.613 406.894 84.4714L402.518 73.2247H322.176L317.8 84.4714C317.739 84.6231 317.598 84.7141 317.437 84.7141H135.396C135.235 84.7141 135.094 84.613 135.033 84.4612ZM321.561 72.6887C321.621 72.5369 321.763 72.4459 321.924 72.4459H402.791C402.952 72.4459 403.093 72.5471 403.154 72.6887L407.53 83.9353H442.034V68.6026H0.786484C0.7764 69.1589 0.766317 69.7152 0.766317 70.2714C0.766317 78.5547 4.32566 82.5801 11.6561 82.5801H45.3337L49.6997 72.6785C49.7602 72.537 49.9014 72.4459 50.0526 72.4459H130.919C131.081 72.4459 131.222 72.5471 131.282 72.6887L135.648 83.9353H317.185L321.561 72.6887Z" fill="#CCCCCC"/>
<path d="M126.049 50.2257V33.9423C126.049 33.7299 126.22 33.558 126.432 33.558H149.976C150.188 33.558 150.359 33.7299 150.359 33.9423V50.2257C150.359 50.4381 150.188 50.61 149.976 50.61H126.432C126.22 50.61 126.049 50.4381 126.049 50.2257ZM149.593 34.3368H126.815V49.8414H149.593V34.3368Z" fill="#CCCCCC"/>
<path d="M153.849 50.2257V33.9423C153.849 33.7299 154.02 33.558 154.232 33.558H177.776C177.988 33.558 178.159 33.7299 178.159 33.9423V50.2257C178.159 50.4381 177.988 50.61 177.776 50.61H154.232C154.02 50.61 153.849 50.4381 153.849 50.2257ZM177.393 34.3368H154.615V49.8414H177.393V34.3368Z" fill="#CCCCCC"/>
<path d="M181.647 50.2257V33.9423C181.647 33.7299 181.819 33.558 182.031 33.558H205.575C205.786 33.558 205.958 33.7299 205.958 33.9423V50.2257C205.958 50.4381 205.786 50.61 205.575 50.61H182.031C181.819 50.61 181.647 50.4381 181.647 50.2257ZM205.192 34.3368H182.414V49.8414H205.192V34.3368Z" fill="#CCCCCC"/>
<path d="M209.447 50.2257V33.9423C209.447 33.7299 209.618 33.558 209.83 33.558H233.374C233.586 33.558 233.757 33.7299 233.757 33.9423V50.2257C233.757 50.4381 233.586 50.61 233.374 50.61H209.83C209.618 50.61 209.447 50.4381 209.447 50.2257ZM232.991 34.3368H210.213V49.8414H232.991V34.3368Z" fill="#CCCCCC"/>
<path d="M237.246 50.2257V33.9423C237.246 33.7299 237.418 33.558 237.629 33.558H261.173C261.385 33.558 261.557 33.7299 261.557 33.9423V50.2257C261.557 50.4381 261.385 50.61 261.173 50.61H237.629C237.418 50.61 237.246 50.4381 237.246 50.2257ZM260.79 34.3368H238.012V49.8414H260.79V34.3368Z" fill="#CCCCCC"/>
<path d="M265.045 50.2257V33.9423C265.045 33.7299 265.216 33.558 265.428 33.558H288.972C289.184 33.558 289.355 33.7299 289.355 33.9423V50.2257C289.355 50.4381 289.184 50.61 288.972 50.61H265.428C265.216 50.61 265.045 50.4381 265.045 50.2257ZM288.589 34.3368H265.811V49.8414H288.589V34.3368Z" fill="#CCCCCC"/>
<path d="M292.844 50.2257V33.9423C292.844 33.7299 293.016 33.558 293.227 33.558H316.772C316.983 33.558 317.155 33.7299 317.155 33.9423V50.2257C317.155 50.4381 316.983 50.61 316.772 50.61H293.227C293.016 50.61 292.844 50.4381 292.844 50.2257ZM316.388 34.3368H293.621V49.8414H316.398V34.3368H316.388Z" fill="#CCCCCC"/>
<path d="M320.644 50.2257V33.9423C320.644 33.7299 320.815 33.558 321.027 33.558H344.571C344.783 33.558 344.954 33.7299 344.954 33.9423V50.2257C344.954 50.4381 344.783 50.61 344.571 50.61H321.027C320.815 50.61 320.644 50.4381 320.644 50.2257ZM344.188 34.3368H321.41V49.8414H344.188V34.3368Z" fill="#CCCCCC"/>
<path d="M348.442 50.2257V33.9423C348.442 33.7299 348.614 33.558 348.826 33.558H372.37C372.581 33.558 372.753 33.7299 372.753 33.9423V50.2257C372.753 50.4381 372.581 50.61 372.37 50.61H348.826C348.614 50.61 348.442 50.4381 348.442 50.2257ZM371.986 34.3368H349.209V49.8414H371.986V34.3368Z" fill="#CCCCCC"/>
<path d="M376.242 50.2257V33.9423C376.242 33.7299 376.413 33.558 376.625 33.558H400.169C400.381 33.558 400.552 33.7299 400.552 33.9423V50.2257C400.552 50.4381 400.381 50.61 400.169 50.61H376.625C376.413 50.61 376.242 50.4381 376.242 50.2257ZM399.786 34.3368H377.008V49.8414H399.786V34.3368Z" fill="#CCCCCC"/>
<path d="M407.045 50.2257V33.9423C407.045 33.7299 407.217 33.558 407.429 33.558H425.538C425.75 33.558 425.921 33.7299 425.921 33.9423V50.2257C425.921 50.4381 425.75 50.61 425.538 50.61H407.429C407.217 50.61 407.045 50.4381 407.045 50.2257ZM425.155 34.3368H407.812V49.8414H425.155V34.3368Z" fill="#CCCCCC"/>
<path d="M100.68 50.2257V33.9423C100.68 33.7299 100.852 33.558 101.063 33.558H119.173C119.384 33.558 119.556 33.7299 119.556 33.9423V50.2257C119.556 50.4381 119.384 50.61 119.173 50.61H101.063C100.852 50.61 100.68 50.4381 100.68 50.2257ZM118.789 34.3368H101.446V49.8414H118.789V34.3368Z" fill="#CCCCCC"/>
<path d="M128.469 8.46531H162.6C162.812 8.46531 162.983 8.29338 162.983 8.08098C162.983 7.86859 162.812 7.69666 162.6 7.69666H128.469C128.257 7.69666 128.085 7.86859 128.085 8.08098C128.085 8.29338 128.257 8.46531 128.469 8.46531Z" fill="#CCCCCC"/>
<path d="M128.469 6.70555H162.6C162.812 6.70555 162.983 6.53361 162.983 6.32122C162.983 6.10883 162.812 5.93689 162.6 5.93689H128.469C128.257 5.93689 128.085 6.10883 128.085 6.32122C128.085 6.53361 128.257 6.70555 128.469 6.70555Z" fill="#CCCCCC"/>
<path d="M128.469 4.94566H162.6C162.812 4.94566 162.984 4.77372 162.984 4.56133C162.984 4.34894 162.812 4.177 162.6 4.177H128.469C128.257 4.177 128.086 4.34894 128.086 4.56133C128.086 4.77372 128.257 4.94566 128.469 4.94566Z" fill="#CCCCCC"/>
<path d="M170.747 8.46531H204.879C205.091 8.46531 205.262 8.29338 205.262 8.08098C205.262 7.86859 205.091 7.69666 204.879 7.69666H170.747C170.536 7.69666 170.364 7.86859 170.364 8.08098C170.364 8.29338 170.536 8.46531 170.747 8.46531Z" fill="#CCCCCC"/>
<path d="M170.747 6.70555H204.879C205.091 6.70555 205.262 6.53361 205.262 6.32122C205.262 6.10883 205.091 5.93689 204.879 5.93689H170.747C170.536 5.93689 170.364 6.10883 170.364 6.32122C170.364 6.53361 170.536 6.70555 170.747 6.70555Z" fill="#CCCCCC"/>
<path d="M170.747 4.94566H204.879C205.091 4.94566 205.262 4.77372 205.262 4.56133C205.262 4.34894 205.091 4.177 204.879 4.177H170.747C170.536 4.177 170.364 4.34894 170.364 4.56133C170.364 4.77372 170.536 4.94566 170.747 4.94566Z" fill="#CCCCCC"/>
<path d="M213.036 8.46531H247.167C247.379 8.46531 247.55 8.29338 247.55 8.08098C247.55 7.86859 247.379 7.69666 247.167 7.69666H213.036C212.824 7.69666 212.653 7.86859 212.653 8.08098C212.643 8.29338 212.824 8.46531 213.036 8.46531Z" fill="#CCCCCC"/>
<path d="M213.036 6.70555H247.167C247.379 6.70555 247.551 6.53361 247.551 6.32122C247.551 6.10883 247.379 5.93689 247.167 5.93689H213.036C212.824 5.93689 212.653 6.10883 212.653 6.32122C212.653 6.53361 212.824 6.70555 213.036 6.70555Z" fill="#CCCCCC"/>
<path d="M213.036 4.94566H247.167C247.379 4.94566 247.55 4.77372 247.55 4.56133C247.55 4.34894 247.379 4.177 247.167 4.177H213.036C212.824 4.177 212.653 4.34894 212.653 4.56133C212.643 4.77372 212.824 4.94566 213.036 4.94566Z" fill="#CCCCCC"/>
<path d="M419.075 8.46531H429.622C429.834 8.46531 430.005 8.29338 430.005 8.08098C430.005 7.86859 429.834 7.69666 429.622 7.69666H419.075C418.863 7.69666 418.692 7.86859 418.692 8.08098C418.692 8.29338 418.863 8.46531 419.075 8.46531Z" fill="#CCCCCC"/>
<path d="M419.075 6.70555H429.622C429.834 6.70555 430.005 6.53361 430.005 6.32122C430.005 6.10883 429.834 5.93689 429.622 5.93689H419.075C418.863 5.93689 418.692 6.10883 418.692 6.32122C418.692 6.53361 418.863 6.70555 419.075 6.70555Z" fill="#CCCCCC"/>
<path d="M419.075 4.94566H429.622C429.834 4.94566 430.005 4.77372 430.005 4.56133C430.005 4.34894 429.834 4.177 429.622 4.177H419.075C418.863 4.177 418.692 4.34894 418.692 4.56133C418.692 4.77372 418.863 4.94566 419.075 4.94566Z" fill="#CCCCCC"/>
<path d="M419.075 3.07469H429.622C429.834 3.07469 430.005 2.90275 430.005 2.69036C430.005 2.47797 429.834 2.30603 429.622 2.30603H419.075C418.863 2.30603 418.692 2.47797 418.692 2.69036C418.692 2.90275 418.863 3.07469 419.075 3.07469Z" fill="#CCCCCC"/>
<path d="M49.1652 22.908C49.0745 22.635 49.1148 22.1899 49.8206 21.664L57.625 15.7777C58.5425 15.09 60.1558 14.5438 61.3053 14.5438H69.9062C71.1767 14.5438 72.2051 15.5754 72.2051 16.8498V21.1988C72.2051 22.4731 71.1767 23.5047 69.9062 23.5047H50.4458C49.5484 23.5149 49.256 23.1811 49.1652 22.908ZM61.3053 15.3125C60.3373 15.3125 58.8652 15.8081 58.0888 16.3846L50.2844 22.2708C50.0021 22.4832 49.9315 22.6248 49.9013 22.635C49.9416 22.6653 50.0828 22.726 50.4357 22.726H69.8961C70.7431 22.726 71.4287 22.0382 71.4287 21.1887V16.8397C71.4287 15.9901 70.7431 15.3024 69.8961 15.3024H61.3053V15.3125Z" fill="#AAB3BD"/>
<path d="M2.68199 54.1095C2.47024 54.1095 2.29883 53.9375 2.29883 53.7251C2.29883 53.6341 2.32908 53.5532 2.37949 53.4925C3.36764 50.6707 4.70869 48.0816 6.36233 45.7857C6.43291 45.6846 6.55391 45.6239 6.68499 45.6239C7.73363 45.6239 8.42937 45.9071 8.74194 46.4735C9.13519 47.1814 8.88311 48.2535 7.96554 49.7403C6.71524 51.7732 4.99102 54.0994 2.70215 54.1095C2.69207 54.1095 2.68199 54.1095 2.68199 54.1095ZM3.26681 53.2599C4.94061 52.8655 6.35224 50.8629 7.30006 49.3256C8.27812 47.7377 8.18737 47.0904 8.05629 46.8477C7.8748 46.5139 7.34039 46.4128 6.86648 46.3926C5.39435 48.4558 4.18437 50.7618 3.26681 53.2599Z" fill="#CCCCCC"/>
</svg>
