<svg width="167" height="340" viewBox="0 0 167 340" fill="none" xmlns="http://www.w3.org/2000/svg">
<path d="M165.34 146.25C164.94 146.04 164.56 145.86 164.19 145.7C164.08 141.9 163.79 138.46 163.23 136.12C161.21 127.65 165.94 128.26 163.14 121.93C160.34 115.6 166.48 117.52 163.42 110.51C160.36 103.5 158.34 99.2099 156.64 92.5699C154.94 85.9299 154.27 81.7899 152.28 77.9699C150.29 74.1499 154.09 74.3599 147.79 68.9799C147.95 68.4399 147.94 68.0499 147.94 68.0499C147.94 68.0499 134.78 56.9199 131.1 54.2199C131.61 54.6999 132.12 55.5199 132.05 56.8699C132 56.8299 131.95 56.7799 131.91 56.7399C128.62 53.6999 128.26 51.3999 124.5 47.9199C120.74 44.4499 119.48 41.9699 119.48 41.9699C119.48 41.9699 120.45 39.1099 120.98 36.5199C121.51 33.9199 120.61 33.7499 120.72 31.6499C120.76 30.9599 120.75 30.3899 120.72 29.9199C123.27 30.1999 124.06 31.4299 124.06 31.4299C124.06 31.4299 124.88 29.9799 124.97 27.6499C125.07 25.3199 125.34 22.0399 125.33 17.6199C125.31 13.1999 123.03 8.2299 116.02 2.6399C109.01 -2.9401 99.4 1.4199 92.93 5.8099C86.45 10.1899 84.65 18.2299 84.65 18.2299C84.65 18.2299 84.48 19.1699 83.85 19.9099C83.22 20.6499 80.19 22.7099 80.19 22.7099C80.19 22.7099 81.36 23.5599 83.62 24.1099C84.51 24.3299 85.02 24.5699 85.5 24.8199C85.15 25.7399 84.7 27.1599 84.13 29.4199C82.48 36.0499 81.9 37.9499 82.23 39.7899C82.55 41.6299 82.16 42.5899 81.72 42.8499C81.29 43.1099 77.65 46.1499 73.98 48.7199C71.8101 50.2399 70.25 51.1399 69.2 51.8399C68.89 50.9699 68.52 50.4099 68.52 50.4099L66.35 51.7199C66.35 51.7199 64.53 51.1399 59.17 55.4499C53.81 59.7599 51.92 61.9799 51.92 61.9799C51.92 61.9799 52.6 62.0099 53.23 63.1899C52.3 64.4599 53.54 61.5799 48.59 67.3899C43.54 73.3099 42.73 74.7599 42.32 75.4899C41.91 76.2099 34.66 82.7499 30.98 85.0899C27.3 87.4299 33.53 86.7799 27.73 91.1299C21.92 95.4699 22.12 94.9899 17.88 99.4599C13.28 104.32 12.87 104.11 12.35 104.72C11.51 105.71 10.45 106.71 10.45 106.71C10.45 106.71 8.43004 106.61 6.24004 107.46C4.05004 108.3 5.81004 107.72 3.70004 110.19C1.59004 112.66 1.75004 115.44 1.75004 115.44C1.75004 115.44 0.200043 115.78 0.750043 117.6C1.30004 119.43 -0.959957 119.11 0.500043 121.34C1.96004 123.57 5.19004 125.45 6.99004 125.56C8.78004 125.68 11 125.3 10.05 124.19C9.10004 123.09 11.37 123.64 12.7 123.55C14.03 123.46 12.31 124.74 16.35 124.94C20.39 125.14 18.67 126.42 24.18 124.89C28.77 123.61 31.51 122.46 33.67 121.21C32.3 123.09 30.48 125.81 26.24 129.1C20.66 133.43 20.05 134.63 19.1 137.72C18.15 140.81 22.67 137.49 26.42 136.54C30.17 135.59 31.6 137.13 41.23 141.61C46.89 144.24 49.09 145.82 49.95 146.67C50.12 148.13 50.16 149.74 49.83 152.51C48.9 160.25 50.51 165.27 50.33 165.97C50.14 166.68 56.41 170.92 56.41 170.92C56.41 170.92 56.83 183 55.14 188.93C53.45 194.86 57.09 187.64 54.14 199.47C51.2 211.3 49.65 211.64 52.76 219.58C55.87 227.52 52.71 227.03 54.71 230.85C56.7 234.67 49.98 234.42 54.49 239.24C59 244.06 55.17 243.62 58.07 247.61C60.97 251.61 59.68 252.63 62.14 256.65C64.59 260.68 64.22 262.1 67.39 262.82C70.56 263.54 66.99 263.78 69.34 270.14C71.69 276.5 72.04 274.62 70 282.43C67.96 290.25 66.53 296.86 68.9 303.68C71.28 310.5 73.8 311.74 78.88 310.47C83.96 309.2 85.58 306.07 86.22 301.37C86.87 296.67 86.39 292.05 86.15 287.41C85.9 282.77 85.79 280.69 88.04 276.81C90.3 272.94 91.0201 269.86 89.97 266.91C88.92 263.95 87.94 262.39 87.94 262.39C87.94 262.39 89.63 260.41 88.84 258.37C88.06 256.33 88.7701 256.98 89.01 253.24C89.26 249.5 93.34 246.43 91.53 241.9C89.72 237.37 89.46 236.69 91.21 231.68C92.95 226.68 94.85 228.65 93.58 221.75C92.32 214.85 95.68 210.91 93.74 208.01C92.35 205.95 94.26 203.91 95.14 202.75C95.39 203.82 96.11 205.85 97.16 209.18C99.04 215.11 94.32 214.72 95.68 219.05C97.03 223.39 95.01 223.28 96.64 228.53C98.26 233.77 94.3 230.78 95.78 237.66C97.27 244.54 92.56 244.39 95.13 250.5C97.69 256.61 94.67 254.49 96.78 260.4C98.89 266.31 98.25 267.05 97.63 268.02C97.02 268.99 95.58 267.22 95.38 271.9C95.18 276.56 97.2401 289.93 98.08 301.5C98.93 313.08 98.01 316.87 99.08 320.05C100.14 323.24 100.85 323.89 99.84 326.06C98.84 328.22 93.75 337.63 106.36 339.12C118.97 340.61 120.4 338.18 121.14 335.34C121.88 332.5 116.42 326.58 117.86 319.97C119.29 313.36 117.93 300.42 120.26 289.79C122.6 279.16 123.04 274.94 123.04 274.94C123.04 274.94 128.47 276.21 127.8 272.06C127.13 267.92 124.76 261.33 128.58 257.35C132.39 253.37 132.9 246.12 129.89 244.23C126.88 242.34 125.99 238.21 130.32 231.4C134.65 224.6 135.17 217.58 134.9 208.29C134.62 199 132.94 192.59 133.21 189.32C133.48 186.04 133.16 180.01 133.16 180.01L139.7 177.02C139.7 177.02 139.6 179.35 139.05 185.67C138.49 191.99 137.74 194.6 140.15 193.74C142.56 192.88 142.94 191.46 143.5 189.56C144.07 187.66 145.05 185.03 145.05 185.03C145.05 185.03 146.33 184.01 145.43 188.03C144.53 192.04 144.81 193.19 143.32 194.45C141.83 195.71 139.7 197.95 139.98 198.86C140.25 199.78 139.02 201.95 141.02 201.59C143.01 201.22 143.73 202.11 146.52 199.83C149.3 197.55 150.06 199.13 151.94 196.68C153.82 194.22 154.78 195.56 155.96 192.46C157.14 189.35 158.61 187.63 157.8 185.12C157 182.61 157.12 180.74 157 178.43C156.88 176.11 158.01 172.31 158.01 172.31C158.01 172.31 161.39 172.78 162.59 170.15C163.1 169.02 163.66 164.2 163.98 158.39C164.42 157.87 164.72 156.85 164.9 154.9C165.48 148.8 167.64 147.49 165.34 146.25Z" fill="#E7422E"/>
</svg>
