<svg width="450" height="150" viewBox="0 0 450 150" fill="none" xmlns="http://www.w3.org/2000/svg">
<g clip-path="url(#clip0)">
<path d="M115.08 25.94C115.01 25.93 114.91 25.96 114.75 26C114.24 26.19 113.49 26.57 113.36 26.66C113.25 26.74 111.92 27.85 111.91 27.86C111.83 27.92 111.76 28 111.79 28.03C111.8 28.04 112.43 28.31 114.34 26.97C115.41 26.25 115.29 25.98 115.08 25.94Z" fill="#E8E8E8"/>
<path d="M111.99 24.73C111.94 24.69 111.89 24.74 111.84 24.76C111.51 24.88 110.8 25.22 110.67 25.3C110.53 25.39 110.39 25.54 110.44 25.57C110.5 25.61 110.82 25.5 111.11 25.35C111.25 25.28 111.96 24.83 111.99 24.73Z" fill="#E8E8E8"/>
<path d="M117.6 22.22C118.15 22.09 118.15 22.09 118.71 21.86C118.76 21.84 119.26 21.63 120.06 21.21C120.07 21.2 120.98 20.72 121.13 20.61C121.07 20.59 121.07 20.59 120.92 20.64C120.88 20.65 117.5 21.87 114.4 23.52L116.12 22.84C116.62 22.64 117.07 22.33 117.6 22.22Z" fill="#E8E8E8"/>
<path d="M113.99 24.27C113.97 24.26 113.95 24.25 113.93 24.25C114 24.18 114.04 24.15 115.3 23.62C115.73 23.44 116.33 23.19 116.64 23.02C116.69 22.99 116.77 22.95 116.82 22.9C116.74 22.91 116.63 22.93 116.55 22.95C112.85 24.15 109.96 26.07 109.47 26.5C109.76 26.56 113.72 24.63 113.94 24.46C113.94 24.4 113.98 24.34 113.99 24.27Z" fill="#E8E8E8"/>
<path d="M117.75 23.92C117.83 23.87 117.91 23.82 117.97 23.76C118.1 23.65 118.2 23.52 118.32 23.4C118.54 23.2 118.78 23.01 119 22.81C119.13 22.69 119.13 22.66 119.13 22.65C119.11 22.63 119.1 22.63 119.01 22.65C118.26 22.9 116.96 23.86 116.87 23.97C116.87 23.98 116.88 23.98 116.88 23.99C117 24.05 117 24.05 116.67 24.52C116.78 24.5 117.75 23.92 117.75 23.92Z" fill="#E8E8E8"/>
<path d="M108.48 30.74C108.4 30.73 108.32 30.76 108.25 30.78C107.91 30.88 107.62 31.02 107.62 31.02C106.74 31.46 105.71 32.23 105.65 32.32C105.65 32.32 105.66 32.33 105.66 32.34C105.82 32.33 107.48 31.67 108.18 31.17C108.43 31 108.67 30.77 108.48 30.74Z" fill="#E8E8E8"/>
<path d="M110.15 34.56C110.06 34.5 109.97 34.43 109.48 34.5C109.4 34.51 109.29 34.53 109.2 34.55C108.4 34.71 107.59 34.87 106.79 35.04C105.8 35.26 102.6 36.78 102.16 37.39C102.16 37.41 102.17 37.44 102.18 37.46C102.44 37.54 102.73 37.41 102.98 37.58C103.37 37.85 103.26 38.02 103.17 38.15C103.03 38.38 100.9 39.96 100.33 40.26C100.09 40.39 100.06 40.38 99.93 40.38C99.77 39.76 100.52 39.55 100.54 39.01C100.14 39.07 98.17 40.13 97.94 40.67C97.91 40.73 97.88 40.82 97.9 40.88C98.02 41.34 98.28 41.75 98.36 42.23C98.4 42.41 98.52 42.58 98.51 42.78C98.51 43.13 98.29 43.44 98.34 43.8C98.35 43.86 98.37 43.94 98.42 43.98C99.02 44.61 104.4 41.45 105.87 39.98C106.19 39.65 107.13 37.78 106.51 37.8C105.83 37.82 105.24 38.15 104.6 38.3C105.86 37.45 107.27 36.87 108.53 36.02C108.55 36.01 110.14 34.66 110.15 34.56Z" fill="#E8E8E8"/>
<path d="M94.7099 34.33C97.0499 33.28 99.0299 31.62 101.32 30.5C98.9999 31.96 98.9999 31.96 98.8899 32.09L106.74 27.61C106.9 27.52 107.13 27.39 107.36 27.09C107.27 27.07 107.15 27.11 107.06 27.14C105.38 27.89 94.2699 33.87 91.8999 35.81C93.0799 35.66 93.8199 34.7 94.8299 34.21C94.7999 34.25 94.7499 34.3 94.7099 34.33Z" fill="#E8E8E8"/>
<path d="M94.7297 50.9C94.6997 50.9 94.6497 50.91 94.6197 50.92C94.4997 50.97 94.3497 51.03 94.0897 51.24C93.0697 52.03 92.3097 53.1 91.1997 53.78C89.3597 54.91 88.7997 55.25 88.7197 55.52C88.7397 55.53 88.7497 55.55 88.7597 55.56C88.8997 55.58 89.0397 55.55 89.4897 55.46C90.1897 55.31 90.2797 55.32 90.4097 55.41C90.6597 55.58 90.5997 55.97 90.9197 56.09C91.0197 56.13 91.5297 56.07 92.0297 55.98C95.2097 55.39 96.5397 54.08 96.5497 54.07C96.9097 53.64 96.0197 52 96.0197 51.99C95.6297 51.3 94.8397 50.9 94.7297 50.9Z" fill="#E8E8E8"/>
<path d="M99.1997 37.45C99.1297 37.44 98.9797 37.45 98.6497 37.53C96.9397 37.99 95.7197 39.05 95.6597 39.2C95.6697 39.21 95.6797 39.22 95.6897 39.22C95.8597 39.22 96.0297 39.14 96.1997 39.21C96.2397 39.33 96.2497 39.35 96.0797 39.69C95.9797 39.9 95.7197 40.45 96.0697 40.35C96.6497 40.18 98.3397 38.68 98.5297 38.51C99.3397 37.8 99.5397 37.48 99.1997 37.45Z" fill="#E8E8E8"/>
<path d="M175.11 6.56001C173.97 7.96001 170.99 8.77001 169.39 9.20001C169.32 9.22001 161.22 11.57 160.87 12.04C158.64 15.05 164.25 16.01 164.32 16C178.25 14.98 178.43 15.13 179.41 15.98C179.48 16.04 185.96 23.25 183.85 27.16C183 28.75 183 28.81 183.05 29.03C183.2 29.87 184.21 29.93 184.5 30.64C184.94 31.73 184.5 32.98 185.1 34.03C186.94 33.6 188.41 31.68 190.6 32.66C194.34 34.32 192.61 37.33 192.58 37.36C191.05 39.18 188.26 39.1 186.88 41.14C186.12 42.26 185.38 45.36 185.95 47.17C186.22 48.03 197.1 66.47 202.32 68.24C199.7 29.89 197.78 12.44 195.14 4.16001C197.52 11.45 199.44 25.75 202.32 68.24C215.36 70.75 215.64 70.43 216.47 69.5C217.85 67.95 220.21 56.03 220.23 55.91C220.57 54.15 219.65 52.3 220.65 50.6C221.18 49.72 221.24 49.7 224.5 48.71C234.77 45.6 234.77 45.6 235.04 43.65C235.31 41.64 235.47 40.53 237.32 39.59C241.8 37.32 246.96 36.99 251.43 34.69C253.26 33.74 255.26 33.14 256.96 31.94C257 31.91 257.84 31.3 256.79 29.95C255.26 27.98 252.94 26.84 251.47 24.81C250.53 23.51 250.57 21.87 249.92 20.48C249.17 18.85 249.5 18.4 250.42 17.48C251.69 16.19 250.81 15.67 248.2 14.13C239.67 9.09001 239.6 8.97001 238.87 7.84001C238.92 7.73001 238.97 7.59001 239.02 7.48001C239.15 7.43001 239.33 7.37001 239.46 7.31001C236.97 4.87001 231.91 6.80001 230.7 2.17001C230.44 2.04001 230.1 1.87001 229.85 1.75001C229.89 1.54001 229.96 1.24001 230.03 1.04001C230.14 1.01001 230.28 0.98001 230.37 0.95001C229.25 0.80001 226.02 0.59001 225.99 0.59001C223.83 0.47001 221.1 0.93001 220.58 1.03001C218.71 1.37001 217.13 0.14001 215.33 0.0800098C212.81 -0.00999024 207.25 -0.0199902 205.04 0.0900098C200.97 0.32001 200.97 0.32001 200.5 0.63001C200.5 0.63001 200.49 0.63001 200.48 0.63001C196.05 0.87001 196.05 0.87001 193.93 1.28001H193.92C193.88 1.29001 193.82 1.25001 193.8 1.31001C193.81 1.33001 193.83 1.32001 193.84 1.32001C193.88 1.33001 193.94 1.33001 193.98 1.34001C196.57 1.53001 196.57 1.53001 197.35 1.73001C197.13 1.75001 197.13 1.75001 194.24 1.71001C193.05 1.70001 192.61 1.69001 191.2 1.82001C180.81 2.98001 173.34 6.34001 173.26 6.37001C173.62 6.56001 173.62 6.56001 175.11 6.56001Z" fill="#E8E8E8"/>
<path d="M135.77 50.55C136.3 49.13 136.07 48.5 135.07 48.65C135.04 48.66 132.08 49.44 131.53 50.77C131.22 51.53 132.46 53.51 132.95 53.82C134.16 54.59 135.76 50.59 135.77 50.55Z" fill="#E8E8E8"/>
<path d="M156.89 8.50999C156.23 8.77999 155.56 9.01999 154.88 9.26999C157.02 8.76999 163.91 6.87999 165.02 6.55999C160.41 8.08999 156.76 9.29999 152.87 10.13C151.96 10.32 151.69 10.54 151.34 10.81C151.34 11.08 150.97 12.4 150.31 13C148.25 12.38 142.91 15.47 142.7 15.65C143.17 15.86 143.73 15.77 144.18 16.05C144.16 16.12 144.12 16.21 144.11 16.28C144.8 16.19 145.06 16.16 147.34 15.31C143.41 17.45 142.95 16.94 142.65 16.61C139.67 16.68 139.5 17.81 139.42 18.36C137.73 19.48 135.53 19.59 134.03 21.07C134.07 21.14 134.13 21.22 134.17 21.28C134.64 21.31 134.98 21.32 138.09 20.71C140.38 20.26 142.41 18.63 144.93 19.18C144.74 19.62 144.74 19.62 144.22 20.02C145.9 20.35 151.26 17.75 150.77 16.43C150.59 16.38 150.35 16.32 150.17 16.28C150.57 15.72 154.11 13.47 154.92 13.28C159.71 12.13 161.39 10.33 161.43 9.91999C161.36 9.89999 161.26 9.85999 161.18 9.83999C165.62 8.67999 167.64 8.14999 169.02 7.23999C168.66 7.20999 168.66 7.20999 167.89 7.34999C167.94 7.32999 177.93 4.21999 178.45 4.06999C175.86 4.43999 175.71 4.45999 174.73 4.52999C177.21 3.86999 179.76 3.48999 182.25 2.85999C179.84 2.86999 175.83 3.35999 175.8 3.36999C175.7 3.37999 166.07 5.02999 163.99 5.82999C164.07 5.94999 164.24 6.07999 164.38 6.13999C163.98 6.25999 163.63 6.36999 162.62 6.23999C161.92 6.14999 153.63 8.16999 152.78 9.19999C153.19 9.39999 153.3 9.44999 156.89 8.50999Z" fill="#E8E8E8"/>
<path d="M118.14 25.2001C117.95 25.4701 117.83 25.7801 117.62 26.0301C117.32 26.3801 117.28 26.4101 116.25 27.2101C116.35 26.9601 116.49 26.6201 116.59 26.3601C116.63 26.2301 116.71 26.1101 116.71 25.9601C116.63 25.9201 115.78 26.0101 114.92 26.9101C115.01 26.9101 115.12 26.9001 115.21 26.9001C115.21 26.9301 115.21 26.9701 115.2 26.9901C114.2 27.8301 112.87 27.9701 111.77 28.6001C111.94 28.6901 112.11 28.4901 112.29 28.6001C112.15 28.8901 112.15 28.8901 112.16 28.9401C112.35 29.0001 112.35 29.0001 115.55 27.9501C114.54 28.5101 111.85 30.0001 111.64 30.6601C111.65 30.6801 111.67 30.6901 111.67 30.7001C111.68 30.7101 115.3 29.3601 115.75 29.1101C116.06 28.9401 116.06 28.9401 118.1 27.1501C118.11 27.1801 118.16 27.2701 118.09 27.4601C118.09 27.4801 118.07 27.5001 118.06 27.5101C119 26.6201 119 26.6201 121.46 24.5801C121.99 24.1401 122.03 24.1101 122.11 23.9701C121.95 23.9301 121.95 23.9301 121.75 23.9701C121.72 23.9801 118.54 24.9201 118.22 25.1101C118.2 25.1501 118.16 25.1801 118.14 25.2001Z" fill="#E8E8E8"/>
<path d="M153.08 50.7801C154.57 50.6601 157.85 54.7901 157.88 54.8301C158.66 55.8501 159.47 56.9001 160.21 56.7601C162.26 56.3701 165.33 48.5301 165.36 48.4501C165.44 48.2101 165.51 47.8701 165.49 47.6201L150.48 44.2201C150.9 43.8901 151.3 43.5801 154.91 41.9801C156.49 41.2801 157.28 40.9301 157.23 40.5201C157.11 39.4501 151.84 34.4501 149.28 34.0301C148.14 33.8501 146.94 34.1901 145.84 33.6501C144.67 33.0801 144.82 31.1801 143.22 31.0601C141.75 30.9401 138.59 32.1301 136.29 33.0001C133.95 33.8801 133.93 33.8801 133.56 33.8601C133.41 33.4801 133.24 33.0901 133.1 29.6801C132.15 29.3001 129.19 29.8101 128.3 29.9701C123.78 31.0301 110.32 42.3301 112.85 44.0501C115.36 45.7701 124 44.0001 125.16 43.4401C124.99 42.7201 124.88 42.2401 128.64 41.8301C131.84 41.4801 132.31 40.7101 132.63 40.1901C133.41 40.6001 135.46 42.3801 135.48 42.4001C136.58 43.5801 137.04 45.1701 138.07 46.4001C139.36 47.9501 142.34 47.7801 142.37 50.6201C142.37 50.6801 141.72 57.0601 132.85 59.7201C130.19 60.5101 127.31 60.3601 124.79 61.7101C123.67 62.3001 123.64 64.1801 123.96 64.4601C124.45 64.9001 126.02 65.0901 130.68 63.5101C134.25 62.3001 134.25 62.3001 140.59 65.0901C140.08 65.6301 140.08 65.6301 137.52 66.5901C138.92 67.8301 149.76 70.0801 151.97 68.8601C151.88 68.5201 151.88 68.5201 151.32 68.2501C151.03 68.1101 151.03 68.1101 146.21 63.6201C149.97 64.0301 151.16 64.5101 153.3 65.9601C153.72 66.2501 154.01 66.4501 154.22 66.3901C155.43 66.0201 157.44 61.4601 156.47 60.4501C154.37 58.2601 150.45 58.5501 149.25 55.1301C148.26 52.3001 153.03 50.7901 153.08 50.7801Z" fill="#E8E8E8"/>
<path d="M104.05 29.39C104.18 29.49 105.03 29.09 105.71 28.66C105.85 28.57 106.08 28.42 106.13 28.36C106.13 28.36 106.12 28.35 106.11 28.35C106.07 28.35 106.04 28.36 106.01 28.38C105.69 28.5 104.07 29.26 104.05 29.39Z" fill="#E8E8E8"/>
<path d="M187.06 37.85L189.35 37.39C189.35 37.39 189.95 37.13 190.1 36.69C190.19 36.41 190.09 36.23 189.99 36.08C189.79 35.74 189.37 35.63 189.13 35.32C188.98 35.13 188.97 34.95 188.97 34.85C188.97 34.82 188.96 34.78 188.93 34.76C188.93 34.76 188.64 34.56 187.83 34.66C186.8 34.88 183.87 36.59 185.47 37.57C185.82 37.78 186.43 37.97 187.06 37.85Z" fill="#E8E8E8"/>
<path d="M142.13 29.93C142.15 29.92 142.16 29.9 142.18 29.89C141.94 29.52 138.75 28.58 136.39 28.94C134.32 29.29 134.97 30.68 135.45 31.08C137.03 32.35 142.08 29.95 142.13 29.93Z" fill="#E8E8E8"/>
<path d="M126.03 19.18C125.38 19.43 124.3 19.88 124.07 20.05C124.18 20.04 124.27 20 124.37 19.98C125.39 19.65 126.39 19.73 126.39 19.74C126.3 20.1 125.8 20.09 125.72 20.46C125.85 20.63 127.58 19.93 127.7 19.87C128.32 19.54 130.33 17.79 130.33 17.44C130.06 17.35 129.85 17.58 129.59 17.58C129.82 17.14 130.38 17.16 130.66 16.8C130.61 16.79 130.61 16.79 130.48 16.83C128.67 17.42 126.28 18.52 125.98 18.72C126.38 18.84 126.74 18.54 127.13 18.58C127.2 18.7 126.99 18.82 126.03 19.18Z" fill="#E8E8E8"/>
<path d="M117.34 28.76C116.9 29.07 116.76 29.17 117.43 29.59C118 29.95 119.45 29.62 120.69 28.57C121.4 27.96 122.85 26.47 122.19 26.41C122.11 26.41 121.99 26.43 121.91 26.45C120.75 26.75 117.53 28.62 117.34 28.76Z" fill="#E8E8E8"/>
<path d="M137.03 17.9701C137.02 17.9601 137 17.9401 137 17.9301C136.95 17.9301 136.88 17.9501 136.84 17.9601C136.79 17.9801 136.74 17.9901 136.7 18.0001C135.77 18.2801 134.87 18.6401 133.95 18.9201C132.88 19.2401 131.78 19.4601 130.71 19.7901C129.95 20.0301 129.48 20.1901 129.32 20.2901C129.61 20.3601 132.72 19.8401 134.39 19.3801C135.22 19.1401 135.62 18.9901 136.75 18.2001C136.85 18.1301 136.95 18.0601 137.03 17.9701Z" fill="#E8E8E8"/>
<path d="M129.31 19.6001C129.32 19.6101 129.33 19.6201 129.34 19.6301C129.68 19.5901 132.88 18.2501 133.79 17.8201C134.2 17.6301 134.28 17.5501 134.29 17.3801C134.29 17.1801 133.99 17.2701 133.98 17.0801C133.98 16.9901 134.04 16.8901 133.98 16.8001C133.98 16.7901 133.98 16.7701 133.96 16.7601C133.96 16.7601 133.92 16.7001 133.83 16.6701C133.67 16.6201 133.6 16.6401 133.4 16.7001C133.28 16.7501 133.11 16.8301 132.91 16.9701C132.21 17.4601 131.75 18.2601 130.91 18.5701C129.86 18.9701 129.51 19.1001 129.31 19.6001Z" fill="#E8E8E8"/>
<path d="M136.72 14.79C138.98 13.66 138.99 13.64 139.02 13.58C138.94 13.57 138.86 13.6 138.79 13.62C138.77 13.63 136.51 14.35 135.86 14.67C135.1 15.05 135.36 15.3 135.36 15.3C135.51 15.38 136.04 15.13 136.72 14.79Z" fill="#E8E8E8"/>
<path d="M141.59 13.7501C142.56 13.4601 142.86 13.3801 143.18 13.5101C143.18 13.5401 143.17 13.59 143.15 13.62C142.87 13.7901 142.55 13.9001 141.59 14.2101C138.98 15.0401 138.32 15.34 138.15 15.44C137.57 15.81 137.51 16.5001 137.76 16.6101C137.83 16.6401 137.83 16.64 139.5 16.16C140.16 15.97 140.87 16.1301 141.54 15.8801C143.15 15.3001 144.53 14.2501 146.09 13.5501C147.06 13.1201 148.13 12.9901 149.08 12.5101C149.15 12.4801 149.23 12.42 149.28 12.37C149.23 12.32 149.23 12.32 148.52 12.16C148.51 12.14 148.5 12.11 148.49 12.09C148.65 11.9901 148.82 11.92 148.98 11.84C150.31 11.22 150.32 11.16 150.35 11.03C150.21 10.99 150.04 11.0401 149.92 10.9301C150.12 10.6401 150.63 10.55 150.53 10.07C150.82 9.73005 151.27 9.61005 151.53 9.25005C151.44 9.25005 151.32 9.24005 151.25 9.25005C149.63 9.65005 143.77 11.86 143.19 12.23C143.5 12.28 143.78 12.1401 144.09 12.1001C143.65 12.4701 142.45 12.74 141.93 12.86C140.15 13.26 139.25 14.28 139.24 14.2901C139.41 14.4001 141.37 13.8101 141.59 13.7501Z" fill="#E8E8E8"/>
<path d="M122.99 28.83C123.14 28.83 139.48 27.15 143.81 22.85C144.99 21.69 142.09 21.52 142.06 21.52C140.56 21.48 133.22 24.01 131.69 24.63C130.33 25.18 129.27 23.91 129.56 23.59C129.69 23.44 129.91 23.37 130.41 23.23C133.06 22.48 131.75 21.64 131.46 21.63C130.77 21.59 130.18 22 129.52 22.08C128.74 22.17 128 21.88 127.23 21.97C127 22 126.23 22.1 125.74 22.22C125.33 22.39 124.05 23.73 124.06 24.05C124.39 24.04 124.42 24.04 125.07 23.82C125.8 23.57 126.81 23.22 127.02 23.36C127.43 23.63 126.12 25.29 126.06 25.36C125.26 26.1 124.14 26.38 123.41 27.22C121.96 28.85 122.53 28.84 122.99 28.83Z" fill="#E8E8E8"/>
<path d="M450 230.85C449.64 224.34 449.32 215.65 448.66 209.16C448.37 207.21 448.11 205.42 447.86 203.75C446.3 198.6 446.17 197.77 443.11 179.55C443.15 179.62 443.2 179.72 443.23 179.78C435.76 154.98 435.76 154.98 435.64 153.78C435.68 153.82 435.71 153.85 435.74 153.89C433.11 146.13 431.89 143.48 428.33 135.75L420.34 120.11C418.14 117.2 415.59 114.62 411.82 112.21C415.33 114.44 418.15 117.01 420.34 120.11C417.26 115.08 413.32 108.28 410.05 103.38C396.03 84.2201 395.76 83.8501 387.06 74.4901L377.77 65.0901L377.75 65.0601C377.4 64.7401 377.05 64.4201 376.69 64.1101C377.09 64.6501 377.24 64.8601 381.1 68.8601C380.4 68.4601 379.81 67.9201 379.15 67.4501C380.23 69.4301 382.19 70.5401 383.72 72.0801C383.61 72.1501 383.47 72.2501 383.37 72.3201C376.89 67.0301 371.38 60.6701 364.83 55.4601C368.1 57.5001 370.68 60.5101 374.24 62.1501C373.4 60.6301 363.46 52.0201 356.91 48.0601C352.21 45.2201 351.7 44.7401 351.2 44.2801C351.47 44.3601 351.82 44.5001 352.07 44.6201C351.56 44.2001 351.27 43.9701 349.96 43.1901C349.86 43.2701 349.73 43.3801 349.62 43.4601C349.2 43.3001 348.4 43.0001 345.26 40.8601C345.54 40.9701 345.91 41.1001 346.19 41.1801C345.66 39.9301 339.91 37.2901 339.49 37.1701C339.76 37.8301 339.76 37.8301 340.71 38.9501C338.71 38.2501 337.71 36.1501 335.72 35.4401C336.09 36.3501 337.08 36.7801 337.46 37.6701C336.74 39.2501 336.74 39.2501 336.86 40.2101C337.05 41.6501 341.67 49.8001 341.72 49.8701C345.17 55.1701 345.03 57.0201 345.01 57.2201C344.34 62.1501 344.34 62.1501 341.63 64.0901C340.64 64.8001 340.66 65.1501 341.19 66.4501C341.26 66.6301 348.5 83.5701 355.18 80.4801C357.33 79.4801 356.26 75.9301 355.74 74.2201C356.29 74.6201 368.25 86.5201 370.48 90.2801C371.54 92.0701 372.54 93.7501 374.38 93.7601C374.75 93.0901 374.94 88.3901 373.78 86.2301C371.11 81.2801 371.73 80.7201 373.07 79.4801C373.12 78.2901 372.98 77.8501 369.51 75.5501C367.11 73.9601 367.11 73.9601 363.85 68.6901C362.61 66.6801 364.66 64.1501 362.83 62.2401C358.03 57.2501 358.03 57.2501 357.89 56.9601C357.81 56.7801 357.7 56.5301 357.62 56.3401C357.69 56.2301 357.79 56.0801 357.86 55.9701C359.64 56.5601 365.6 60.5101 366.04 61.7401C365.89 61.7601 365.7 61.7701 365.55 61.7901C370.17 72.1201 370.17 72.1201 374.55 76.1901C378.37 79.7501 384.17 79.2101 388.01 82.7301C387.34 82.6401 386.79 82.2701 386.18 82.0401C386.07 82.1101 385.92 82.2001 385.81 82.2701C386.04 82.7301 386.36 83.1401 386.63 83.5701C384.4 82.9301 382.27 81.9601 379.95 81.6601C382.48 85.1501 386.1 87.7501 388.07 91.6901C385.58 91.5901 385.41 87.9601 382.72 88.1701C382.64 88.3001 382.54 88.4701 382.45 88.5901C382.48 88.6401 385.49 94.1601 385.8 94.5601C386.21 95.0701 388.25 97.6901 388.1 98.8601C386.57 98.7201 386.57 98.7201 386.28 98.8001C386.07 99.2701 385.99 99.7901 385.8 100.27C385.88 100.37 385.98 100.51 386.06 100.62L386.01 100.61C378.97 100.12 378.97 100.12 378.92 100.8C378.63 100.98 378.24 101.22 377.94 101.4C376.48 100.56 374.63 100.03 372.69 99.6301L376.09 100.23C375.52 99.8001 373.99 98.6501 371.24 98.7801C370.31 98.8301 370.09 98.8401 367.47 95.8301C365.54 93.6201 363.28 90.4101 363.39 87.6501C363.43 86.5101 361.72 81.7001 360.44 81.5701C360.28 81.5701 356.63 81.5401 357.26 83.3301C357.53 84.1001 362.21 92.2901 365.54 96.1401C366.89 97.6901 366.95 97.9001 366.99 98.0101C366.82 98.2001 366.79 98.2301 365.78 98.4301C365.08 98.5501 364.13 98.7101 363.42 98.8201C363.21 99.1101 362.94 99.5001 362.73 99.7801C359 99.6701 359 99.6701 357.98 100.67C358.17 101.69 358.53 103.59 359.78 107.06C359.6 107.38 359.36 107.8 359.18 108.12C356.07 108.05 356.07 108.05 354.31 108.7C354.33 108.87 354.33 108.87 355.66 112.16C354.94 112.66 353.87 113.18 353.03 113.45C353.01 114.22 352.81 115.25 352.48 115.96C348.89 115.78 348.31 115.35 346.75 114.21C347.14 114.9 347.71 115.78 348.18 116.42C348.07 116.77 347.92 117.25 347.81 117.6C347.09 117.91 346.1 118.27 345.34 118.46C343.6 117.34 343.6 117.34 340.79 117.27C340.64 117.6 340.44 118.04 340.29 118.37C340.99 118.99 341.93 119.82 342.64 120.44C342.35 120.65 341.96 120.92 341.67 121.13C358.5 125.81 355.86 142.73 355.76 142.88C347.92 142.32 340.36 139.97 332.57 139.18C332.95 139.85 333.56 140.7 334.08 141.27C334.07 141.47 334.94 162.39 337.63 163.18C336.9 169.63 336.9 169.63 336.77 170.22C342.22 169.8 343.35 169.71 345.69 170.24C346.59 173.93 346.59 173.93 346.64 174L359.41 169.76C362.93 169.32 363.82 164.85 361.92 161.84C363.95 153.44 364.05 153.4 369.31 151.33C369.39 144.55 369.39 144.55 369.95 144.08C372.38 142.05 374.28 145.29 376.56 145.3C378.63 141.62 380.36 139.23 383.6 142.02C383.76 142.16 401.57 162.63 403.33 168.37C404.65 172.7 404.04 172.79 396.52 173.82C397.99 176.32 402.55 180.27 402.58 180.29C403.22 178.25 401.95 176.28 402.33 174.25C402.67 174.29 403.11 174.35 403.45 174.4C404.39 173 404.77 171.32 405.65 169.88C404.53 165.98 404.53 165.98 404.56 164.56C404.9 164.47 405.35 164.35 405.7 164.26C406.15 164.88 406.76 165.71 407.23 166.33C406.86 164.49 406.86 164.49 400.82 157.24C400.91 156.89 401.02 156.43 401.1 156.08C398.27 154.82 396.03 153.82 388.48 138.37C388.84 137.8 389.58 137.17 390.21 136.93L407.33 157.07C407.39 157.17 407.39 157.17 412.49 171.84L417.92 184.28C418.02 183.56 418.08 182.59 418.08 181.87C418.07 178.91 416.94 176.18 416.37 173.33C414.52 164.09 414.52 164.09 415.42 163.4C417.07 163.76 420.54 165.82 421.26 168.51C421.61 167.88 422.01 167 422.25 166.32C422.62 166.29 423.11 166.27 423.47 166.25C424.59 157.84 418.59 150.56 419.64 142.16C420.25 141.94 421.22 142 421.81 142.27C421.67 142.58 421.47 143 421.33 143.31C422.39 144.55 422.82 144.87 424.06 145.61C424.42 147.09 424.42 147.09 424.02 149.39C425.12 150.63 425.63 152.24 426.58 153.57C430.63 151.23 424.59 147.08 425.79 143.66C427.59 143.28 427.9 143.87 428.42 145.26C428.24 145.59 428 146.02 427.82 146.35C428.45 147.36 428.45 147.36 429.38 150.98C429.18 151.27 428.91 151.66 428.71 151.95C431.64 159.15 438.24 164.77 437.97 173.36C437.68 173.53 437.26 173.76 436.96 173.92C433.46 171.58 433.65 163.82 427.98 165.31C427.93 165.98 427.58 166.89 427.12 167.38C426.45 167.15 425.53 166.89 424.85 166.74C424.99 167.38 425.46 168.19 425.94 168.65C424.64 169.76 422.88 169.09 421.48 169.79C421.36 170.56 421.3 171.61 421.33 172.38C421.65 172.48 422.08 172.6 422.41 172.7C422.97 177 424.03 185.01 429.33 189.48C429.58 189.23 429.9 188.9 430.15 188.65C430.14 188.3 430.12 187.84 430.11 187.49C431.84 188.94 432.4 191.36 434.41 192.57C434.66 191.9 434.87 190.96 434.94 190.25C435.42 190.74 436.21 191.29 436.85 191.54C437.73 207.84 437.86 210.34 436.08 214.74C433.74 214.55 433.36 214.04 432.61 211.75C431.97 211.77 431.07 212.12 430.62 212.59C422.84 212.02 423.55 200.7 415.42 200.56C413.91 203.26 415.1 206.39 414.06 209.17C413.72 209.31 413.29 209.48 412.95 209.62C411.27 208.38 393.42 192.13 392.14 190.01C391.75 189.35 392.28 188.15 392.69 187.5C393.66 185.95 393.66 185.95 392.92 176.33C390.98 175.05 390.59 174.84 389.42 174.21C387.85 175.41 387.85 175.41 381.31 173.91C380.77 174.44 380.1 175.22 379.71 175.87C371.23 172.56 364.37 181.86 355.95 178.94C355.02 178.86 354.86 178.85 354.7 178.85C352.31 179.33 351.5 179.5 348.91 176.39C348.44 176.06 348.43 176.06 348.41 176.06C348.09 176.34 347.63 176.68 347.36 177.02C345.77 178.96 346.97 181.71 345.43 183.66C343.5 186.09 339.87 186.04 338.09 188.69C337.56 189.47 337.81 190.87 337.76 191.82C337.23 202.07 337.23 202.07 334.47 203.4C331.99 204.6 327.73 207.9 327.21 208.75C325.67 211.22 314.37 230.85 314.37 230.86C313.9 236.1 317.38 240.52 317.46 245.65C317.54 249.95 311.4 252 313.34 256.98C316.24 264.45 320.27 271.37 323.72 278.58C325.17 281.61 336.03 291.99 338.09 291.8C348.32 290.84 358.19 286.98 368.66 288.11C369 288.15 369.4 288.43 369.66 288.65C371.55 290.23 370.2 293.09 372.04 294.69C373.85 296.26 376.2 295.49 378.24 296.12C379.58 300.19 379.58 300.19 377.91 304.12C395.52 307.38 406.62 310.34 414.64 314.25C406.74 310.4 395.32 307.34 377.91 304.12C373.27 315.04 373.27 315.04 373.98 318.15C375.1 323.07 376.64 329.81 370.35 344.6C367.45 351.41 361.92 356.41 358.1 362.59C354.55 368.33 354.14 375.31 350.85 381.16C338.07 403.93 337.7 404.32 335.65 406.43C334.26 407.86 333.49 408.65 332.05 411.95C338.6 413.98 346.3 408.73 348.83 407L358.97 399.85L371.8 389.61C374.7 386.58 376.42 382.64 379.52 379.77C383.07 376.49 387.8 374.9 391.3 371.56C399.66 363.55 407.43 347.66 408.23 345.68C411.47 337.77 422.54 325.66 425.82 322.18C430.98 316.45 437.9 301.42 439.63 295.53C438.31 295.1 438.31 295.1 436.01 295.59C435.49 294.87 435.49 294.87 436.57 285.46C436.97 281.98 436.18 278.54 436.12 275.07C435.94 266.06 437.69 257.11 436.89 248.09L434.5 219.68C435.07 220.56 435.07 220.56 435.67 224.67C436.28 224.17 436.78 223.16 436.96 222.39C442.78 243.83 436.61 265.32 437.3 286.78C439.65 285.68 439.65 285.68 440.7 285.91C446.91 272.5 446.91 272.5 447.21 270.77C447.15 271.15 447.08 271.66 447.01 272.04C447.15 271.33 447.32 270.39 447.43 269.68L447.55 268.89L448.23 263.93C448.51 261.66 448.86 258.83 449.39 251.12C449.38 251.53 449.37 251.91 449.35 252.28C449.6 245.59 450.04 237.25 450 230.85ZM448.54 255.7C448.09 254.73 448.09 254.73 448.42 246.66C448.2 249.22 448.2 249.22 448.05 250.34C447.44 232.87 447.7 231.27 448.06 229.06C449.07 230.6 449.49 243.52 449.34 250.96C449 254.01 448.88 254.49 448.54 255.7Z" fill="#E8E8E8"/>
<path d="M315.18 94.87C315.16 94.93 315.13 95.01 315.09 95.07C314.21 96.78 313.58 100.05 313.58 100.08C313.36 101.39 313.44 102.02 313.87 102.55C314.62 103.45 318.09 103.07 320.62 101.45C321.26 101.04 321.85 100.56 322.52 100.22C323.31 99.82 324.37 100.11 324.99 99.25C325.34 98.77 325.19 97.64 324.57 95.91C324.25 95.03 323.88 94.49 323.48 93.91C322.82 92.94 322.78 92.59 323.22 91.57C323.4 91.14 323.72 90.41 323.48 89.51C323.24 88.62 322.56 88 322.02 87.64C321.75 87.46 321.37 87.25 321.08 87.11C320.28 86.73 319.4 86.54 318.6 86.17C318.01 85.9 317.81 85.69 317.71 85.58C317.64 85.51 317.63 85.5 317.55 85.5C317.33 85.55 312.08 86.86 315.38 88.71C315.59 88.83 315.71 88.9 316.17 88.93C316.05 89.05 315.84 89.14 315.69 89.22C313.51 90.28 313 90.81 312.5 91.32C312.15 91.68 311.76 92.3 311.91 93.26C312.04 93.6 312.23 94.08 313.08 94.5C313.74 94.82 314.49 94.69 315.18 94.87Z" fill="#E8E8E8"/>
<path d="M97.1898 33.18C97.1898 33.17 97.2098 33.17 97.2098 33.16C97.2098 33.16 97.2098 33.16 97.1998 33.16C96.6898 33.43 92.5098 35.85 92.2998 36.13C92.5098 36.14 92.7398 36.14 97.1898 33.18Z" fill="#E8E8E8"/>
<path d="M383.59 151.04C383.39 151.22 383.2 151.4 383.26 151.82C383.28 151.97 383.45 152.29 383.61 152.48C383.63 152.5 385.51 154.72 385.64 154.77C386.07 154.57 385.68 151.21 385.3 149.48C385.3 149.45 384.7 146.82 384.32 146.57C384.31 146.57 384.28 146.58 384.27 146.58C384.25 146.61 384.19 146.68 384.16 146.85C384.15 146.9 384.13 146.97 384.12 147.02C383.97 147.86 384.26 148.68 384.26 149.51C384.27 150.44 383.87 150.78 383.59 151.04Z" fill="#E8E8E8"/>
<path d="M73.6498 50.75C73.6698 50.78 73.7098 50.81 73.7298 50.84C73.8198 50.83 73.9298 50.78 74.0098 50.73C75.3398 49.81 76.4998 48.67 77.8298 47.74C80.2298 46.07 82.8198 44.67 85.1898 42.94C85.7398 42.54 85.7398 42.54 86.4398 41.23C86.4198 41.19 86.3998 41.13 86.3798 41.09C85.5398 41.27 84.9298 41.85 84.2098 42.23C84.8198 41.7 84.8198 41.7 84.9098 41.28C84.8798 41.27 84.8398 41.24 84.8098 41.23C84.7298 41.25 84.6098 41.28 84.5298 41.32C81.5698 42.56 81.5698 42.56 68.5398 53.29C67.3998 54.23 66.4998 54.97 65.5698 56.92C65.6098 56.94 65.6598 56.96 65.6898 56.97C68.7998 55.49 70.9898 52.81 73.6498 50.75Z" fill="#E8E8E8"/>
<path d="M91.9299 38.37C92.2499 38.4 93.2899 37.82 94.2999 37.25C98.3299 34.98 100.39 34.1 100.4 34.09C101.7 33.59 103.05 33.24 104.3 32.59C105.29 32.08 109.02 29.47 109.05 29.45C109.77 28.95 109.82 28.86 109.9 28.72C109.38 28.68 108.78 29.02 108.77 29.02C107.63 29.67 106.64 30.56 105.5 31.22C106.91 29.82 108.56 28.7 109.93 27.26C109.88 27.27 109.82 27.27 109.78 27.28C109.73 27.31 105.07 29.7 104.93 30.35C104.82 30.82 104.19 32.02 100.63 32.85C100.61 32.83 100.58 32.8 100.55 32.77C100.63 32.66 100.73 32.56 100.83 32.47C100.86 32.44 100.9 32.41 100.92 32.38C101.41 31.85 103.06 31.53 102.38 30.77C102.29 30.79 92.7499 35.4 92.6699 36.72C92.7099 36.75 92.7099 36.75 97.2799 34.21C96.8199 34.97 95.9599 35.23 95.3199 35.75C95.4399 35.75 95.4599 35.75 96.5799 35.14C96.8799 34.98 97.4499 34.67 98.5999 34.26C97.5499 34.97 94.1599 36.76 92.2399 37.61C91.5699 37.93 91.5599 38.33 91.9299 38.37Z" fill="#E8E8E8"/>
<path d="M65.3997 62.0201C66.0897 62.1901 66.6197 61.5801 67.2797 61.6101C67.3197 61.6501 67.3497 61.6901 67.3797 61.7301C67.0797 62.5501 66.2997 63.0301 65.8897 63.7801C66.6797 63.7901 73.0897 60.9401 76.7197 58.0101C77.8897 57.0701 78.3697 56.6801 79.0197 56.4301C79.0597 56.4601 79.1097 56.4901 79.1597 56.5201C78.8597 57.0901 78.8597 57.0901 78.8197 57.2201C79.1297 57.5201 81.5597 58.0501 81.5797 58.0501C83.8697 57.2801 83.8697 57.2801 86.0997 54.7801C86.1797 54.6901 86.1897 54.6701 86.2097 54.6501C85.9697 54.6101 85.9697 54.6101 83.8497 55.7501C84.0797 55.0001 86.3097 53.3101 87.8397 53.3801C88.3897 53.4101 88.4997 53.3701 88.6997 53.2301C88.7097 53.2201 89.8697 52.1701 89.6797 51.2101C88.4797 50.5301 87.9797 49.2001 88.6197 48.4101C89.1797 47.7201 94.1197 41.6601 93.9997 41.1601C93.7697 41.0401 93.5197 41.0001 93.2797 40.9201C93.2497 40.8501 93.2097 40.7501 93.1897 40.6801C93.1697 40.6901 93.1497 40.7101 93.1297 40.7201C90.8497 42.6501 89.2897 45.3501 86.6197 46.8801C86.3597 45.7801 87.4997 45.4301 87.8197 44.6401C87.7597 44.6001 87.6797 44.5401 87.6197 44.5001C86.5697 44.8901 85.6997 45.6901 84.5797 45.9301C84.8897 45.4401 85.4297 45.1301 85.6897 44.5801C85.6597 44.5401 85.6097 44.5001 85.5797 44.4701C84.0897 44.9201 82.9797 46.0801 81.5497 46.6301C82.4297 45.4101 83.8897 44.8601 84.8997 43.7701C83.9997 43.8601 72.2797 51.4401 72.5597 52.8601C72.6897 52.9001 72.8697 53.0001 72.9997 53.0901C72.7797 53.4701 72.7697 53.4801 71.3697 54.3301C69.0397 55.7401 68.9397 56.0201 68.9497 56.3601C69.0697 56.4201 69.2497 56.4401 69.3797 56.4101C70.6797 56.1501 71.7397 55.2801 73.0297 55.0001C73.9497 54.8001 74.8597 55.2001 75.7797 55.0001C74.1397 56.2601 71.9497 56.9201 71.0197 57.2101C64.8997 59.0401 64.2997 61.7501 65.3997 62.0201Z" fill="#E8E8E8"/>
<path d="M119.01 73.1501C119.21 72.6301 118.68 72.6501 118.27 72.7201C118.25 72.7301 116.48 73.05 116.03 73.6C115.39 74.39 115.55 75.4901 115.83 75.7201C116.5 76.2701 118.74 73.8701 119.01 73.1501Z" fill="#E8E8E8"/>
<path d="M116.02 68.85C116.1 68.82 116.33 68.69 116.43 68.51C116.63 68.1 116.32 67.43 116.09 67.22C115.7 66.85 115.19 66.65 114.83 66.25C114.19 65.58 113.86 64.66 113.12 64.07C113.01 63.98 112.85 63.88 112.73 63.81C111.99 63.35 111.08 63.43 110.34 62.98C109.87 62.69 109.86 62.03 109.39 61.75C109.34 61.72 109.24 61.72 109.18 61.74C108.51 62.06 106.23 65.27 106.13 65.4C105.83 65.82 105.46 66.39 105.19 66.82L102.7 70.86C104.18 70.98 104.18 70.98 104.3 71.73C104.44 72.68 104.44 72.68 104.58 72.66C104.78 72.62 105.18 72.3 105.99 71.62C107.15 70.64 109.11 68.99 111.4 68.73C112.94 68.55 114.46 69.4 116.02 68.85Z" fill="#E8E8E8"/>
<path d="M111.92 71.61C111.89 71.61 108.61 72.32 107.54 73.16C106.9 73.66 106.81 75.04 107.16 75.3C107.84 75.8 111.97 73.35 112.72 72.2C112.97 71.84 113.02 71.43 111.92 71.61Z" fill="#E8E8E8"/>
<path d="M330.27 94C330.04 94.03 330.08 94.15 330.14 94.39L331.71 94.51C330.87 94.12 330.53 94 330.27 94Z" fill="#E8E8E8"/>
<path d="M177.93 110.65C179.43 108.69 180.09 107.39 179.89 106.77C179.81 106.74 179.7 106.7 179.61 106.72C178.79 106.99 176.61 108.85 174.92 110.93C172.88 113.44 171.49 116.4 169.48 118.94C168.41 120.29 166.93 121.25 165.92 122.66C165.54 123.2 165.84 123.36 166.01 123.44C166.27 123.58 166.27 123.58 172.34 124.07C175.81 124.35 178.35 124.66 181.06 125.39C181.37 125.47 181.78 125.62 182.09 125.64C183.07 125.7 184.09 124.72 185.05 125.72C185.52 126.22 185.57 127.14 185.61 127.75C185.64 128.41 185.96 128.47 186.14 128.45C187.11 128.34 188.31 126.47 188.43 124.88C188.62 122.33 186.68 118.37 184.74 116.27C183.73 115.18 183.73 115.18 180.17 115.96C179.08 116.2 178.85 115.97 178.6 115.06C178.13 113.35 177.71 113.05 177.05 112.71C176.7 112.53 176.7 112.41 176.87 112.07C177.12 111.61 177.6 111.07 177.93 110.65Z" fill="#E8E8E8"/>
<path d="M319.6 79.03C319.8 80.27 318.84 81.43 319.34 82.68C319.72 82.82 320.52 82.73 322.2 81.46C322.82 80.99 323.35 80.59 323.77 80.82C325.5 81.78 323.49 83.64 324.09 85C325.29 87.75 326.7 88.12 328.49 88.59C331.29 89.32 331.65 89.42 332.16 89.78C332.25 90.22 331.99 90.68 332.24 91.12C332.99 92.46 334.32 93.37 334.98 94.78C335.33 96.23 333.57 95.39 332.27 94.77C331.72 94.51 331.72 94.51 330.14 94.39C330.77 96.22 332.83 97.11 333.24 99.08C333.46 100.14 332.47 100.71 331.05 101.39C330.68 101.57 330.1 101.85 330.31 102.27C330.42 102.49 331.05 103.22 334.45 103.13C335.89 103.09 338.89 103.01 338.98 103.99C339.05 104.89 338.37 104.88 337.33 104.86C336.33 104.84 336.02 105.13 335.63 105.48C334.9 106.15 334.79 107.18 334.15 107.9C333.36 108.79 332.28 109.34 331.47 110.21C331.48 110.29 331.5 110.41 331.51 110.49C331.96 110.6 331.96 110.6 338.46 109.78C341.75 109.37 345.07 109.62 348.35 109.15C348.38 109.14 348.43 109.14 348.47 109.13L354.11 107.22C354.15 107.17 354.15 107.09 354.17 107.03C353 105.87 351.51 106.9 350.23 106.44C349.62 104.74 351.2 103.18 350.56 101.49C349.41 98.45 348.21 98.51 347.25 98.56C345.06 98.68 343.57 95.61 343.57 95.58C343.59 95.54 343.61 95.48 343.64 95.44C343.78 95.4 343.78 95.4 345.49 95.78C346.26 96.05 347.33 96.42 347.25 96.03C347.25 96.01 347.23 95.99 347.23 95.97C347.12 95.82 346.93 95.53 346.33 95.06C343.67 93 340.35 91.98 337.92 89.58C336.76 88.43 335.92 86.97 334.5 86.07C332.05 84.51 329.8 84.18 328.67 84.13C328.66 84.12 328.65 84.12 328.64 84.12C330.07 82.84 331.96 76.51 328.1 76.36C327.4 76.33 326.61 76.44 326.09 76.5C323.65 76.82 323.21 76.88 323.19 76.24C323.15 74.96 325.33 72.57 323.55 72.46C323.5 72.46 318.75 72.55 318.05 74.25C317.99 74.41 318.07 74.65 318.1 74.81C318.32 76.32 319.37 77.54 319.6 79.03Z" fill="#E8E8E8"/>
<path d="M5.08 141.26C5.69 139.83 6.03 138.3 6.6 136.86C6.94 135.99 7.34 135.15 7.66 134.28C7.7 134.18 7.73 134.05 7.77 133.95C7.79 133.92 8.03 133.13 7.64 133.22C7.58 133.23 7.5 133.28 7.45 133.32C6.16 134.37 4.71 141.05 4.96 141.46C5 141.41 5.05 141.32 5.08 141.26Z" fill="#E8E8E8"/>
<path d="M288.47 47.29C288.47 47.21 288.49 47.1 288.47 47.02C288.2 46.54 287.43 45.65 286.51 45.28C286.35 45.22 286.15 45.15 285.99 45.1C284.62 44.72 283.14 45.06 281.79 44.51C280.83 44.12 280.12 43.17 278.96 43.23C277.64 43.55 276.39 44.1 275.07 44.41C273.79 44.71 272.44 44.63 271.17 45.06C270.36 45.33 270.95 46.33 270.31 46.7C269.63 47.1 268.92 46.35 268.25 46.75C268.15 46.81 268.01 46.9 267.91 46.97C267.65 48.1 268.67 49.42 267.43 50.42C267.05 50.27 264.15 47.88 263.67 46.97C262.58 44.91 257.98 43.63 256.7 44.66C257.06 45.7 258.33 45.48 258.9 46.24C258.54 47.75 256.75 47.51 256.02 48.58C256.44 48.88 257.89 48.67 258.7 48.52C260.13 48.26 264.64 49.82 262.12 51.9C263.2 53.22 264.63 52.1 265.85 52.45C267.12 52.81 267.13 53.27 267.14 54.4C267.44 54.65 267.69 54.76 270.22 54.49C271.88 54.32 272.45 54.27 272.98 54.31C274.19 54.39 275.32 54.93 276.53 55C276.68 55.01 276.88 55.02 277.03 55.01C277.46 55 278.05 54.99 281.41 54.17C284.45 53.43 289.08 50.07 288.84 49.09C288.7 48.45 288.15 48.02 287.96 47.4C288.1 47.27 288.1 47.27 288.47 47.29Z" fill="#E8E8E8"/>
<path d="M152.02 117.28C150.69 117.78 153.73 119.25 154.35 119.55C158.35 121.43 159.74 119.4 159.75 119.37C160.24 118.28 153.48 117.04 152.02 117.28Z" fill="#E8E8E8"/>
<path d="M253.94 325.04C253.63 323.41 255.81 321.18 253.75 320.13C252.28 319.39 250.83 320.48 249.38 320.16C244.65 319.13 241.56 315.02 237.03 313.62C230.29 311.54 223.32 310.34 216.49 308.64C212.52 307.18 212.16 302.59 209.72 299.94C205.55 297.22 202.43 292.81 198.07 290.32C192.37 287.07 185.35 288.18 179.7 284.75C175.23 282.03 172.23 277.43 167.43 275.12C166.73 274.78 165.73 274.47 164.97 274.36C141.78 270.87 123.46 268.11 121.39 286.5C114.51 281.61 96.8198 289.35 98.4598 277.92C99.4498 271 96.4998 265.9 96.4598 265.89C91.0798 263.17 85.6298 266 80.1998 265.63C81.9898 259.7 81.9898 259.7 80.6798 256.94C83.0298 251.45 83.0298 251.45 83.8898 246.47C82.8698 245.57 73.8298 238.28 71.9098 258.7C68.7998 258.5 66.7998 262.87 63.2298 260.82C54.8798 256.03 52.0298 249.94 51.0698 246.74C49.8898 242.78 53.2198 239.68 53.1398 235.94C53.0898 233.55 49.8698 232.39 50.7098 229.65C51.7998 226.11 58.3298 219.45 59.8598 218.27C62.5898 216.16 73.1998 218.56 73.2798 218.6C73.5698 218.37 73.9398 218.05 74.2298 217.81C73.4198 216.92 72.2198 216.61 71.2998 215.88C71.3798 215.53 71.4698 215.07 71.5498 214.71C73.6698 213.48 90.5098 212.02 90.5898 212.06C97.8098 215.91 93.4098 226.06 100.33 230.08C108.5 221.45 95.3798 213.79 96.8198 205.1C98.3298 196.11 107.3 194.02 112.32 188.28C112.21 188.27 112.2 188.27 112.19 188.27C111.97 188.02 111.68 187.69 111.45 187.44C111.49 187.11 111.54 186.68 111.58 186.36C111.89 186.27 112.31 186.14 112.63 186.05C112.67 185.66 112.72 185.14 112.76 184.75C112.45 184.63 112.03 184.48 111.73 184.36L113.39 167.88C113.52 170.31 113.51 177.74 113.51 177.75C114.29 177.25 114.29 177.25 114.98 166.4C115.58 167.55 116.62 168.47 116.89 169.81C118.37 167.27 117.88 163.94 120.15 161.72C120.2 161.66 129.9 156.39 130.62 156.44C131.52 147.93 131.52 147.93 136.29 143.47C137.09 143.51 137.09 143.51 150.93 135.49C150.79 135.78 150.61 136.17 150.47 136.46C151.18 136.73 152.19 136.98 152.96 136.96C152.96 137.32 152.96 137.8 152.96 138.16C144.95 143.85 144.95 143.85 144.85 145.51C150.28 145.6 166.97 135.89 163.99 128.37C161.7 129.91 161.6 132.74 160.22 134.82C158.44 134.32 156.98 133.92 155.78 133.56C156.98 133.31 157.9 132.02 157.9 132C157.91 131.98 157.92 131.95 157.92 131.94C157.91 131.93 157.9 131.91 157.89 131.9C157.79 131.87 157.75 131.88 157.43 131.93C155.28 132.27 154.06 131.8 153.62 131.58C152.56 131.05 152.39 130.42 152.47 129.53C152.5 129.18 152.44 129.16 152.41 129.13C152.39 129.14 152.37 129.16 152.35 129.17C152.24 129.35 151.57 131.04 152.18 132.29C150.1 131.31 149.74 130.25 148.93 127.73C146.97 127.01 146.85 126.85 146.01 125.83C148.94 125.03 151.05 124.46 151.68 121.52C150.18 120.04 150.18 120.04 129.31 133.1C143.68 118.15 143.68 118.15 158.43 113.67C161.78 115.97 176.87 108.48 179.17 104.3C178.43 102.48 178.43 102.48 179.51 99.79C179.31 99.48 179.05 99.06 178.84 98.75C177.63 98.49 176.43 98.22 175.21 97.98C174.18 97.97 174.16 97.97 174.15 97.97C173.42 98.04 171.19 98.26 167.24 100.84C167.1 100.54 166.93 100.14 166.79 99.84C168 98.12 168.57 97.9 173.04 96.17C164.38 96.91 155.93 97.63 146.64 98.57C155.18 97.67 162.6 97 173.1 96.15C173.33 96.03 173.67 95.88 173.8 95.66C174 95.13 170.52 92.13 166.14 93.28C165.15 93.53 165.15 93.53 164.63 93.36C164.32 92.51 165.01 91.57 164.4 90.76C163.57 89.66 161.94 89.94 161.11 88.83C160.77 88.36 161 87.95 161.66 87.04C162.62 85.7 162.62 85.7 160.51 81.93C155.2 72.44 155.2 72.44 152.6 77.4C152.19 78.17 153.22 78.97 152.55 79.74C151.79 80.62 150.41 79.81 149.68 80.8C148.03 83.07 148.03 83.07 147.56 83.21C144.67 84.09 142.66 81.75 140.15 81.19C139.71 80.4 140.7 75.24 142.23 74.01C140.76 73.52 139.21 74.23 137.73 73.69C137.39 73.56 137.17 73.33 136.72 72.55C136.56 72.29 136.2 71.67 132.57 70.47C131.76 70.2 131.57 70.22 130.96 70.28C127.64 71.17 124.08 70.44 120.84 71.79C121.42 74.87 117.64 77.65 120.2 80.87C119.71 82.38 117.75 82.88 117.64 84.65C117.52 86.7 119.59 87.9 119.66 89.88C119.67 89.96 119.81 97.91 115.24 98.97C114.24 99.2 111.96 99.93 112.45 101.61C112.23 101.9 112.11 102 111.19 102.71C109.98 107.32 113 113.08 107.75 116.72C106.11 114.2 103.19 113.48 100.92 111.85C102.15 108.23 101.62 106.91 100.95 105.24C101.3 104.96 101.89 104.46 102.24 104.19C102.19 104 102.24 103.6 102.19 103.41C101.8 103.35 101.26 103.32 100.86 103.33C98.6998 101.24 96.0898 103.13 93.7698 102.5C91.3998 101.86 90.1998 99.46 87.9298 98.66C87.5398 98.53 87.0098 98.39 86.5998 98.32C84.5298 97.97 83.0498 99.5 81.2598 100.01C80.6398 99.5 80.6398 99.5 79.8498 94.77C79.5698 93.12 79.5698 93.12 75.6898 92.82C74.8098 87.79 87.0698 78.69 92.2998 74.8C91.6998 73.2 89.9498 73.91 88.9498 73.12C99.1298 71.31 99.1298 71.31 104.92 65.13C100.98 65.82 100.16 65.96 96.9598 64.14C100.75 62.77 105.63 65.16 108.51 60.73C108.22 60.52 107.75 60.36 107.4 60.34C107.42 60.32 109.3 58.04 111.28 59.29C117.88 56.9 117.88 56.9 119.62 55.38C120 55.05 120.44 54.55 120.7 54.12C121.41 52.92 120.24 51.63 120.88 50.43C121.47 49.32 122.86 49.43 123.64 48.61C124.07 48.06 124.14 47.36 124.45 46.76C124.39 46.7 118.83 41.02 116.96 49.07C113.54 51.04 111.08 59.06 106.92 55.35C107.28 52.88 112.28 51.28 109.95 48.83C107.3 49.83 106.24 52.5 104.28 54.23C103.81 52.9 106.51 49.37 106.54 49.34C106.4 49.29 106.4 49.29 104.03 49.19C108.13 42.58 108.13 42.58 108.13 41.78C107.95 41.64 107.69 41.46 107.51 41.33C109.85 37.71 109.85 37.71 120.78 31.26C120.02 31.17 120.02 31.17 118.8 31.39C110.06 33.44 98.2198 49.87 98.1398 50.03C98.2298 50.22 98.3498 50.46 98.4398 50.64C99.3698 50.64 100.29 50.43 101.22 50.38C101.26 50.55 101.32 50.78 101.36 50.95C99.4198 51.91 99.1098 52.09 98.2198 52.94C98.1998 53.41 98.1998 53.41 98.1998 53.41C98.1998 53.41 98.1998 53.41 98.2098 53.41C98.3798 53.45 98.5998 53.49 98.7698 53.54C96.8998 56.75 92.8298 57.84 91.3098 61.37C89.8798 59.89 89.8798 59.89 92.5498 57.03C91.0198 56.64 91.0198 56.64 86.0398 60.56C85.7598 60.77 84.0998 61.84 77.9498 61.54C77.5498 60.96 77.6198 60.19 77.1998 59.61C72.2298 60.89 70.7498 63.78 67.7998 69.54C67.2498 68.09 68.5298 66.88 68.3598 65.48C65.6798 65.91 63.4798 68.11 60.5498 67.67C61.7798 66.46 63.7498 66.02 64.2198 64.04C64.0698 63.96 63.8598 63.84 63.7098 63.76C63.0498 64.12 62.9498 64.18 61.0398 63.97C60.8298 63.67 60.4898 63.28 60.2098 63.03C58.8498 63.31 58.0798 64.48 57.0198 65.2C57.2098 64.83 57.5198 64.35 57.7798 64.03C57.0498 64.56 57.0498 64.56 55.8498 65.71C56.4698 64.42 56.4698 64.42 58.3498 62.09C55.1098 65.07 55.1098 65.07 49.1898 70.11C49.1698 70.12 49.1698 70.12 49.1698 70.12C51.0398 68.33 53.0598 66.71 54.9598 64.95C54.9398 64.96 50.7098 68.14 45.4198 73.42C45.5998 73.1 45.8798 72.69 46.1098 72.4C42.8398 76.08 38.4698 80.98 35.1998 84.66C21.0498 103.09 20.7898 103.44 14.5298 113.84L14.5798 113.76C14.6798 113.62 14.7998 113.42 14.8898 113.28C10.6998 123.84 10.6998 123.84 10.1898 126.71C9.9198 127.55 9.5598 128.66 9.2798 129.49C9.4698 129.81 9.7298 130.23 9.9198 130.54C8.5898 134.74 8.5898 134.74 7.1598 141.93C6.8098 143.65 7.2098 145.22 7.7398 146.78C7.5398 146.71 7.1998 146.63 6.6898 146.59C6.4498 146.57 6.3198 146.53 6.2398 146.44C6.1598 146.36 6.1298 146.33 5.9898 145.82C5.9198 145.56 5.6598 144.7 5.4398 144.65C5.4398 144.65 5.4298 144.66 5.4198 144.66C5.4198 144.68 4.8898 147.14 5.4798 149.17C5.9698 150.84 7.1498 150.61 7.1698 150.61C7.4798 150.51 7.7698 150.21 7.9498 149.76C8.1098 149.36 8.1398 148.92 8.1398 148.73C8.1598 148.45 8.0898 148.19 8.0798 147.91C8.0798 147.88 8.0898 147.86 8.0898 147.83C8.6698 149.46 9.2498 151.08 9.1498 152.83C8.5798 152.51 7.8098 152.1 7.2198 151.81C0.169799 160.6 -2.2902 204.7 2.3998 212.93C2.9998 213.03 2.9998 213.03 13.2298 233.99C12.4998 234 11.5398 234.03 10.8098 234.07C12.0498 236.66 21.0598 248.32 21.1398 248.41C21.9598 247.21 22.8098 245.97 18.6698 240.07C16.7798 237.39 14.6498 234.36 11.0398 219.71C15.5598 223.02 16.0398 225.18 16.6398 227.91C17.0698 229.86 17.5498 232.06 18.4198 233.44C20.2598 236.39 22.5298 239.03 24.4898 241.9C27.0298 245.61 31.3698 247.69 33.4998 251.77C35.2198 255.06 34.3998 259.46 37.9398 261.95C38.4198 262.29 39.1798 262.56 39.7298 262.77C40.7298 263.16 41.9998 263.87 43.0398 264.14C46.6798 265.08 50.4098 265.66 54.0698 266.54C57.8198 267.45 61.7898 265.29 65.4598 267.39C73.8598 272.18 73.8598 272.18 76.8098 272.5C77.2498 272.55 77.8498 272.62 78.2898 272.68C91.4898 274.53 96.9598 290.89 111.42 290.37C117.85 279.63 121.82 292.51 123.23 298.55C123.67 300.46 123.67 300.46 120.05 308.4C120.01 308.53 116.51 322.85 118.01 325.53C118.25 325.97 118.56 326.56 118.84 326.98C123.58 334.02 143.05 353.29 143.21 353.42C147.96 357.53 154.4 358.46 159.42 362.06C163.24 364.8 166.1 370.2 167.47 377.24C167.53 377.56 175 411.05 187.98 429.33C204.44 452.52 220.38 449.96 220.52 449.91C205.18 442 205.18 442 206.63 435.5C204.5 433.22 204.5 433.22 200.47 422.13C201.09 421.93 201.09 421.93 203.99 422.02C203.96 421.72 203.96 421.72 200.47 416.87C203.16 414.47 203.16 414.47 202.96 412.56C203.16 412.44 203.43 412.27 203.63 412.14C208.39 413.6 209.98 409.66 208.75 407.86L207.35 405.89C218.18 405.6 222.79 379.37 222.82 379.11C224.38 375.76 228.46 373.78 230.14 373.08C233.98 371.48 234.04 366.97 236.75 364.49C237.97 363.38 239.07 363.36 239.99 363.48C241.57 363.68 241.7 363.7 241.91 362.2C242.35 358.91 242.05 355.61 242.21 352.31C242.3 350.47 241.21 348.57 242.43 346.77C243.85 344.7 244.37 343.92 243.37 342.55C243.19 342.3 242.99 341.91 242.92 341.61C251.98 338.31 255.2 328.48 255.22 328.39C255.23 328.28 255.24 328.13 255.21 328.02C255.03 326.92 254.14 326.13 253.94 325.04ZM26.6798 120.07C29.8898 119.02 33.2698 118.02 36.7598 117.06C33.2898 118.02 29.9098 119.02 26.6798 120.07ZM129.47 307.16C133.56 306.65 137.73 306.14 142.1 305.64C138.07 306.11 133.89 306.61 129.47 307.16ZM221.3 364.6C221.13 363.01 220.59 357.79 219.76 348.56C220.26 353.95 220.77 359.31 221.34 364.95C221.33 364.83 221.31 364.71 221.3 364.6ZM216.94 314.4C216.96 314.7 216.99 314.99 217.01 315.29C216.98 314.99 216.96 314.69 216.94 314.4Z" fill="#E8E8E8"/>
<path d="M18.9099 106.69C11.1099 73.7301 14.3299 46.7701 30.5499 30.5501C74.4799 -13.3799 197.16 38.06 304.55 145.45C306.06 146.96 307.55 148.47 309.04 149.98" stroke="#E7422E" stroke-width="2" stroke-miterlimit="10"/>
<path d="M140.96 149.98C142.45 148.47 143.94 146.96 145.45 145.45C252.84 38.06 375.52 -13.39 419.45 30.55C439.16 50.26 439.67 85.8 424.56 128.71" stroke="#E7422E" stroke-width="2" stroke-miterlimit="10" stroke-linecap="round" stroke-linejoin="round"/>
</g>
<defs>
<clipPath id="clip0">
<rect width="450" height="150" fill="white"/>
</clipPath>
</defs>
</svg>
